<?xml version="1.0" encoding="UTF-8" standalone="no" ?>
<!DOCTYPE svg PUBLIC "-//W3C//DTD SVG 1.1//EN" "http://www.w3.org/Graphics/SVG/1.1/DTD/svg11.dtd">
<svg xmlns="http://www.w3.org/2000/svg" xmlns:xlink="http://www.w3.org/1999/xlink" version="1.1" width="1080" height="1080" viewBox="0 0 1080 1080" xml:space="preserve">
<desc>Created with Fabric.js 5.2.4</desc>
<defs>
</defs>
<rect x="0" y="0" width="100%" height="100%" fill="transparent"></rect>
<g transform="matrix(1 0 0 1 540 540)" id="cdbf4f47-3100-4fdb-9c21-67c0a805650f"  >
</g>
<g transform="matrix(1 0 0 1 540 540)" id="0d968e13-b585-4794-a9ef-e6db184acbb5"  >
<rect style="stroke: none; stroke-width: 1; stroke-dasharray: none; stroke-linecap: butt; stroke-dashoffset: 0; stroke-linejoin: miter; stroke-miterlimit: 4; fill: rgb(255,255,255); fill-rule: nonzero; opacity: 1; visibility: hidden;" vector-effect="non-scaling-stroke"  x="-540" y="-540" rx="0" ry="0" width="1080" height="1080" />
</g>
<g transform="matrix(1 0 0 1.74 540 525.3)"  >
<path style="stroke: rgb(0,0,0); stroke-width: 0; stroke-dasharray: none; stroke-linecap: butt; stroke-dashoffset: 0; stroke-linejoin: miter; stroke-miterlimit: 4; fill: rgb(25,146,255); fill-rule: nonzero; opacity: 0.69;" vector-effect="non-scaling-stroke"  transform=" translate(-680.24, -396.7)" d="M 33.5 766.3 C 108.8 742.0999999999999 158 746 188.7 703.5 C 224.1 654.5 241.79999999999998 518.8 326.7 512.3 C 411.6 505.79999999999995 427.6 567.9 535.5 491.09999999999997 C 643.4 414.29999999999995 580 356.79999999999995 701.9 316.19999999999993 C 823.6999999999999 275.5999999999999 878.9 396.29999999999995 981.5 352.19999999999993 C 1084.1 308.0999999999999 1103.6 103.79999999999993 1160.3 61.299999999999955 C 1209.6 24.299999999999955 1331.5 4.599999999999952 1360.5 0.1999999999999531 L 1360.5 793.1999999999999 L 33.5 793.1999999999999 C 33.5 793 -41.9 790.4 33.5 766.3 z" stroke-linecap="round" />
</g>
<g transform="matrix(1 0 0 1 138.82 163.32)"  >
<path style="stroke: rgb(192,0,0); stroke-width: 0; stroke-dasharray: none; stroke-linecap: butt; stroke-dashoffset: 0; stroke-linejoin: miter; stroke-miterlimit: 4; fill: rgb(251,172,11); fill-rule: nonzero; opacity: 1;" vector-effect="non-scaling-stroke"  transform=" translate(-50, -50)" d="M 50 92.875 C 26.358 92.875 7.125 73.642 7.125 50 C 7.125 26.358000000000004 26.358 7.125 50 7.125 C 73.642 7.125 92.875 26.358 92.875 50 C 92.875 73.642 73.642 92.875 50 92.875 z M 50 9.125 C 27.461 9.125 9.125 27.461 9.125 50 C 9.125 72.538 27.461 90.875 50 90.875 C 72.538 90.875 90.875 72.538 90.875 50 C 90.875 27.461 72.538 9.125 50 9.125 z" stroke-linecap="round" />
</g>
<g transform="matrix(0 0 0 0 0 0)"  >
<g style=""   >
</g>
</g>
<g transform="matrix(0 0 0 0 0 0)"  >
<g style=""   >
</g>
</g>
<g transform="matrix(0 0 0 0 0 0)"  >
<g style=""   >
</g>
</g>
</svg>