<svg xmlns="http://www.w3.org/2000/svg" version="1.1" xmlns:xlink="http://www.w3.org/1999/xlink" xmlns:svgjs="http://svgjs.dev/svgjs" width="1440" height="560" preserveAspectRatio="none" viewBox="0 0 1440 560"><g mask="url(&quot;#SvgjsMask1001&quot;)" fill="none"><path d="M1204.88 401L1234.35 401L1234.35 443.48L1204.88 443.48z" fill="#d3b714"></path><path d="M54.86 522.54L55.23 522.54L55.23 522.91L54.86 522.91z" fill="#e73635"></path><path d="M658.34 45.72 a9.51 9.51 0 1 0 19.02 0 a9.51 9.51 0 1 0 -19.02 0z" stroke="#d3b714"></path><path d="M1348.16 107.33L1364.67 107.33L1364.67 123.84L1348.16 123.84z" stroke="#037b0b"></path><path d="M841 351.59a37.77 37.77 0 1 0 10.49 74.8z" stroke="#037b0b"></path><path d="M760.87 438.74 a29.13 29.13 0 1 0 58.26 0 a29.13 29.13 0 1 0 -58.26 0z" stroke="#e73635"></path><path d="M629.57 425.81a20.79 20.79 0 1 0-17.03-37.93z" stroke="#d3b714"></path><path d="M348.81 498.43L365.6 498.43L365.6 515.22L348.81 515.22z" stroke="#e73635"></path><path d="M322.36 355.26L350.18 355.26L350.18 383.08L322.36 383.08z" fill="#037b0b"></path><path d="M214.37 132.41L246.18 132.41L246.18 163.75L214.37 163.75z" stroke="#d3b714"></path><path d="M632.03 18.88L632.69 18.88L632.69 49.1L632.03 49.1z" fill="#037b0b"></path><path d="M402.96 113.57L444.44 113.57L444.44 155.05L402.96 155.05z" fill="#e73635"></path><path d="M1246.31 324.58a47.93 47.93 0 1 0 91.6 28.26z" stroke="#037b0b"></path><path d="M351.26 436.64 a15.28 15.28 0 1 0 30.56 0 a15.28 15.28 0 1 0 -30.56 0z" fill="#d3b714"></path><path d="M859.12 293.06a8.22 8.22 0 1 0 1.01 16.4z" stroke="#037b0b"></path><path d="M439.52 262.75L479.97 262.75L479.97 267.37L439.52 267.37z" stroke="#e73635"></path><path d="M874.04 273.11a49.58 49.58 0 1 0-1.45 99.15z" fill="#037b0b"></path><path d="M1249.86 404.63L1252.83 404.63L1252.83 407.6L1249.86 407.6z" fill="#037b0b"></path><path d="M863.06 277.25L879.69 277.25L879.69 316.78L863.06 316.78z" fill="#d3b714"></path><path d="M797.24 202.35L839.34 202.35L839.34 244.45L797.24 244.45z" stroke="#e73635"></path><path d="M1417.07 500.86L1459.79 500.86L1459.79 543.58L1417.07 543.58z" stroke="#d3b714"></path><path d="M1053.45 435.13L1064.48 435.13L1064.48 453.08L1053.45 453.08z" stroke="#d3b714"></path><path d="M197.41 363.54a21.99 21.99 0 1 0-41.78-13.75z" stroke="#e73635"></path><path d="M249.1 11.18L256.83 11.18L256.83 18.91L249.1 18.91z" stroke="#d3b714"></path><path d="M997.97 84.89L1027.44 84.89L1027.44 95.42L997.97 95.42z" fill="#e73635"></path><path d="M958.44 50.44a12.62 12.62 0 1 0-8.16-23.88z" stroke="#d3b714"></path><path d="M1381.87 124.9L1395.45 124.9L1395.45 138.48L1381.87 138.48z" fill="#037b0b"></path><path d="M1255.23 298.39a53.04 53.04 0 1 0-94.44 48.3z" fill="#e73635"></path><path d="M1046.4 352.92L1082.27 352.92L1082.27 388.79L1046.4 388.79z" stroke="#d3b714"></path><path d="M315.92 87.2a11.65 11.65 0 1 0-2.09 23.21z" stroke="#d3b714"></path><path d="M902.12 176.72 a48.86 48.86 0 1 0 97.72 0 a48.86 48.86 0 1 0 -97.72 0z" stroke="#e73635"></path><path d="M417.86 405.48 a40.33 40.33 0 1 0 80.66 0 a40.33 40.33 0 1 0 -80.66 0z" stroke="#d3b714"></path><path d="M1202.92 378.71L1217.26 378.71L1217.26 393.05L1202.92 393.05z" stroke="#037b0b"></path></g><defs><mask id="SvgjsMask1001"><rect width="1440" height="560" fill="#ffffff"></rect></mask></defs></svg>