<svg xmlns="http://www.w3.org/2000/svg" version="1.1" xmlns:xlink="http://www.w3.org/1999/xlink" xmlns:svgjs="http://svgjs.dev/svgjs" width="2500" height="2000" preserveAspectRatio="none" viewBox="0 0 2500 2000"><g mask="url(&quot;#SvgjsMask1093&quot;)" fill="none"><rect width="2500" height="2000" x="0" y="0" fill="url(&quot;#SvgjsLinearGradient1094&quot;)"></rect><path d="M0 410.71C67.66 410.71 142.94 414.87 192.31 500C313.82 709.52 296.75 744.83 341.77 1000C384.97 1244.83 312.03 1267.76 368.75 1500C391.15 1591.71 428.45 1647.89 500 1647.89C584.59 1647.89 593.88 1577.79 681.03 1500C843.88 1354.65 837.24 1347.1 1000 1201.61C1116.91 1097.1 1240.38 1092.82 1240.38 1000C1240.38 915.79 1114.45 931.86 1000 847.56C775.03 681.86 653.58 722.2 561.54 500C478.05 298.42 519.34 147.79 648.94 0C738.57 -102.21 824.47 0 1000 0C1250 0 1250 0 1500 0C1750 0 1750 0 2000 0C2250 0 2375 -125 2500 0C2625 125 2500 250 2500 500C2500 750 2500 750 2500 1000C2500 1250 2500 1250 2500 1500C2500 1670.73 2570.56 1711.19 2500 1841.46C2435.15 1961.19 2373.66 1954.19 2229.17 2000C2123.66 2033.46 2114.59 2000 2000 2000C1750 2000 1750 2000 1500 2000C1250 2000 1250 2000 1000 2000C750 2000 750 2000 500 2000C321.43 2000 305.79 2041.25 142.86 2000C55.79 1977.96 24.16 1957.98 0 1873.42C-47.27 1707.98 0 1686.71 0 1500C0 1250 0 1250 0 1000C0 750 0 750 0 500C0 455.36 -28.49 410.71 0 410.71" stroke="rgba(235, 251, 255, 1)" stroke-width="2"></path><path d="M2000 440.48C1966.79 440.48 1966.84 464.93 1956.14 500C1881.48 744.69 1865.04 746.15 1829.27 1000C1794.58 1246.15 1765.31 1265.11 1815.22 1500C1850.68 1666.89 1906.86 1803.57 2000 1803.57C2093.7 1803.57 2169.37 1665.81 2188.89 1500C2216.67 1264.03 2072.87 1244.31 2094.59 1000C2117.32 744.31 2308.62 682.43 2277.78 500C2261.33 402.67 2127.61 440.48 2000 440.48" stroke="rgba(114, 176, 240, 0.58)" stroke-width="2"></path><path d="M753.85 500C727.22 282.5 808.98 215.14 914.89 0C932.05 -34.86 957.44 0 1000 0C1250 0 1250 0 1500 0C1750 0 1750 0 2000 0C2107.15 0 2214.29 -32.44 2214.29 0C2214.29 38.99 2087.69 51.03 2000 142.86C1848.96 301.03 1843.74 307.35 1736.84 500C1605.93 735.92 1574.72 739.72 1524.39 1000C1478.04 1239.72 1461.18 1274.22 1543.48 1500C1643.43 1774.22 1902.15 1847.55 1888.89 2000C1880.41 2097.55 1694.45 2000 1500 2000C1250 2000 1250 2000 1000 2000C750 2000 750 2000 500 2000C410.72 2000 321.43 2036.61 321.43 2000C321.43 1948.58 405.47 1906.13 500 1823.94C693.03 1656.13 700.72 1664.77 896.55 1500C950.72 1454.42 946.2 1449.27 1000 1403.23C1238.31 1199.27 1480.77 1185.64 1480.77 1000C1480.77 831.58 1234.23 856.23 1000 695.12C870.77 606.23 769.77 630.06 753.85 500" stroke="rgba(235, 251, 255, 1)" stroke-width="2"></path><path d="M0 704.08C49.61 704.08 139.96 836.79 183.54 1000C246.21 1234.75 269.72 1277.04 212.5 1500C177.95 1634.63 62.08 1715.19 0 1715.19C-44.17 1715.19 0 1607.6 0 1500C0 1250 0 1250 0 1000C0 852.04 -42.16 704.08 0 704.08" stroke="rgba(235, 251, 255, 1)" stroke-width="2"></path><path d="M2263.51 1000C2270.52 829.1 2434.21 687.5 2500 687.5C2552.46 687.5 2500 843.75 2500 1000C2500 1250 2500 1250 2500 1500C2500 1518.3 2507.08 1536.59 2500 1536.59C2490.42 1536.59 2476.6 1522.54 2466.67 1500C2358.36 1254.24 2253.86 1235.35 2263.51 1000" stroke="rgba(235, 251, 255, 1)" stroke-width="2"></path><path d="M946.15 500C946.15 434.64 943.96 404.76 1000 354.17C1220.88 154.76 1357.55 -40.14 1500 0C1616.32 32.78 1517.54 251.68 1517.54 500C1517.54 521.68 1520.79 538.29 1500 540C1262.02 559.63 1243.47 560.26 1000 542.68C966.54 540.26 946.15 528.89 946.15 500" stroke="rgba(114, 176, 240, 0.58)" stroke-width="2"></path><path d="M0 959.18C6.84 959.18 22.86 976.34 25.32 1000C50.98 1246.75 67.17 1259.89 56.25 1500C54.51 1538.37 16.43 1556.96 0 1556.96C-11.69 1556.96 0 1528.48 0 1500C0 1250 0 1250 0 1000C0 979.59 -5.82 959.18 0 959.18" stroke="rgba(235, 251, 255, 1)" stroke-width="2"></path><path d="M2432.43 1000C2432.43 951.29 2481.2 910.71 2500 910.71C2514.99 910.71 2500 955.36 2500 1000C2500 1078.13 2516.17 1156.25 2500 1156.25C2482.38 1156.25 2432.43 1074.06 2432.43 1000" stroke="rgba(235, 251, 255, 1)" stroke-width="2"></path><path d="M1125 2000C1125 1926.54 1334.87 1733.33 1500 1733.33C1617.61 1733.33 1690.48 1915.68 1690.48 2000C1690.48 2049.01 1595.24 2000 1500 2000C1312.5 2000 1125 2059.87 1125 2000" stroke="rgba(235, 251, 255, 1)" stroke-width="2"></path></g><defs><mask id="SvgjsMask1093"><rect width="2500" height="2000" fill="#ffffff"></rect></mask><linearGradient x1="50%" y1="100%" x2="50%" y2="0%" gradientUnits="userSpaceOnUse" id="SvgjsLinearGradient1094"><stop stop-color="rgba(189, 222, 255, 0.92)" offset="0.03"></stop><stop stop-color="rgba(241, 241, 241, 0.8)" offset="1"></stop></linearGradient></defs></svg>