<svg xmlns="http://www.w3.org/2000/svg" version="1.1" xmlns:xlink="http://www.w3.org/1999/xlink" xmlns:svgjs="http://svgjs.dev/svgjs" width="2500" height="2000" preserveAspectRatio="none" viewBox="0 0 2500 2000"><g mask="url(&quot;#SvgjsMask1043&quot;)" fill="none"><rect width="2500" height="2000" x="0" y="0" fill="url(&quot;#SvgjsLinearGradient1044&quot;)"></rect><path d="M316.18 0C419.78 26.43 405.3 127.55 500 127.55C608.81 127.55 602.82 30.71 723.21 0C852.82 -33.06 861.61 0 1000 0C1203.95 0 1324.37 -112.16 1407.89 0C1510.54 137.84 1340.24 264.22 1372.34 500C1386.29 602.45 1425.6 676.47 1500 676.47C1592.88 676.47 1698.23 615.59 1706.9 500C1723.59 277.35 1471.83 134.58 1550.72 0C1618.38 -115.42 1775.36 0 2000 0C2182.35 0 2198.33 -41.15 2364.71 0C2448.33 20.68 2477.84 41.78 2500 123.66C2545.49 291.78 2500 311.83 2500 500C2500 718.75 2584.14 786.06 2500 937.5C2445.25 1036.06 2257.19 898.84 2222.22 1000C2159.97 1180.09 2210.98 1283.33 2305.56 1500C2349.87 1601.51 2461.59 1537.59 2500 1636.36C2558.81 1787.59 2605.26 1923.44 2500 2000C2355.26 2105.26 2250 2000 2000 2000C1750 2000 1750 2000 1500 2000C1250 2000 1250 2000 1000 2000C750 2000 750 2000 500 2000C250 2000 125 2125 0 2000C-125 1875 0 1750 0 1500C0 1250 0 1250 0 1000C0 750 0 750 0 500C0 250 -96.85 153.15 0 0C61.24 -96.85 169.78 -37.35 316.18 0" stroke="rgba(188, 235, 247, 1)" stroke-width="2"></path><path d="M500 868.69C377.36 868.69 254.72 898.8 254.72 1000C254.72 1181.12 377.36 1433.33 500 1433.33C622.64 1433.33 745.28 1181.12 745.28 1000C745.28 898.8 622.64 868.69 500 868.69" stroke="rgba(235, 255, 253, 1)" stroke-width="2"></path><path d="M1500 1407.41C1474.64 1407.41 1458.33 1458.51 1458.33 1500C1458.33 1522.16 1477.34 1534.72 1500 1534.72C1531.07 1534.72 1565.79 1525.19 1565.79 1500C1565.79 1461.54 1528.37 1407.41 1500 1407.41" stroke="rgba(242, 247, 188, 1)" stroke-width="2"></path><path d="M132.35 0C325.29 98.44 310.59 255.1 500 255.1C717.63 255.1 720.02 115.51 946.43 0C970.02 -12.04 973.22 0 1000 0C1039.47 0 1071.71 -34.05 1078.95 0C1124.9 215.95 1076.36 251.97 1106.38 500C1136.88 751.97 1163.88 748.47 1200 1000C1235.69 1248.47 1158.96 1285.04 1250 1500C1308.96 1639.21 1364.07 1708.33 1500 1708.33C1686.44 1708.33 1719.8 1628.87 1894.74 1500C1969.8 1444.7 1953.31 1340 2000 1340C2042.98 1340 2010.79 1441.95 2074.07 1500C2260.79 1671.3 2346.45 1618.45 2500 1798.7C2559.42 1868.45 2571.76 1971.11 2500 2000C2321.76 2071.76 2250 2000 2000 2000C1750 2000 1750 2000 1500 2000C1250 2000 1250 2000 1000 2000C750 2000 750 2000 500 2000C250 2000 160.71 2089.29 0 2000C-89.29 1950.4 -87.77 1750.53 0 1722.22C162.23 1669.89 300.83 1901.41 500 1838.71C653.77 1790.3 607.29 1671.87 705.88 1500C847.85 1252.52 1033.75 1193.64 981.13 1000C930.81 814.85 740.57 742.42 500 742.42C259.43 742.42 239.06 855.11 18.87 1000C-10.94 1019.61 4.8 1071.43 0 1071.43C-4.64 1071.43 0 1035.72 0 1000C0 750 0 750 0 500C0 250 -52.32 197.68 0 0C13.85 -52.32 75.29 -29.11 132.35 0" stroke="rgba(235, 255, 253, 1)" stroke-width="2"></path><path d="M2000 411.11C1861.18 209.1 1731.88 132.94 1731.88 0C1731.88 -72.62 1865.94 0 2000 0C2108.82 0 2126.99 -46.79 2217.65 0C2376.99 82.24 2413.52 104.92 2500 258.06C2554.7 354.92 2500 379.03 2500 500C2500 640.63 2575.52 781.25 2500 781.25C2363.26 781.25 2278.89 650.59 2075.47 500C2028.89 465.52 2032.98 459.1 2000 411.11" stroke="rgba(242, 247, 188, 1)" stroke-width="2"></path><path d="M0 125C150 89.8 245.53 263.76 500 382.65C646.85 451.26 802.63 441.58 802.63 500C802.63 558.34 655.06 570.06 500 616.16C253.75 689.38 170.81 778.32 0 738.64C-79.19 720.24 0 619.32 0 500C0 312.5 -100 148.47 0 125" stroke="rgba(242, 247, 188, 1)" stroke-width="2"></path><path d="M2000 133.33C1959.56 133.33 1913.04 43.11 1913.04 0C1913.04 -23.55 1956.52 0 2000 0C2035.3 0 2070.59 -21.25 2070.59 0C2070.59 45.42 2038.33 133.33 2000 133.33" stroke="rgba(114, 176, 240, 0.58)" stroke-width="2"></path><path d="M2311.32 500C2311.32 443.07 2436.9 392.47 2500 392.47C2531.24 392.47 2500 446.24 2500 500C2500 562.5 2533.57 625 2500 625C2439.23 625 2311.32 559.33 2311.32 500" stroke="rgba(235, 255, 253, 1)" stroke-width="2"></path><path d="M950.98 1500C950.98 1453.57 976.95 1410.71 1000 1410.71C1022.3 1410.71 1041.67 1454 1041.67 1500C1041.67 1564.43 1022.48 1631.58 1000 1631.58C977.13 1631.58 950.98 1564 950.98 1500" stroke="rgba(235, 251, 255, 1)" stroke-width="2"></path><path d="M1225.81 2000C1225.81 1969.23 1359.58 1932.06 1500 1881.94C1746.68 1793.9 1756.73 1704.44 2000 1723.68C2256.73 1743.99 2266.44 1831.97 2500 1961.04C2516.44 1970.13 2518.07 1998.59 2500 2000C2268.07 2018.07 2250 2000 2000 2000C1750 2000 1750 2000 1500 2000C1362.9 2000 1225.81 2028.26 1225.81 2000" stroke="rgba(114, 176, 240, 0.58)" stroke-width="2"></path></g><defs><mask id="SvgjsMask1043"><rect width="2500" height="2000" fill="#ffffff"></rect></mask><linearGradient x1="50%" y1="100%" x2="50%" y2="0%" gradientUnits="userSpaceOnUse" id="SvgjsLinearGradient1044"><stop stop-color="rgba(189, 222, 255, 0.92)" offset="0.03"></stop><stop stop-color="rgba(241, 241, 241, 1)" offset="1"></stop></linearGradient></defs></svg>