<svg xmlns="http://www.w3.org/2000/svg" version="1.1" xmlns:xlink="http://www.w3.org/1999/xlink" xmlns:svgjs="http://svgjs.dev/svgjs" width="2500" height="2000" preserveAspectRatio="none" viewBox="0 0 2500 2000"><g mask="url(&quot;#SvgjsMask1128&quot;)" fill="none"><rect width="2500" height="2000" x="0" y="0" fill="rgba(231, 239, 247, 1)"></rect><path d="M2000 1825C1910.94 1825 1906 1956.34 1781.25 2000C1656 2043.84 1640.63 2000 1500 2000C1250 2000 1250 2000 1000 2000C750 2000 750 2000 500 2000C250 2000 125 2125 0 2000C-125 1875 0 1750 0 1500C0 1250 0 1250 0 1000C0 750 0 750 0 500C0 250 -125 125 0 0C125 -125 250 0 500 0C750 0 750 0 1000 0C1250 0 1250 0 1500 0C1750 0 1750 0 2000 0C2250 0 2375 -125 2500 0C2625 125 2500 250 2500 500C2500 750 2500 750 2500 1000C2500 1250 2500 1250 2500 1500C2500 1750 2613.78 1863.78 2500 2000C2404.96 2113.78 2253.22 2059.81 2082.35 2000C2003.22 1972.31 2061.49 1825 2000 1825" stroke="rgba(246, 188, 247, 1)" stroke-width="2"></path><path d="M1000 388.89C861.6 388.89 700 409.61 700 500C700 623.06 882.79 815.79 1000 815.79C1090.48 815.79 1115.38 644.57 1115.38 500C1115.38 431.12 1069.29 388.89 1000 388.89" stroke="rgba(246, 188, 247, 1)" stroke-width="2"></path><path d="M2000 20C1904.26 20 1812.5 273.26 1812.5 500C1812.5 635.71 1904.82 744.9 2000 744.9C2096.93 744.9 2196.72 636.7 2196.72 500C2196.72 274.25 2096.37 20 2000 20" stroke="rgba(188, 240, 247, 1)" stroke-width="2"></path><path d="M2500 803.28C2437.7 930.48 2332.75 870.16 2255.1 1000C2124.41 1218.52 2015.06 1346.95 2083.33 1500C2137.51 1621.46 2399.59 1428.53 2500 1549.02C2607.93 1678.53 2584.56 1859.07 2500 2000C2449.26 2084.56 2312.99 2081.49 2229.41 2000C2062.99 1837.74 2164.86 1527.71 2000 1512.5C1800.16 1494.06 1764.04 1747.34 1500 1932.69C1416.82 1991.09 1406.16 1986.46 1305.56 2000C1156.16 2020.11 1152.78 2000 1000 2000C750 2000 750 2000 500 2000C250 2000 125 2125 0 2000C-125 1875 0 1750 0 1500C0 1250 0 1250 0 1000C0 750 0 750 0 500C0 250 -125 125 0 0C125 -125 250 0 500 0C750 0 750 0 1000 0C1250 0 1250 0 1500 0C1750 0 1750 0 2000 0C2250 0 2375 -125 2500 0C2625 125 2500 250 2500 500C2500 651.64 2560.15 680.48 2500 803.28" stroke="rgba(255, 0, 0, 0.15)" stroke-width="2"></path><path d="M425 0C499.58 137.97 251.15 258.43 270.27 500C288.65 732.11 377.78 728.91 500 947.37C517.64 978.91 550 973.35 550 1000C550 1027.44 529.31 1032.47 500 1055.56C254.31 1249.14 147.8 1449.75 0 1433.33C-102.2 1421.97 0 1216.66 0 1000C0 750 0 750 0 500C0 250 -114.86 135.14 0 0C97.64 -114.86 364.44 -112.03 425 0" stroke="rgba(246, 188, 247, 1)" stroke-width="2"></path><path d="M1000 157.41C813.19 37.78 575 40.62 575 0C575 -38.09 787.5 0 1000 0C1250 0 1250 0 1500 0C1603.66 0 1690.34 -72.45 1707.32 0C1748.93 177.55 1676.77 253.67 1617.19 500C1573.11 682.24 1564.56 857.14 1500 857.14C1433.85 857.14 1465.31 653.29 1355.77 500C1215.31 303.43 1203.58 287.78 1000 157.41" stroke="rgba(188, 240, 247, 1)" stroke-width="2"></path><path d="M2401.64 500C2309.68 264.16 2232.77 172.35 2266.67 0C2281.95 -77.65 2462.88 -79.54 2500 0C2579.54 170.46 2500 250 2500 500C2500 549.18 2520.37 598.36 2500 598.36C2471.19 598.36 2426.34 563.34 2401.64 500" stroke="rgba(188, 247, 198, 1)" stroke-width="2"></path><path d="M900 1500C900 1452.04 943.3 1445.44 1000 1409.09C1243.3 1253.13 1294.6 1089.71 1500 1115.38C1658.24 1135.16 1727.27 1326.89 1727.27 1500C1727.27 1615.36 1634.61 1671.75 1500 1692.31C1270.97 1727.3 1231.64 1685.36 1000 1611.11C931.64 1589.2 900 1553.05 900 1500" stroke="rgba(188, 240, 247, 1)" stroke-width="2"></path><path d="M0 1571.43C149.71 1562.62 250.66 1770.23 500 1970.59C517.32 1984.51 533.33 1991.6 533.33 2000C533.33 2006.3 516.66 2000 500 2000C250 2000 134.62 2115.38 0 2000C-115.38 1901.1 -100.29 1577.33 0 1571.43" stroke="rgba(246, 188, 247, 1)" stroke-width="2"></path><path d="M2376.47 2000C2376.47 1932.03 2466.75 1794.12 2500 1794.12C2528.51 1794.12 2538.6 1935.66 2500 2000C2476.84 2038.6 2376.47 2034.97 2376.47 2000" stroke="rgba(246, 188, 247, 1)" stroke-width="2"></path></g><defs><mask id="SvgjsMask1128"><rect width="2500" height="2000" fill="#ffffff"></rect></mask></defs></svg>