<svg xmlns="http://www.w3.org/2000/svg" version="1.1" xmlns:xlink="http://www.w3.org/1999/xlink" xmlns:svgjs="http://svgjs.dev/svgjs" width="1440" height="560" preserveAspectRatio="none" viewBox="0 0 1440 560"><g mask="url(&quot;#SvgjsMask1171&quot;)" fill="none"><rect width="1440" height="560" x="0" y="0" fill="url(&quot;#SvgjsLinearGradient1172&quot;)"></rect><path d="M1449.27 224.51C1285.59 226.24 1140.94 405.04 819.51 403.71 498.08 402.38 380.33-13.09 189.75-33.86" stroke="rgba(51,121,194,0.58)" stroke-width="2"></path><path d="M1589.21 130.45C1426.54 135.49 1217.41 383.03 988.96 382.45 760.52 381.87 806.35 21.61 688.84-25.54" stroke="rgba(51,121,194,0.58)" stroke-width="2"></path><path d="M1461.36 227.28C1291.77 228.47 1136.94 390.52 802.69 389.68 468.44 388.84 334.96 13.16 144.02-1.19" stroke="rgba(51,121,194,0.58)" stroke-width="2"></path><path d="M1621.02 27.05C1473.49 28.19 1265.87 172.98 1049.13 172.65 832.4 172.32 859.54-77.92 763.19-98.24" stroke="rgba(51,121,194,0.58)" stroke-width="2"></path><path d="M1653.71 363.02C1498.58 362.22 1370.74 235.7 1047.91 228.62 725.08 221.54 612.36-75.5 442.11-84.58" stroke="rgba(51,121,194,0.58)" stroke-width="2"></path></g><defs><mask id="SvgjsMask1171"><rect width="1440" height="560" fill="#ffffff"></rect></mask><linearGradient x1="15.28%" y1="-39.29%" x2="84.72%" y2="139.29%" gradientUnits="userSpaceOnUse" id="SvgjsLinearGradient1172"><stop stop-color="#0e2a47" offset="0"></stop><stop stop-color="rgba(0, 0, 0, 1)" offset="1"></stop></linearGradient></defs></svg>