<svg xmlns="http://www.w3.org/2000/svg" version="1.1" xmlns:xlink="http://www.w3.org/1999/xlink" xmlns:svgjs="http://svgjs.dev/svgjs" width="1440" height="560" preserveAspectRatio="none" viewBox="0 0 1440 560"><g mask="url(&quot;#SvgjsMask1412&quot;)" fill="none"><rect width="1440" height="560" x="0" y="0" fill="rgba(47, 51, 73, 1)"></rect><path d="M1449.27 224.51C1285.59 226.24 1140.94 405.04 819.51 403.71 498.08 402.38 380.33-13.09 189.75-33.86" stroke="rgba(41, 165, 225, 1)" stroke-width="2"></path><path d="M1589.21 130.45C1426.54 135.49 1217.41 383.03 988.96 382.45 760.52 381.87 806.35 21.61 688.84-25.54" stroke="rgba(41, 165, 225, 1)" stroke-width="2"></path><path d="M1461.36 227.28C1291.77 228.47 1136.94 390.52 802.69 389.68 468.44 388.84 334.96 13.16 144.02-1.19" stroke="rgba(41, 165, 225, 1)" stroke-width="2"></path><path d="M1621.02 27.05C1473.49 28.19 1265.87 172.98 1049.13 172.65 832.4 172.32 859.54-77.92 763.19-98.24" stroke="rgba(41, 165, 225, 1)" stroke-width="2"></path><path d="M1653.71 363.02C1498.58 362.22 1370.74 235.7 1047.91 228.62 725.08 221.54 612.36-75.5 442.11-84.58" stroke="rgba(41, 165, 225, 1)" stroke-width="2"></path></g><defs><mask id="SvgjsMask1412"><rect width="1440" height="560" fill="#ffffff"></rect></mask></defs></svg>