<svg width="506" height="414" viewBox="0 0 506 414" fill="none" xmlns="http://www.w3.org/2000/svg">
<path d="M273.93 402.264L277.056 405.409C278.738 403.717 280.969 402.785 283.352 402.785C285.734 402.785 287.966 403.717 289.647 405.409L292.774 402.264C290.251 399.726 286.909 398.338 283.352 398.338C279.794 398.338 276.442 399.726 273.93 402.264Z" fill="#049478"/>
<path d="M268.731 397.037L271.857 400.182C274.93 397.091 279.005 395.399 283.349 395.399C287.694 395.399 291.769 397.102 294.841 400.182L297.967 397.037C294.065 393.111 288.869 390.941 283.349 390.941C277.83 390.941 272.633 393.111 268.731 397.037Z" fill="#049478"/>
<path d="M283.351 383.555C275.869 383.555 268.83 386.484 263.537 391.809L266.663 394.954C271.115 390.475 277.044 388.002 283.351 388.002C289.657 388.002 295.576 390.475 300.039 394.954L303.165 391.809C297.883 386.484 290.843 383.555 283.351 383.555Z" fill="#049478"/>
<path d="M283.353 405.41C281.262 405.41 279.569 407.112 279.569 409.217C279.569 411.321 281.262 413.024 283.353 413.024C285.444 413.024 287.137 411.321 287.137 409.217C287.137 407.112 285.444 405.41 283.353 405.41Z" fill="#049478"/>
<path d="M295.535 179.036L297.89 181.404C299.156 180.13 300.836 179.428 302.631 179.428C304.425 179.428 306.105 180.13 307.372 181.404L309.726 179.036C307.826 177.125 305.31 176.079 302.631 176.079C299.952 176.071 297.435 177.125 295.535 179.036Z" stroke="#049478" stroke-width="0.91562" stroke-miterlimit="10"/>
<path d="M291.629 175.099L293.983 177.467C296.297 175.14 299.365 173.866 302.637 173.866C305.908 173.866 308.977 175.148 311.291 177.467L313.645 175.099C310.706 172.142 306.793 170.509 302.637 170.509C298.472 170.509 294.567 172.142 291.629 175.099Z" stroke="#049478" stroke-width="0.91562" stroke-miterlimit="10"/>
<path d="M302.639 164.946C297.005 164.946 291.704 167.152 287.718 171.162L290.072 173.53C293.425 170.157 297.89 168.295 302.639 168.295C307.388 168.295 311.845 170.157 315.206 173.53L317.56 171.162C313.574 167.152 308.273 164.946 302.639 164.946Z" stroke="#049478" stroke-width="0.91562" stroke-miterlimit="10"/>
<path d="M302.645 187.138C304.219 187.138 305.494 185.855 305.494 184.272C305.494 182.688 304.219 181.405 302.645 181.405C301.071 181.405 299.795 182.688 299.795 184.272C299.795 185.855 301.071 187.138 302.645 187.138Z" stroke="#049478" stroke-width="0.91562" stroke-miterlimit="10"/>
<path d="M411.695 239.194V248.955" stroke="#049478" stroke-width="0.91192" stroke-miterlimit="10" stroke-linecap="round" stroke-linejoin="round"/>
<path d="M406.857 244.076H416.548" stroke="#049478" stroke-width="0.91192" stroke-miterlimit="10" stroke-linecap="round" stroke-linejoin="round"/>
<path d="M62.4014 333.035V342.797" stroke="#DB7294" stroke-width="0.91192" stroke-miterlimit="10" stroke-linecap="round" stroke-linejoin="round"/>
<path d="M57.5532 337.917H67.2448" stroke="#DB7294" stroke-width="0.91192" stroke-miterlimit="10" stroke-linecap="round" stroke-linejoin="round"/>
<path d="M144.438 396.993V406.755" stroke="#DB7294" stroke-width="0.91192" stroke-miterlimit="10" stroke-linecap="round" stroke-linejoin="round"/>
<path d="M139.59 401.875H149.292" stroke="#DB7294" stroke-width="0.91192" stroke-miterlimit="10" stroke-linecap="round" stroke-linejoin="round"/>
<path d="M270.865 102.535V112.285" stroke="#DB7294" stroke-width="0.91192" stroke-miterlimit="10" stroke-linecap="round" stroke-linejoin="round"/>
<path d="M266.027 107.417H275.718" stroke="#DB7294" stroke-width="0.91192" stroke-miterlimit="10" stroke-linecap="round" stroke-linejoin="round"/>
<path d="M71.4727 64.6401V74.3906" stroke="#049478" stroke-width="0.91192" stroke-miterlimit="10" stroke-linecap="round" stroke-linejoin="round"/>
<path d="M66.6245 69.5103H76.316" stroke="#049478" stroke-width="0.91192" stroke-miterlimit="10" stroke-linecap="round" stroke-linejoin="round"/>
<path d="M121.379 230.841V240.602" stroke="#EEDA36" stroke-width="0.91192" stroke-miterlimit="10" stroke-linecap="round" stroke-linejoin="round"/>
<path d="M116.531 235.723H126.233" stroke="#EEDA36" stroke-width="0.91192" stroke-miterlimit="10" stroke-linecap="round" stroke-linejoin="round"/>
<path d="M316.515 355.332V365.082" stroke="#EEDA36" stroke-width="0.91192" stroke-miterlimit="10" stroke-linecap="round" stroke-linejoin="round"/>
<path d="M311.667 360.202H321.358" stroke="#EEDA36" stroke-width="0.91192" stroke-miterlimit="10" stroke-linecap="round" stroke-linejoin="round"/>
<path d="M226.925 109.052C228.765 109.052 230.256 107.552 230.256 105.701C230.256 103.85 228.765 102.35 226.925 102.35C225.085 102.35 223.594 103.85 223.594 105.701C223.594 107.552 225.085 109.052 226.925 109.052Z" stroke="#EEDA36" stroke-width="0.91192" stroke-miterlimit="10" stroke-linecap="round" stroke-linejoin="round"/>
<path d="M74.5509 389.778C77.3933 380.348 72.0972 370.392 62.7219 367.541C53.3466 364.689 43.4423 370.022 40.5999 379.452C37.7576 388.881 43.0535 398.838 52.4289 401.689C61.8042 404.541 71.7086 399.208 74.5509 389.778Z" fill="#E4B0C8"/>
<path d="M68.2282 377.078H47.4329V392.794H68.2282V377.078Z" stroke="white" stroke-width="1.21589" stroke-miterlimit="10"/>
<path d="M47.4329 377.078L57.8251 386.742L68.2282 377.078" stroke="white" stroke-width="1.21589" stroke-miterlimit="10"/>
<path d="M253.735 88.4226C259.963 88.4226 265.011 83.3434 265.011 77.0778C265.011 70.8122 259.963 65.7329 253.735 65.7329C247.507 65.7329 242.459 70.8122 242.459 77.0778C242.459 83.3434 247.507 88.4226 253.735 88.4226Z" fill="#E4B0C8"/>
<path d="M260.503 72.2837H247.287V82.2728H260.503V72.2837Z" stroke="white" stroke-width="1.21589" stroke-miterlimit="10"/>
<path d="M247.287 72.2837L253.895 78.4333L260.503 72.2837" stroke="white" stroke-width="1.21589" stroke-miterlimit="10"/>
<path d="M144.441 195.746L147.481 201.05L150.532 206.364H144.441H138.35L141.39 201.05L144.441 195.746Z" fill="#D96980"/>
<path d="M407.289 351.081L414.232 357.22L421.185 363.359L412.431 366.341L403.667 369.324L405.478 360.203L407.289 351.081Z" stroke="#D96980" stroke-width="1.21589" stroke-miterlimit="10"/>
<path d="M19.3387 64.8687L16.9131 73.8491L14.4983 82.8295L7.97617 76.2244L1.46484 69.63L10.4018 67.2439L19.3387 64.8687Z" stroke="#D96980" stroke-width="1.21589" stroke-miterlimit="10"/>
<path d="M213.651 378.544C213.651 381.31 211.419 383.555 208.67 383.555C205.921 383.555 203.69 381.31 203.69 378.544C203.69 375.778 205.921 373.533 208.67 373.533C211.419 373.522 213.651 375.768 213.651 378.544Z" stroke="#D96980" stroke-width="1.21589" stroke-miterlimit="10"/>
<path d="M392.358 53.013C392.358 56.9175 389.21 60.0845 385.33 60.0845C381.449 60.0845 378.301 56.9175 378.301 53.013C378.301 49.1084 381.449 45.9414 385.33 45.9414C389.21 45.9414 392.358 49.0976 392.358 53.013Z" stroke="#D96980" stroke-width="1.21589" stroke-miterlimit="10"/>
<path d="M253.078 243.511C253.078 245.994 251.073 248.001 248.615 248.001C246.147 248.001 244.152 245.984 244.152 243.511C244.152 241.027 246.157 239.021 248.615 239.021C251.073 239.021 253.078 241.027 253.078 243.511Z" fill="#D96980"/>
<path d="M396.835 401.265C396.835 403.749 394.83 405.755 392.372 405.755C389.903 405.755 387.909 403.738 387.909 401.265C387.909 398.781 389.914 396.775 392.372 396.775C394.83 396.764 396.835 398.781 396.835 401.265Z" fill="#D96980"/>
<path d="M262.555 334.909C262.555 336.395 261.358 337.588 259.892 337.588C258.415 337.588 257.229 336.384 257.229 334.909C257.229 333.434 258.426 332.23 259.892 332.23C261.369 332.23 262.555 333.434 262.555 334.909Z" fill="#E4B0C8"/>
<path d="M481.115 267.047C484.943 267.047 488.047 263.925 488.047 260.073C488.047 256.221 484.943 253.099 481.115 253.099C477.287 253.099 474.183 256.221 474.183 260.073C474.183 263.925 477.287 267.047 481.115 267.047Z" stroke="#049478" stroke-width="1.21589" stroke-miterlimit="10"/>
<path d="M23.049 315.485C26.4962 315.485 29.2908 312.673 29.2908 309.205C29.2908 305.737 26.4962 302.925 23.049 302.925C19.6017 302.925 16.8071 305.737 16.8071 309.205C16.8071 312.673 19.6017 315.485 23.049 315.485Z" stroke="#049478" stroke-width="1.21589" stroke-miterlimit="10"/>
<path d="M366.971 385.517C366.971 388.511 364.556 390.94 361.581 390.94C358.606 390.94 356.191 388.511 356.191 385.517C356.191 382.524 358.606 380.094 361.581 380.094C364.556 380.083 366.971 382.524 366.971 385.517Z" stroke="#049478" stroke-width="1.21589" stroke-miterlimit="10"/>
<path d="M30.7235 126.255C30.7235 126.255 29.5376 134.498 23.975 135.355C18.4123 136.212 13.3132 135.843 16.4287 150.019" stroke="#EEDA36" stroke-width="1.21589" stroke-miterlimit="10"/>
<path d="M303.16 55.7355C303.16 55.7355 312.107 54.857 314.447 60.5403C316.786 66.2235 317.724 71.7224 331.771 64.7377" stroke="#EEDA36" stroke-width="1.21589" stroke-miterlimit="10"/>
<path d="M346.341 184.14C346.341 186.386 344.53 188.208 342.298 188.208C340.066 188.208 338.255 186.386 338.255 184.14C338.255 181.895 340.066 180.073 342.298 180.073C344.54 180.084 346.341 181.906 346.341 184.14Z" fill="#EEDA36"/>
<path d="M131.916 59.0018C134.14 57.2839 134.559 54.0771 132.851 51.8393C131.144 49.6014 127.956 49.1799 125.732 50.8978C123.508 52.6157 123.089 55.8225 124.796 58.0603C126.504 60.2982 129.691 60.7197 131.916 59.0018Z" stroke="#D7D4FC" stroke-width="1.21589" stroke-miterlimit="10"/>
<path d="M92.7408 305.701C42.0731 305.701 1 266.482 1 218.109C1 183.912 21.515 154.303 51.4412 139.877" stroke="#C1C0FF" stroke-width="1.21589" stroke-miterlimit="10" stroke-dasharray="4.86 4.86"/>
<path d="M290.879 325.994C294.598 360.246 268.995 391.157 233.678 395.039C198.362 398.922 166.711 374.313 162.991 340.072" stroke="#C1C0FF" stroke-width="1.21589" stroke-miterlimit="10" stroke-dasharray="4.86 4.86"/>
<path d="M307.92 204.316C337.53 204.316 361.534 180.699 361.534 151.567C361.534 122.434 337.53 98.8174 307.92 98.8174C278.31 98.8174 254.307 122.434 254.307 151.567C254.307 180.699 278.31 204.316 307.92 204.316Z" stroke="#C1C0FF" stroke-width="1.04276" stroke-miterlimit="10" stroke-dasharray="4.17 4.17"/>
<path d="M173.311 239.651C206.253 239.651 232.958 213.381 232.958 180.975C232.958 148.569 206.253 122.298 173.311 122.298C140.368 122.298 113.663 148.569 113.663 180.975C113.663 213.381 140.368 239.651 173.311 239.651Z" stroke="#C1C0FF" stroke-width="1.21589" stroke-miterlimit="10" stroke-dasharray="4.86 4.86"/>
<path d="M446.517 320.995C478.816 320.995 505 296.648 505 266.614C505 236.579 478.816 212.232 446.517 212.232C414.217 212.232 388.033 236.579 388.033 266.614C388.033 296.648 414.217 320.995 446.517 320.995Z" stroke="#C1C0FF" stroke-width="1.21589" stroke-miterlimit="10" stroke-dasharray="4.86 4.86"/>
<path d="M231.605 362.911H116.611C111.987 362.911 108.233 359.143 108.233 354.482V280.021C108.233 275.369 111.978 271.592 116.611 271.592H231.605C236.229 271.592 239.983 275.36 239.983 280.021V354.482C239.983 359.134 236.229 362.911 231.605 362.911Z" fill="#D0EEDE"/>
<path d="M222.886 346.516H125.328C120.705 346.516 116.95 342.748 116.95 338.087V285.334C116.95 280.682 120.696 276.905 125.328 276.905H222.877C227.501 276.905 231.255 280.673 231.255 285.334V338.087C231.255 342.739 227.51 346.516 222.886 346.516Z" fill="white"/>
<path d="M151.117 308.717C151.117 308.717 144.916 328.378 157.586 332.723C170.265 337.069 171.68 333.472 174.503 340.26C177.316 347.048 188.606 344.118 189.681 333.67C190.757 323.222 183.096 324.033 179.108 323.492C175.121 322.952 172.46 315.578 172.496 311.737C172.541 307.915 152.551 300.712 151.117 308.717Z" fill="black"/>
<path d="M165.17 327.158C165.17 327.158 178.682 327.988 192.624 341.167C206.566 354.346 206.199 388.359 206.199 388.359L164.579 387.286L165.17 327.158Z" fill="white" stroke="black" stroke-width="1.0106" stroke-miterlimit="10"/>
<path d="M179.453 338.417C188.781 345.431 207.758 387.124 201.737 387.268C195.707 387.412 123.775 386.835 121.517 384.581C119.259 382.337 129.052 362.459 129.052 362.459C129.052 362.459 144.186 331.17 167.617 330.98C175.421 330.917 169.49 330.926 179.453 338.417Z" fill="white"/>
<path d="M141.23 364.063C141.23 364.063 134.635 382.651 136.158 384.752C137.682 386.852 186.102 387.402 190.161 387.267C194.22 387.131 187.348 357.825 183.907 349.396" stroke="#1C191B" stroke-width="1.0106" stroke-miterlimit="10"/>
<path d="M166.572 373.793C166.572 373.793 172.002 370.133 186.043 373.613C186.043 373.613 188.767 374.848 186.679 375.407C184.591 375.966 179.376 375.118 179.376 375.118C179.376 375.118 187.458 375.858 187.647 377.273C187.826 378.688 180.022 377.309 180.022 377.309C180.022 377.309 188.435 378.643 188.328 380.076C188.229 381.51 183.552 379.914 179.009 380.239C174.466 380.563 166.187 383.917 164.906 382.988C163.624 382.069 160.829 375.948 166.572 373.793Z" fill="white" stroke="#1C191B" stroke-width="1.0106" stroke-miterlimit="10"/>
<path d="M162.018 327.169C153.631 327.242 144.438 329.865 135.531 337.176C123.373 347.146 102.755 378.49 111.76 394.671C120.765 410.853 141.499 404.542 148.676 401.288C155.853 398.034 169.903 387.198 171.435 382.763C173.227 377.57 172.447 373.91 165.969 372.279C159.5 370.647 135.729 373.198 131.069 376.245" fill="white"/>
<path d="M162.018 327.169C153.631 327.242 144.438 329.865 135.531 337.176C123.373 347.146 102.755 378.49 111.76 394.671C120.765 410.853 141.499 404.542 148.676 401.288C155.853 398.034 169.903 387.198 171.435 382.763C173.227 377.57 172.447 373.91 165.969 372.279C159.5 370.647 135.729 373.198 131.069 376.245" stroke="black" stroke-width="1.0106" stroke-miterlimit="10"/>
<path d="M171.439 382.763C173.196 377.687 172.47 374.082 166.395 372.405C166.072 374.036 165.992 375.984 166.225 378.057C166.619 381.519 167.793 384.448 169.235 386.008C170.346 384.746 171.135 383.628 171.439 382.763Z" fill="#FFBA7B" stroke="black" stroke-width="1.0106" stroke-miterlimit="10"/>
<path d="M151.949 352.318C151.949 352.318 144.861 347.098 147.594 344.692C150.327 342.285 152.675 347.252 152.675 347.252C152.675 347.252 154.323 342.898 156.662 344.349C159.009 345.8 151.949 352.318 151.949 352.318Z" fill="#FFBA7B" stroke="#1C191B" stroke-width="1.0106" stroke-miterlimit="10"/>
<path d="M169.632 330.044C169.632 332.505 166.227 334.507 162.025 334.507C157.822 334.507 154.417 332.514 154.417 330.044C154.417 327.583 157.822 325.582 162.025 325.582C166.227 325.591 169.632 327.583 169.632 330.044Z" fill="#FFBA7B" stroke="#1C191B" stroke-width="1.0106" stroke-miterlimit="10"/>
<path d="M147.861 308.716C147.861 311.826 150.388 314.35 153.515 314.35C156.642 314.35 159.169 311.826 159.169 308.716C159.169 305.606 156.642 303.082 153.515 303.082C150.388 303.082 147.861 305.606 147.861 308.716Z" fill="white" stroke="black" stroke-width="1.0106" stroke-miterlimit="10"/>
<path d="M171.384 292.239H164.699C160.255 292.239 156.617 296.404 156.617 301.497V311.927C156.617 312.224 156.635 312.513 156.653 312.801C156.581 313.108 156.537 313.423 156.537 313.757V320.103V320.455V326.801C156.537 329.1 158.409 330.993 160.703 330.993H163.355C165.64 330.993 167.522 329.109 167.522 326.801V321.185H171.384C175.828 321.185 179.466 317.02 179.466 311.927V301.497C179.466 296.404 175.828 292.239 171.384 292.239Z" fill="white" stroke="black" stroke-width="1.0106" stroke-miterlimit="10"/>
<path d="M156.053 306.183C156.053 306.183 162.612 303.992 164.592 299.737C166.581 295.483 166.088 294.563 166.088 294.563C166.088 294.563 169.78 299.656 175.622 300.9C180.442 301.937 180.245 301.216 180.72 300.089C181.159 299.052 181.455 291.868 174.126 287.45C166.805 283.033 158.938 283.466 153.517 288.974C148.087 294.482 148.75 303.154 150.578 305.327C152.397 307.499 154.807 308.707 156.053 306.183Z" fill="black"/>
<path d="M159.883 280.688C160.714 277.151 158.538 273.608 155.022 272.774C151.506 271.94 147.981 274.131 147.15 277.668C146.319 281.205 148.495 284.748 152.011 285.582C155.527 286.416 159.051 284.225 159.883 280.688Z" fill="black"/>
<path d="M148.194 308.715C148.194 311.645 150.578 314.025 153.517 314.025C156.456 314.025 158.839 311.645 158.839 308.715C158.839 305.786 156.456 303.406 153.517 303.406C150.578 303.406 148.194 305.786 148.194 308.715Z" fill="white"/>
<path d="M156.392 309.418C156.392 309.418 156.625 305.812 152.943 306.209" stroke="#020202" stroke-width="1.0106" stroke-miterlimit="10"/>
<path d="M167.594 306.417C168.425 306.417 169.099 305.739 169.099 304.903C169.099 304.066 168.425 303.388 167.594 303.388C166.763 303.388 166.089 304.066 166.089 304.903C166.089 305.739 166.763 306.417 167.594 306.417Z" fill="black"/>
<path d="M175.959 304.677C175.959 305.389 176.532 305.975 177.249 305.975C177.957 305.975 178.54 305.398 178.54 304.677C178.54 303.964 177.966 303.378 177.249 303.378C176.532 303.387 175.959 303.964 175.959 304.677Z" fill="black"/>
<path d="M174.509 310.878C174.509 310.878 173.747 313.095 172.152 313.249C170.548 313.402 169.294 311.617 169.213 310.22" stroke="#0C0C0C" stroke-width="1.0106" stroke-miterlimit="10"/>
<path d="M160.838 310.473C160.838 312.555 162.514 314.241 164.584 314.241C166.654 314.241 168.329 312.555 168.329 310.473C168.329 308.39 166.654 306.705 164.584 306.705C162.514 306.705 160.838 308.39 160.838 310.473Z" fill="#E4B0C8"/>
<path d="M178.459 307.922C178.683 307.922 178.907 307.949 179.122 308.003V311.916C179.122 312.502 179.104 313.061 178.978 313.611C178.826 313.638 178.62 313.656 178.459 313.656C176.882 313.656 175.609 312.376 175.609 310.789C175.6 309.202 176.882 307.922 178.459 307.922Z" fill="#E4B0C8"/>
<path d="M172.811 303.387L172.507 308.544L174.953 307.047L172.811 303.387Z" fill="#DB7294"/>
<path d="M220.872 292.238H193.929C191.25 292.238 189.082 290.057 189.082 287.361C189.082 284.666 191.25 282.484 193.929 282.484H220.872C223.551 282.484 225.72 284.666 225.72 287.361C225.72 290.057 223.551 292.238 220.872 292.238Z" stroke="black" stroke-width="1.0106" stroke-miterlimit="10"/>
<path d="M222.886 346.516H125.328C120.704 346.516 116.95 342.748 116.95 338.087V285.334C116.95 280.682 120.696 276.905 125.328 276.905H222.877C227.5 276.905 231.255 280.673 231.255 285.334V338.087C231.255 342.739 227.509 346.516 222.886 346.516Z" stroke="black" stroke-width="1.0106" stroke-miterlimit="10"/>
<path d="M177.327 354.466C177.309 355.728 176.538 356.9 175.347 357.333C174.128 357.774 172.748 357.396 171.933 356.386C171.144 355.403 171.055 353.988 171.691 352.906C172.327 351.834 173.608 351.239 174.836 351.473C176.278 351.725 177.309 352.997 177.327 354.466C177.336 355.187 178.456 355.196 178.447 354.466C178.42 352.717 177.354 351.167 175.732 350.545C174.119 349.932 172.202 350.445 171.108 351.789C170.006 353.141 169.827 355.088 170.723 356.602C171.619 358.117 173.375 358.874 175.078 358.568C177.022 358.216 178.411 356.431 178.438 354.466C178.456 353.736 177.336 353.736 177.327 354.466Z" fill="black"/>
<path d="M164.365 193.013H62.0695C57.9561 193.013 54.6199 189.656 54.6199 185.518V119.283C54.6199 115.145 57.9561 111.788 62.0695 111.788H164.365C168.478 111.788 171.815 115.145 171.815 119.283V185.518C171.815 189.656 168.478 193.013 164.365 193.013Z" fill="#D0EEDE"/>
<path d="M115.987 185.499C115.968 186.576 115.314 187.587 114.29 187.959C113.238 188.341 112.044 188.016 111.343 187.139C110.67 186.3 110.594 185.079 111.144 184.154C111.693 183.239 112.783 182.724 113.835 182.915C115.077 183.144 115.968 184.231 115.987 185.499C115.996 186.262 117.181 186.271 117.172 185.499C117.153 183.897 116.176 182.486 114.688 181.923C113.229 181.36 111.475 181.837 110.48 183.058C109.476 184.297 109.305 186.071 110.12 187.454C110.945 188.836 112.537 189.523 114.101 189.246C115.873 188.922 117.134 187.292 117.162 185.508C117.181 184.727 115.996 184.727 115.987 185.499Z" fill="black"/>
<path d="M156.604 178.425H69.8242C65.7108 178.425 62.3745 175.068 62.3745 170.93V124.005C62.3745 119.866 65.7108 116.51 69.8242 116.51H156.604C160.718 116.51 164.054 119.866 164.054 124.005V170.93C164.063 175.068 160.727 178.425 156.604 178.425Z" fill="white"/>
<path d="M98.7808 161.993C79.7396 161.993 64.3 181.531 64.3 205.628H133.262C133.262 181.531 117.822 161.993 98.7808 161.993Z" fill="white" stroke="black" stroke-width="1.069" stroke-miterlimit="10"/>
<path d="M88.0062 172.499C88.0062 173.863 86.9067 174.979 85.5419 174.979C84.1771 174.979 83.0776 173.872 83.0776 172.499C83.0776 171.136 84.1771 170.02 85.5419 170.02C86.9067 170.02 88.0062 171.136 88.0062 172.499Z" fill="#FFBA7B"/>
<path d="M97.7833 184.504C99.2961 184.504 100.522 183.27 100.522 181.748C100.522 180.226 99.2961 178.993 97.7833 178.993C96.2705 178.993 95.0442 180.226 95.0442 181.748C95.0442 183.27 96.2705 184.504 97.7833 184.504Z" fill="#FFBA7B"/>
<path d="M110.747 172.499C110.747 173.863 109.648 174.979 108.283 174.979C106.928 174.979 105.819 173.872 105.819 172.499C105.819 171.136 106.918 170.02 108.283 170.02C109.648 170.03 110.747 171.136 110.747 172.499Z" fill="#FFBA7B"/>
<path d="M120.271 181.033C121.444 181.033 122.394 180.076 122.394 178.897C122.394 177.717 121.444 176.761 120.271 176.761C119.099 176.761 118.148 177.717 118.148 178.897C118.148 180.076 119.099 181.033 120.271 181.033Z" fill="#FFBA7B"/>
<path d="M79.515 183.198C79.515 184.619 78.3681 185.783 76.9465 185.783C75.5342 185.783 74.3779 184.629 74.3779 183.198C74.3779 181.768 75.5248 180.614 76.9465 180.614C78.3681 180.624 79.515 181.778 79.515 183.198Z" fill="#FFBA7B"/>
<path d="M87.9403 193.421C89.4531 193.421 90.6794 192.187 90.6794 190.665C90.6794 189.143 89.4531 187.91 87.9403 187.91C86.4275 187.91 85.2012 189.143 85.2012 190.665C85.2012 192.187 86.4275 193.421 87.9403 193.421Z" fill="#FFBA7B"/>
<path d="M113.276 192.449C114.522 192.449 115.532 191.433 115.532 190.179C115.532 188.926 114.522 187.91 113.276 187.91C112.03 187.91 111.021 188.926 111.021 190.179C111.021 191.433 112.03 192.449 113.276 192.449Z" fill="#FFBA7B"/>
<path d="M126.773 194.65C126.773 195.871 125.796 196.853 124.583 196.853C123.37 196.853 122.394 195.871 122.394 194.65C122.394 193.429 123.37 192.447 124.583 192.447C125.787 192.447 126.773 193.439 126.773 194.65Z" fill="#FFBA7B"/>
<path d="M76.5771 195.758C76.5771 197.045 75.5345 198.094 74.255 198.094C72.9754 198.094 71.9329 197.045 71.9329 195.758C71.9329 194.47 72.9754 193.421 74.255 193.421C75.5345 193.412 76.5771 194.461 76.5771 195.758Z" fill="#FFBA7B"/>
<path d="M103.425 198.094C103.425 199.381 102.382 200.43 101.103 200.43C99.8233 200.43 98.7808 199.381 98.7808 198.094C98.7808 196.806 99.8233 195.757 101.103 195.757C102.382 195.757 103.425 196.806 103.425 198.094Z" fill="#FFBA7B"/>
<path d="M135.932 182.982L136.614 180.655C136.614 180.655 136.681 180.035 135.799 179.692C134.908 179.349 121.345 174.095 121.345 174.095C121.345 174.095 120.189 173.408 119.867 174.247C119.545 175.086 117.298 178.796 117.298 178.796C117.298 178.796 116.654 179.74 117.441 180.169C118.227 180.607 130.52 185.261 130.52 185.261L133.657 186.567C133.657 186.567 134.652 186.93 134.814 186.443C134.965 185.976 135.932 182.982 135.932 182.982Z" fill="#049478"/>
<path d="M139.714 166.638C139.714 166.638 140.937 160.287 139.932 159.095C138.928 157.903 137.97 159.181 137.478 160.783C136.975 162.385 136.189 165.427 136.189 165.427L133.023 159.028C133.023 159.028 140.056 153.869 140.321 152.925C140.586 151.981 140.643 151.352 140.16 151.342C139.676 151.333 138.169 151.743 138.169 151.743C138.169 151.743 140.548 149.435 139.809 148.615C139.07 147.795 136.501 149.674 136.501 149.674C136.501 149.674 137.421 146.174 137.004 145.497C136.577 144.82 133.696 148.806 132.909 150.294C132.113 151.781 130.691 154.241 130.691 154.241C130.691 154.241 129.744 154.985 129.781 155.386C129.819 155.786 128.625 156.673 128.436 156.835C128.255 156.997 126.815 160.02 125.459 163.09C124.104 166.17 122.095 170.347 122.095 170.347L121.109 172.245C121.109 172.245 120.057 173.789 122.246 174.419C124.436 175.048 133.07 178.614 133.07 178.614L135.809 179.673C135.809 179.673 136.634 180.836 137.297 178.166C137.961 175.515 139.714 166.638 139.714 166.638Z" fill="white"/>
<path d="M134.313 187.892C139.071 174.533 141.061 160.544 139.933 159.104C138.37 157.092 137.393 160.525 136.19 165.436L133.024 159.037C133.024 159.037 140.616 153.84 140.616 151.771C140.616 149.702 128.712 155.557 127.669 157.731C126.996 159.133 122.958 170.575 116.153 180.531" stroke="black" stroke-width="1.069" stroke-miterlimit="10"/>
<path d="M137.416 151.935C137.416 151.935 140.553 149.98 139.814 148.626C139.084 147.272 129.578 154.024 129.815 155.807" stroke="black" stroke-width="1.069" stroke-miterlimit="10"/>
<path d="M136.173 149.884C136.173 149.884 138.125 145.994 137.007 145.507C135.888 145.031 131.898 151.505 131.434 153.489" stroke="black" stroke-width="1.069" stroke-miterlimit="10"/>
<path d="M136.783 180.064L120.319 173.694" stroke="black" stroke-width="1.069" stroke-miterlimit="10"/>
<path d="M134.62 186.976L116.801 179.548" stroke="black" stroke-width="1.069" stroke-miterlimit="10"/>
<path d="M134.652 179.246L132.112 185.93" stroke="black" stroke-width="1.069" stroke-miterlimit="10"/>
<path d="M131.493 178.025L128.944 184.614" stroke="black" stroke-width="1.069" stroke-miterlimit="10"/>
<path d="M128.538 176.756L126.055 183.26" stroke="black" stroke-width="1.069" stroke-miterlimit="10"/>
<path d="M125.27 175.537L123.014 182.031" stroke="black" stroke-width="1.069" stroke-miterlimit="10"/>
<path d="M122.509 174.524L119.817 180.77" stroke="black" stroke-width="1.069" stroke-miterlimit="10"/>
<path d="M85.2119 142.455C85.2119 145.335 87.553 147.661 90.4343 147.661C93.3156 147.661 95.6566 145.325 95.6566 142.455C95.6566 139.575 93.3156 137.249 90.4343 137.249C87.553 137.249 85.2119 139.575 85.2119 142.455Z" stroke="black" stroke-width="2.138" stroke-miterlimit="10"/>
<path d="M106.253 163.377C106.253 165.79 102.917 167.754 98.7943 167.754C94.6714 167.754 91.3352 165.799 91.3352 163.377C91.3352 160.965 94.6714 159 98.7943 159C102.917 159 106.253 160.965 106.253 163.377Z" fill="#049478" stroke="#211F21" stroke-width="1.069" stroke-miterlimit="10"/>
<path d="M107.957 126.292H101.398C97.0382 126.292 93.4745 130.383 93.4745 135.37V145.602C93.4745 145.888 93.4935 146.174 93.5124 146.46C93.4461 146.765 93.3987 147.071 93.3987 147.395V153.622V153.965V160.192C93.3987 162.452 95.2374 164.301 97.4837 164.301H100.081C102.327 164.301 104.166 162.452 104.166 160.192V154.68H107.957C112.317 154.68 115.88 150.589 115.88 145.602V135.37C115.89 130.374 112.317 126.292 107.957 126.292Z" fill="white" stroke="black" stroke-width="1.069" stroke-miterlimit="10"/>
<path d="M102.771 138.707C102.771 139.527 103.434 140.194 104.249 140.194C105.064 140.194 105.728 139.527 105.728 138.707C105.728 137.887 105.064 137.219 104.249 137.219C103.434 137.229 102.771 137.887 102.771 138.707Z" fill="#141414"/>
<path d="M112.447 138.496C112.447 139.202 113.015 139.765 113.707 139.765C114.409 139.765 114.968 139.192 114.968 138.496C114.968 137.791 114.399 137.228 113.707 137.228C113.015 137.228 112.447 137.791 112.447 138.496Z" fill="#141414"/>
<path d="M111.031 144.578C111.031 144.578 110.292 146.752 108.718 146.905C107.145 147.058 105.913 145.303 105.827 143.939L111.031 144.578Z" fill="#F7F6F6"/>
<path d="M110.517 144.436C110.498 144.493 110.479 144.541 110.45 144.598C110.517 144.436 110.441 144.627 110.412 144.684C110.374 144.77 110.327 144.856 110.289 144.941C110.062 145.361 109.872 145.657 109.54 145.962C109.218 146.257 108.801 146.448 108.308 146.372C107.825 146.296 107.37 145.962 107.048 145.561C106.858 145.332 106.697 145.056 106.583 144.798C106.46 144.522 106.384 144.188 106.365 143.94C106.185 144.121 106.015 144.293 105.834 144.474C107.351 144.665 108.867 144.846 110.384 145.037C110.602 145.065 110.81 145.094 111.028 145.113C111.313 145.151 111.559 144.846 111.559 144.579C111.559 144.264 111.313 144.083 111.028 144.045C109.512 143.854 107.995 143.673 106.479 143.483C106.261 143.454 106.052 143.425 105.834 143.406C105.56 143.378 105.285 143.673 105.304 143.94C105.408 145.38 106.365 146.887 107.787 147.335C109.171 147.774 110.374 146.887 111.066 145.742C111.256 145.418 111.426 145.075 111.55 144.722C111.644 144.455 111.445 144.14 111.18 144.064C110.877 143.978 110.611 144.16 110.517 144.436Z" fill="#141414"/>
<path d="M101.305 147.881C103.336 147.881 104.983 146.224 104.983 144.181C104.983 142.137 103.336 140.481 101.305 140.481C99.2744 140.481 97.6279 142.137 97.6279 144.181C97.6279 146.224 99.2744 147.881 101.305 147.881Z" fill="#E4B0C8"/>
<path d="M114.9 141.673C115.128 141.673 115.336 141.702 115.545 141.75V145.583C115.545 146.155 115.526 146.708 115.412 147.252C115.261 147.28 115.062 147.299 114.9 147.299C113.356 147.299 112.104 146.041 112.104 144.486C112.104 142.932 113.356 141.673 114.9 141.673Z" fill="#E4B0C8"/>
<path d="M109.374 137.229L109.071 142.292L111.478 140.814L109.374 137.229Z" fill="#D96980"/>
<path d="M95.2668 140.482L96.4041 134.274C96.4041 134.274 102.792 136.324 107.673 132.396C112.555 128.458 104.546 126.875 105.835 129.812C107.124 132.739 111.607 133.95 117.142 133.33C125.388 132.415 125.596 122.393 120.857 119.456C116.118 116.509 110.763 119.971 110.763 119.971C110.763 119.971 113.228 115.003 107.057 113.344C101.987 111.98 98.186 116.3 97.6268 118.207C97.6268 118.207 89.2672 119.036 85.5519 124.319C81.8365 129.602 81.5427 135.914 85.2107 141.674C88.8786 147.433 93.2575 150.532 93.2575 150.532C93.2575 150.532 93.9778 143.085 95.2668 140.482Z" fill="black"/>
<path d="M85.2156 142.454C85.2156 145.334 87.5566 147.66 90.4379 147.66C93.3192 147.66 95.6603 145.324 95.6603 142.454C95.6603 139.574 93.3192 137.248 90.4379 137.248C87.5566 137.248 85.2156 139.574 85.2156 142.454Z" fill="white"/>
<path d="M93.9121 143.143C93.9405 142.685 93.8647 142.199 93.7415 141.76C93.4856 140.864 92.9169 140.053 92.0639 139.662C91.3815 139.348 90.6232 139.262 89.8745 139.348C89.5333 139.386 89.2015 139.624 89.2205 140.006C89.2395 140.33 89.5048 140.702 89.8745 140.664C90.1873 140.635 90.5 140.626 90.8128 140.654C90.8412 140.654 90.8791 140.664 90.9076 140.664C90.7085 140.654 90.8318 140.654 90.8791 140.664C90.936 140.673 90.9929 140.683 91.0592 140.702C91.1824 140.73 91.2962 140.769 91.4099 140.807C91.571 140.864 91.2772 140.74 91.4289 140.816C91.4763 140.835 91.5236 140.864 91.5616 140.883C91.6563 140.931 91.7416 141.016 91.8364 141.055C91.7037 140.997 91.7322 140.969 91.7795 141.016C91.7985 141.036 91.8175 141.045 91.8364 141.064C91.8743 141.093 91.9028 141.121 91.9407 141.16C92.007 141.226 92.0639 141.312 92.1397 141.379C91.9881 141.226 92.0923 141.312 92.1302 141.369C92.1587 141.407 92.1776 141.436 92.1966 141.474C92.244 141.55 92.2914 141.636 92.3293 141.713C92.3482 141.751 92.3672 141.798 92.3861 141.837C92.424 141.903 92.3198 141.665 92.3577 141.76C92.3672 141.779 92.3767 141.798 92.3767 141.817C92.4051 141.903 92.4335 141.989 92.462 142.075C92.5093 142.218 92.5378 142.371 92.5662 142.514C92.5757 142.542 92.5757 142.58 92.5852 142.609C92.6041 142.742 92.5662 142.418 92.5757 142.542C92.5852 142.609 92.5852 142.666 92.5947 142.733C92.6041 142.866 92.6136 143.009 92.6041 143.143C92.5852 143.486 92.9169 143.81 93.2581 143.801C93.6372 143.782 93.8931 143.515 93.9121 143.143Z" fill="#090909"/>
<path d="M156.604 178.425H69.8242C65.7108 178.425 62.3745 175.068 62.3745 170.93V124.005C62.3745 119.866 65.7108 116.51 69.8242 116.51H156.604C160.718 116.51 164.054 119.866 164.054 124.005V170.93C164.063 175.068 160.727 178.425 156.604 178.425Z" stroke="black" stroke-width="1.069" stroke-miterlimit="10"/>
<path d="M412.204 331.346H306.241C301.981 331.346 298.527 327.871 298.527 323.585V254.97C298.527 250.683 301.981 247.209 306.241 247.209H412.204C416.464 247.209 419.918 250.683 419.918 254.97V323.585C419.918 327.871 416.464 331.346 412.204 331.346Z" fill="#E1EAFF"/>
<path d="M362.09 323.564C362.071 324.68 361.39 325.727 360.329 326.118C359.24 326.51 358.004 326.177 357.275 325.267C356.574 324.396 356.497 323.133 357.071 322.174C357.635 321.225 358.773 320.687 359.862 320.892C361.146 321.117 362.071 322.253 362.09 323.564C362.1 324.347 363.316 324.357 363.306 323.564C363.286 321.91 362.275 320.452 360.738 319.865C359.22 319.287 357.411 319.777 356.39 321.039C355.349 322.321 355.174 324.151 356.02 325.58C356.866 327.009 358.52 327.723 360.144 327.43C361.983 327.097 363.286 325.404 363.316 323.564C363.316 322.771 362.1 322.771 362.09 323.564Z" fill="black"/>
<path d="M404.162 316.235H314.269C310.008 316.235 306.555 312.76 306.555 308.474V259.863C306.555 255.576 310.008 252.102 314.269 252.102H404.162C408.422 252.102 411.876 255.576 411.876 259.863V308.474C411.876 312.76 408.422 316.235 404.162 316.235Z" fill="white"/>
<path d="M296.084 314.709C296.084 314.709 311.989 299.432 328.915 296.271C345.841 293.12 379.741 293.433 398.087 317.831C416.434 342.24 371.346 363.829 370.101 363.986C368.856 364.142 295.617 351.811 292.816 349.687C290.014 347.564 279.45 334.89 296.084 314.709Z" fill="#3772FF" stroke="black" stroke-width="0.997312" stroke-miterlimit="10"/>
<path d="M365.15 302.132C365.15 302.132 392.572 357.564 386.434 368.153C380.296 378.743 334.859 388.843 312.184 377.275C285.666 363.749 320.549 307.573 328.789 294.625L365.15 302.132Z" fill="#3772FF" stroke="black" stroke-width="0.997312" stroke-miterlimit="10"/>
<path d="M322.639 314.708C322.639 318.193 325.45 321.021 328.913 321.021C332.376 321.021 335.187 318.193 335.187 314.708C335.187 311.224 332.376 308.396 328.913 308.396C325.45 308.396 322.639 311.224 322.639 314.708Z" fill="white"/>
<path d="M404.158 316.235H314.266C310.005 316.235 306.552 312.76 306.552 308.474V259.863C306.552 255.576 310.005 252.102 314.266 252.102H404.158C408.419 252.102 411.872 255.576 411.872 259.863V308.474C411.872 312.76 408.419 316.235 404.158 316.235Z" stroke="black" stroke-width="1.09715" stroke-miterlimit="10"/>
<path d="M369.025 299.003C369.832 291.088 360.625 283.654 348.461 282.4C336.297 281.145 325.782 286.544 324.975 294.459C324.169 302.374 333.376 309.807 345.54 311.062C357.704 312.317 368.218 306.918 369.025 299.003Z" fill="#3772FF" stroke="black" stroke-width="1.06599" stroke-miterlimit="10"/>
<path d="M335.305 274.796C335.305 277.986 337.902 280.58 341.102 280.58C344.303 280.58 346.9 277.986 346.9 274.796C346.9 271.605 344.303 269.012 341.102 269.012C337.902 269.012 335.305 271.605 335.305 274.796Z" stroke="black" stroke-width="2.06276" stroke-miterlimit="10"/>
<path d="M360.559 256.846H353.273C348.428 256.846 344.469 261.387 344.469 266.927V278.279C344.469 278.602 344.489 278.915 344.508 279.229C344.43 279.561 344.382 279.914 344.382 280.266V287.175V287.557V294.467C344.382 296.972 346.424 299.027 348.915 299.027H351.804C354.294 299.027 356.337 296.972 356.337 294.467V288.35H360.549C365.393 288.35 369.352 283.809 369.352 278.269V266.917C369.362 261.387 365.403 256.846 360.559 256.846Z" fill="white" stroke="black" stroke-width="1.03132" stroke-miterlimit="10"/>
<path d="M354.785 270.638C354.785 271.549 355.525 272.292 356.429 272.292C357.334 272.292 358.073 271.549 358.073 270.638C358.073 269.728 357.334 268.984 356.429 268.984C355.525 268.994 354.785 269.728 354.785 270.638Z" fill="#0C0C0C"/>
<path d="M365.538 270.403C365.538 271.186 366.161 271.812 366.939 271.812C367.717 271.812 368.34 271.176 368.34 270.403C368.34 269.62 367.717 268.994 366.939 268.994C366.161 268.994 365.538 269.62 365.538 270.403Z" fill="#0C0C0C"/>
<path d="M363.969 277.155C363.969 277.155 363.143 279.573 361.401 279.739C359.66 279.905 358.288 277.958 358.201 276.441L363.969 277.155Z" fill="#FFF7F7"/>
<path d="M363.477 277.019C363.458 277.078 363.429 277.136 363.409 277.195C363.467 277.039 363.38 277.264 363.36 277.313C363.312 277.411 363.273 277.499 363.224 277.596C362.991 278.037 362.738 278.409 362.378 278.742C361.999 279.094 361.493 279.299 360.958 279.221C360.374 279.133 359.868 278.751 359.499 278.301C359.071 277.792 358.759 277.117 358.711 276.442C358.545 276.608 358.37 276.784 358.205 276.951C359.888 277.156 361.58 277.362 363.263 277.577C363.506 277.606 363.74 277.636 363.983 277.665C364.255 277.694 364.489 277.401 364.489 277.156C364.489 276.853 364.255 276.677 363.983 276.647C362.3 276.442 360.608 276.236 358.925 276.021C358.682 275.991 358.448 275.962 358.205 275.933C357.942 275.903 357.68 276.197 357.699 276.442C357.816 278.008 358.857 279.652 360.394 280.141C361.901 280.611 363.195 279.652 363.944 278.409C364.158 278.056 364.343 277.685 364.469 277.293C364.683 276.667 363.691 276.402 363.477 277.019Z" fill="#0C0C0C"/>
<path d="M349.092 276.716C349.092 278.987 350.921 280.817 353.168 280.817C355.415 280.817 357.244 278.977 357.244 276.716C357.244 274.446 355.415 272.616 353.168 272.616C350.921 272.616 349.092 274.446 349.092 276.716Z" fill="#E4B0C8"/>
<path d="M368.271 273.938C368.524 273.938 368.758 273.968 368.991 274.027V278.284C368.991 278.92 368.972 279.537 368.836 280.133C368.66 280.163 368.446 280.182 368.271 280.182C366.559 280.182 365.168 278.783 365.168 277.06C365.159 275.338 366.55 273.938 368.271 273.938Z" fill="#E4B0C8"/>
<path d="M362.123 268.994L361.792 274.612L364.457 272.977L362.123 268.994Z" fill="#DB7294"/>
<path d="M346.386 274.61L347.728 265.714C347.728 265.714 372.193 268.797 380.121 256.847C388.049 244.888 379.722 240.161 375.685 240.836C371.648 241.512 366.94 247.325 366.94 247.325C366.94 247.325 370.695 242.187 366.94 241.375C363.185 240.562 359.041 244.487 356.882 248.538C356.882 248.538 340.754 247.022 335.306 256.838C329.859 266.654 334.275 273.622 344.246 283.761L344.907 278.085L346.386 274.61Z" fill="black"/>
<path d="M335.311 274.797C335.311 277.987 337.909 280.581 341.109 280.581C344.309 280.581 346.907 277.987 346.907 274.797C346.907 271.606 344.309 269.013 341.109 269.013C337.909 269.013 335.311 271.606 335.311 274.797Z" fill="white"/>
<path d="M344.879 275.561C344.908 275.062 344.83 274.533 344.694 274.054C344.422 273.085 343.809 272.204 342.875 271.773C342.126 271.431 341.299 271.352 340.492 271.431C340.161 271.46 339.85 271.695 339.859 272.067C339.869 272.38 340.141 272.732 340.492 272.703C340.842 272.664 341.182 272.654 341.532 272.693C341.552 272.693 341.63 272.693 341.64 272.703C341.62 272.674 341.503 272.683 341.64 272.703C341.708 272.713 341.776 272.732 341.834 272.742C341.97 272.771 342.097 272.82 342.233 272.86C342.398 272.918 342.126 272.801 342.282 272.879C342.33 272.908 342.379 272.928 342.437 272.957C342.476 272.977 342.719 273.163 342.739 273.153C342.719 273.163 342.612 273.046 342.7 273.124C342.719 273.143 342.739 273.153 342.758 273.173C342.797 273.202 342.836 273.241 342.875 273.28C342.943 273.349 343.011 273.466 343.089 273.525C342.992 273.457 343.011 273.417 343.06 273.486C343.069 273.505 343.079 273.515 343.089 273.535C343.118 273.574 343.138 273.613 343.167 273.652C343.225 273.74 343.274 273.828 343.313 273.926C343.332 273.975 343.352 274.014 343.381 274.063C343.42 274.132 343.313 273.897 343.352 273.995C343.361 274.014 343.371 274.034 343.381 274.054C343.42 274.151 343.449 274.239 343.478 274.337C343.527 274.494 343.566 274.66 343.595 274.827C343.604 274.866 343.604 274.895 343.614 274.934C343.634 275.071 343.595 274.748 343.604 274.885C343.614 274.954 343.624 275.022 343.624 275.091C343.634 275.248 343.643 275.394 343.634 275.551C343.614 275.884 343.935 276.197 344.266 276.187C344.606 276.177 344.859 275.923 344.879 275.561Z" fill="#020202"/>
<path d="M356.879 248.541C356.879 248.541 340.76 265.296 334.077 270.395C334.077 270.395 325.39 251.046 330.322 245.644C334.272 241.318 353.571 243.863 356.879 248.541Z" fill="#FFBA7B" stroke="black" stroke-width="1.03132" stroke-miterlimit="10"/>
<path d="M351.55 245.388L331.9 264.883" stroke="black" stroke-width="1.03132" stroke-miterlimit="10"/>
<path d="M361.361 290.201L363.987 300.017L344.094 306.358L343.063 302.258L335.709 297.864L338.754 289.584L347.46 296.396L348.034 296.875C348.034 296.875 348.355 297.413 349.96 296.523C351.575 295.613 361.361 290.201 361.361 290.201Z" fill="#3772FF"/>
<path d="M362.13 289.77L343.152 300.281L343.035 302.777" stroke="black" stroke-width="1.03132" stroke-miterlimit="10"/>
<path d="M338.287 289.555L348.627 297.248" stroke="black" stroke-width="1.03132" stroke-miterlimit="10"/>
<path d="M338.289 300.985C338.289 300.985 324.865 309.94 315.702 306.349" stroke="black" stroke-width="1.03132" stroke-miterlimit="10"/>
<path d="M337.959 302.414C338.787 302.414 339.457 301.739 339.457 300.907C339.457 300.074 338.787 299.399 337.959 299.399C337.132 299.399 336.461 300.074 336.461 300.907C336.461 301.739 337.132 302.414 337.959 302.414Z" stroke="black" stroke-width="1.03132" stroke-miterlimit="10"/>
<path d="M355.108 304.323C355.108 305.184 355.799 305.879 356.655 305.879C357.511 305.879 358.202 305.184 358.202 304.323C358.202 303.461 357.511 302.767 356.655 302.767C355.799 302.776 355.108 303.471 355.108 304.323Z" stroke="black" stroke-width="1.03132" stroke-miterlimit="10"/>
<path d="M356.653 304.324C356.653 304.324 362.13 320.227 371.692 324.847" stroke="black" stroke-width="1.03132" stroke-miterlimit="10"/>
<path d="M451.848 132.746H294.43C289.006 132.746 284.614 128.326 284.614 122.869V9.87628C284.614 4.41929 289.006 0 294.43 0H451.848C457.272 0 461.665 4.41929 461.665 9.87628V122.869C461.665 128.326 457.272 132.746 451.848 132.746Z" fill="#FFBA7B"/>
<path d="M375.247 149.414H359.819C357.057 149.414 355.196 146.57 356.299 144.016L364.616 124.698L371.727 108.168C373.062 105.062 377.44 105.062 378.774 108.168L385.886 124.698L394.202 144.016C395.299 146.563 393.445 149.414 390.682 149.414H375.247Z" fill="#FFBA7B"/>
<path d="M379.953 117.856C379.953 120.374 377.926 122.413 375.424 122.413C372.921 122.413 370.894 120.374 370.894 117.856C370.894 115.337 372.921 113.298 375.424 113.298C377.926 113.298 379.953 115.337 379.953 117.856Z" stroke="black" stroke-width="0.813511" stroke-miterlimit="10"/>
<path d="M449.482 107.821H299.695C297.206 107.821 295.194 105.789 295.194 103.293V14.7327C295.194 12.2292 297.214 10.2046 299.695 10.2046H449.482C451.97 10.2046 453.983 12.2364 453.983 14.7327V103.293C453.983 105.796 451.97 107.821 449.482 107.821Z" fill="white" stroke="black" stroke-width="0.813511" stroke-miterlimit="10"/>
<path d="M315.22 96.1445H404.29C409.65 96.1445 413.992 91.776 413.992 86.3843V23.5346C413.992 18.1429 409.65 13.7744 404.29 13.7744H315.22C309.861 13.7744 305.519 18.1429 305.519 23.5346V86.3916C305.519 91.776 309.861 96.1445 315.22 96.1445Z" fill="white" stroke="black" stroke-width="0.813511" stroke-miterlimit="10"/>
<path d="M316.102 21.3132C316.102 22.3436 315.28 23.1782 314.27 23.1782C313.26 23.1782 312.438 22.3436 312.438 21.3132C312.438 20.2828 313.26 19.4482 314.27 19.4482C315.28 19.4482 316.102 20.2828 316.102 21.3132Z" fill="#EC6060" stroke="black" stroke-width="0.813511" stroke-miterlimit="10"/>
<path d="M323.403 21.3122C323.403 22.3427 322.58 23.1772 321.571 23.1772C320.561 23.1772 319.739 22.3427 319.739 21.3122C319.739 20.2818 320.561 19.4473 321.571 19.4473C322.588 19.4473 323.403 20.2818 323.403 21.3122Z" fill="#FFBA7B" stroke="black" stroke-width="0.813511" stroke-miterlimit="10"/>
<path d="M330.711 21.3122C330.711 22.3427 329.889 23.1772 328.879 23.1772C327.869 23.1772 327.047 22.3427 327.047 21.3122C327.047 20.2818 327.869 19.4473 328.879 19.4473C329.889 19.4473 330.711 20.2818 330.711 21.3122Z" fill="#049478" stroke="black" stroke-width="0.813511" stroke-miterlimit="10"/>
<path d="M305.758 27.8511H413.978" stroke="black" stroke-width="0.813511" stroke-miterlimit="10"/>
<path d="M407.827 62.3711H387.625V75.0412H407.827V62.3711Z" stroke="#88E5D4" stroke-width="0.813511" stroke-miterlimit="10"/>
<path d="M390.098 65.7041H404.769" stroke="#88E5D4" stroke-width="0.813511" stroke-miterlimit="10"/>
<path d="M390.098 68.0093H404.768" stroke="#88E5D4" stroke-width="0.813511" stroke-miterlimit="10"/>
<path d="M390.098 70.3184H404.768" stroke="#88E5D4" stroke-width="0.813511" stroke-miterlimit="10"/>
<path d="M363.687 49.3527V34.4839C355.522 34.4839 348.908 41.1382 348.908 49.3527C348.908 57.5673 355.522 64.2216 363.687 64.2216C371.851 64.2216 378.466 57.5673 378.466 49.3527C378.466 48.2788 378.343 47.2265 378.127 46.2179L363.687 49.3527Z" fill="#EC6060"/>
<path d="M379.945 43.6129C378.516 36.9078 372.595 31.8789 365.505 31.8789V46.7478L379.945 43.6129Z" fill="#FFA370"/>
<path d="M335.9 35.3614H318.186C317.501 35.3614 316.938 34.8026 316.938 34.106C316.938 33.4166 317.493 32.8506 318.186 32.8506H335.9C336.586 32.8506 337.148 33.4093 337.148 34.106C337.141 34.8026 336.586 35.3614 335.9 35.3614Z" stroke="#88E5D4" stroke-width="0.813511" stroke-miterlimit="10"/>
<path d="M318.21 37.2256H335.354" stroke="#88E5D4" stroke-width="0.813511" stroke-miterlimit="10"/>
<path d="M318.21 39.5337H335.354" stroke="#88E5D4" stroke-width="0.813511" stroke-miterlimit="10"/>
<path d="M318.21 41.8345H335.354" stroke="#88E5D4" stroke-width="0.813511" stroke-miterlimit="10"/>
<path d="M338.417 34.5063H344.887L354.213 43.0982" stroke="#88E5D4" stroke-width="0.813511" stroke-miterlimit="10"/>
<path d="M406.57 36.8155H388.856C388.17 36.8155 387.608 36.2567 387.608 35.5601C387.608 34.8707 388.163 34.3047 388.856 34.3047H406.57C407.255 34.3047 407.818 34.8634 407.818 35.5601C407.818 36.2567 407.263 36.8155 406.57 36.8155Z" stroke="#88E5D4" stroke-width="0.813511" stroke-miterlimit="10"/>
<path d="M388.899 38.6802H406.044" stroke="#88E5D4" stroke-width="0.813511" stroke-miterlimit="10"/>
<path d="M388.9 40.9878H406.044" stroke="#88E5D4" stroke-width="0.813511" stroke-miterlimit="10"/>
<path d="M388.9 43.2876H406.044" stroke="#88E5D4" stroke-width="0.813511" stroke-miterlimit="10"/>
<path d="M388.899 45.6855H406.044" stroke="#88E5D4" stroke-width="0.813511" stroke-miterlimit="10"/>
<path d="M388.899 47.9932H406.044" stroke="#88E5D4" stroke-width="0.813511" stroke-miterlimit="10"/>
<path d="M388.899 50.2993H406.044" stroke="#88E5D4" stroke-width="0.813511" stroke-miterlimit="10"/>
<path d="M374.481 41.4012L380.735 36.2417H386.289" stroke="#88E5D4" stroke-width="0.813511" stroke-miterlimit="10"/>
<path d="M319.503 55.2671V84.4823H363.451" stroke="#88E5D4" stroke-width="0.813511" stroke-miterlimit="10"/>
<path d="M319.504 55.4267H317.932L318.718 54.0625L319.504 52.6982L320.283 54.0625L321.069 55.4267H319.504Z" fill="#88E5D4"/>
<path d="M362.983 84.4809V82.9062L364.346 83.69L365.702 84.4809L364.346 85.2719L362.983 86.0629V84.4809Z" fill="#88E5D4"/>
<path d="M315.865 82.0654L326.554 72.3778L335.346 81.8912L346.439 61.4565L354.546 81.3978" stroke="#FFBA7B" stroke-width="0.813511" stroke-miterlimit="10"/>
<path d="M312.21 67.6523C312.21 67.6523 312.6 67.2459 313.249 66.6509" stroke="#EC6060" stroke-width="0.813511" stroke-miterlimit="10"/>
<path d="M315.397 64.8664C318.239 62.7185 322.343 60.5052 324.954 63.0378C329.274 67.2248 328.25 70.4468 336.927 68.5673C345.085 66.804 355.096 69.2422 358.039 83.2475" stroke="#EC6060" stroke-width="0.813511" stroke-miterlimit="10" stroke-dasharray="3.14 3.14"/>
<path d="M358.291 84.627C358.37 85.0914 358.442 85.5703 358.507 86.0638" stroke="#EC6060" stroke-width="0.813511" stroke-miterlimit="10"/>
<path d="M448.918 51.1743C448.918 51.1743 475.598 61.6674 489.735 107.05L471.667 116.07L458.295 81.7175L448.918 51.1743Z" fill="#3772FF" stroke="black" stroke-width="0.813511" stroke-miterlimit="10"/>
<path d="M369.38 60.1595C369.38 60.1595 364.836 57.2206 365.398 55.8201C365.961 54.4195 367.281 55.2032 367.281 55.2032C367.281 55.2032 365.925 54.3687 366.552 53.4399C367.18 52.5183 368.031 52.8594 368.031 52.8594C368.031 52.8594 367.072 51.4443 367.995 50.9146C368.918 50.3921 370.31 50.7259 370.31 50.7259C370.31 50.7259 369.776 49.5503 369.805 49.1294C369.834 48.7158 370.433 47.7942 372.366 48.2514C374.306 48.7013 378.446 51.0234 379.845 51.7418C381.245 52.4602 382.817 54.1147 382.868 53.5778C382.911 53.0408 383.51 49.6156 384.837 48.6142C386.157 47.6128 386.683 47.4532 386.921 49.3544C387.159 51.2556 387.094 56.553 389.655 60.457C392.215 64.3611 393.088 66.959 395.793 70.1229C398.498 73.2868 399.738 74.8832 399.738 74.8832L387.549 84.8684C387.549 84.8684 375.72 66.959 375.633 66.8356C375.547 66.7195 371.71 61.9809 369.38 60.1595Z" fill="white"/>
<path d="M366.877 55.1092C366.877 55.1092 365.363 52.6274 368.197 52.9322C371.032 53.237 374.876 55.8711 376.723 57.2717" stroke="black" stroke-width="0.813511" stroke-miterlimit="10"/>
<path d="M379.812 62.8889C379.812 62.8889 378.773 59.7032 383.296 58.3825C383.296 58.3825 381.572 51.6193 384.832 48.6151C388.092 45.6108 386.318 53.3464 388.496 58.056C390.674 62.7655 393.148 67.3082 395.471 69.79C397.793 72.2717 399.799 74.9712 399.799 74.9712L387.472 84.9273C387.472 84.9273 383.26 78.4834 376.761 68.491C370.262 58.4986 364.528 58.2737 365.401 55.8209C366.476 52.8022 374.136 59.9137 374.136 59.9137" stroke="black" stroke-width="0.813511" stroke-miterlimit="10"/>
<path d="M368.195 52.9311C368.195 52.9311 366.738 51.1242 368.591 50.6526C368.902 50.5727 369.284 50.5655 369.724 50.6235C371.953 50.9138 375.66 52.8005 378.365 54.905" stroke="black" stroke-width="0.813511" stroke-miterlimit="10"/>
<path d="M382.889 54.0916C382.889 54.0916 377.581 49.1062 371.529 48.2862C369.337 47.9887 369.43 50.1875 371.58 51.1018" stroke="black" stroke-width="0.813511" stroke-miterlimit="10"/>
<path d="M408.616 81.1526C406.899 79.9916 405.147 78.4749 403.466 76.8349C398.013 71.5013 393.354 64.8542 393.354 64.8542L379.952 76.4068C379.952 76.4068 394.573 99.2362 403.351 102.088C412.128 104.94 432.202 81.9799 432.202 81.9799L433.781 51.7705C433.781 51.7705 430.009 53.8096 426.98 56.5599C422.01 61.0735 413.319 69.1502 403.473 76.8349" fill="#3772FF"/>
<path d="M408.616 81.1526C406.899 79.9916 405.147 78.4749 403.466 76.8349C398.013 71.5013 393.354 64.8542 393.354 64.8542L379.952 76.4068C379.952 76.4068 394.573 99.2362 403.351 102.088C412.128 104.94 432.202 81.9799 432.202 81.9799L433.781 51.7705C433.781 51.7705 430.009 53.8096 426.98 56.5599C422.01 61.0735 413.319 69.1502 403.473 76.8349" stroke="black" stroke-width="0.813511" stroke-miterlimit="10"/>
<path d="M397.725 70.5268C395.106 67.3629 393.354 64.8594 393.354 64.8594L379.952 76.4119C379.952 76.4119 381.655 79.0679 384.237 82.6744L397.725 70.5268Z" fill="white" stroke="black" stroke-width="0.813511" stroke-miterlimit="10"/>
<path d="M394.438 69.2332C394.438 69.7412 394.027 70.1475 393.529 70.1475C393.025 70.1475 392.621 69.7339 392.621 69.2332C392.621 68.7325 393.032 68.3188 393.529 68.3188C394.027 68.3188 394.438 68.7252 394.438 69.2332Z" fill="white" stroke="black" stroke-width="0.813511" stroke-miterlimit="10"/>
<path d="M470.175 109.085C470.175 108.831 470.175 103.686 470.175 103.439C470.175 73.687 457.596 49.5659 442.074 49.5659C426.552 49.5659 413.973 73.687 413.973 103.439C413.973 103.693 413.973 108.838 413.973 109.085H470.175Z" fill="#3772FF"/>
<path d="M441.988 63.0679V109.082" stroke="black" stroke-width="0.813511" stroke-miterlimit="10"/>
<path d="M442.071 63.5474L452.905 53.7147C449.573 51.0443 445.909 49.5566 442.071 49.5566C438.357 49.5566 434.476 51.2039 431.231 53.7074L442.071 63.5474Z" fill="white" stroke="black" stroke-width="0.813511" stroke-miterlimit="10"/>
<path d="M418.012 75.6017C415.451 83.7219 413.973 93.2499 413.973 103.438C413.973 103.692 413.973 108.837 413.973 109.084H470.175C470.175 108.83 470.175 103.685 470.175 103.438C470.175 93.0177 468.631 83.2865 465.955 75.043" stroke="black" stroke-width="0.813511" stroke-miterlimit="10"/>
<path d="M452.914 53.7148C449.582 51.0371 445.918 49.564 442.081 49.564C438.251 49.564 434.608 51.0298 431.276 53.6857" stroke="black" stroke-width="0.813511" stroke-miterlimit="10"/>
<path d="M449.482 107.821H299.695C297.206 107.821 295.194 105.789 295.194 103.293V14.7327C295.194 12.2292 297.214 10.2046 299.695 10.2046H449.482C451.97 10.2046 453.983 12.2364 453.983 14.7327V103.293C453.983 105.796 451.97 107.821 449.482 107.821Z" stroke="black" stroke-width="0.813511" stroke-miterlimit="10"/>
<path d="M453.237 56.6333L447.258 47.5988C446.09 45.8281 443.89 45.1751 441.993 45.8789C440.096 45.1678 437.896 45.8281 436.727 47.5988L430.748 56.6333C429.385 58.6942 429.94 61.4807 431.989 62.8595L432.847 63.4328C434.895 64.8043 437.665 64.2455 439.035 62.1846L442 57.7073L444.964 62.1846C446.327 64.2455 449.097 64.8043 451.153 63.4328L452.011 62.8595C454.045 61.4807 454.601 58.6942 453.237 56.6333Z" fill="#FEFEFF" stroke="black" stroke-width="0.813511" stroke-miterlimit="10"/>
<path d="M442.946 55.5656C442.946 56.0446 442.557 56.4364 442.081 56.4364C441.605 56.4364 441.215 56.0446 441.215 55.5656C441.215 55.0867 441.605 54.6948 442.081 54.6948C442.557 54.6948 442.946 55.0867 442.946 55.5656Z" fill="#FEFEFF" stroke="black" stroke-width="0.813511" stroke-miterlimit="10"/>
<path d="M453.87 34.2145C453.87 36.7833 451.785 38.866 449.21 38.866C446.635 38.866 444.551 36.7833 444.551 34.2145C444.551 31.6456 446.635 29.563 449.21 29.563C451.785 29.563 453.87 31.6456 453.87 34.2145Z" stroke="black" stroke-width="1.62702" stroke-miterlimit="10"/>
<path d="M433.558 19.7827H439.415C443.31 19.7827 446.491 23.4328 446.491 27.8884V37.0172C446.491 37.2712 446.476 37.5252 446.455 37.7792C446.52 38.0477 446.556 38.3307 446.556 38.6137V44.1723V44.4843V50.0429C446.556 52.0602 444.918 53.7075 442.913 53.7075H440.591C438.586 53.7075 436.948 52.0602 436.948 50.0429V45.1229H433.565C429.671 45.1229 426.49 41.4728 426.49 37.0172V27.8884C426.483 23.4328 429.663 19.7827 433.558 19.7827Z" fill="white" stroke="black" stroke-width="0.813511" stroke-miterlimit="10"/>
<path d="M444.953 34.0698L443.871 26.9147C443.871 26.9147 424.202 29.3965 417.825 19.7815C411.449 10.1664 418.15 6.36393 421.389 6.90818C424.627 7.45242 428.421 12.1257 428.421 12.1257C428.421 12.1257 425.406 7.99667 428.421 7.34357C431.436 6.69048 434.775 9.84712 436.507 13.1053C436.507 13.1053 449.468 11.8862 453.853 19.7815C458.239 27.6767 454.683 33.2715 446.669 41.428L446.136 36.8636L444.953 34.0698Z" fill="black"/>
<path d="M467.515 11.1173C467.515 15.747 463.786 19.4987 459.184 19.4987C454.583 19.4987 450.854 15.747 450.854 11.1173C450.854 6.48752 454.583 2.73584 459.184 2.73584C463.786 2.7431 467.515 6.49478 467.515 11.1173Z" fill="black"/>
<path d="M443.183 35.4705C443.183 37.3354 441.676 38.8521 439.822 38.8521C437.968 38.8521 436.461 37.3354 436.461 35.4705C436.461 33.6055 437.968 32.0889 439.822 32.0889C441.683 32.0889 443.183 33.6055 443.183 35.4705Z" fill="#E4B0C8"/>
<path d="M427.381 32.771C427.179 32.771 426.977 32.8 426.79 32.8436V36.3485C426.79 36.871 426.732 37.3862 426.84 37.8797C426.977 37.9014 427.237 37.916 427.381 37.916C428.795 37.916 429.942 36.7621 429.942 35.3398C429.942 33.9175 428.795 32.771 427.381 32.771Z" fill="#E4B0C8"/>
<path d="M437.117 30.749C437.117 31.4166 436.584 31.9536 435.92 31.9536C435.256 31.9536 434.723 31.4166 434.723 30.749C434.723 30.0814 435.256 29.5444 435.92 29.5444C436.584 29.5517 437.117 30.0887 437.117 30.749Z" fill="#141414"/>
<path d="M429.292 30.574C429.292 31.14 428.838 31.5972 428.268 31.5972C427.706 31.5972 427.251 31.14 427.251 30.574C427.251 30.0079 427.706 29.5508 428.268 29.5508C428.838 29.5508 429.292 30.0079 429.292 30.574Z" fill="#141414"/>
<path d="M430.43 35.4937C430.43 35.4937 431.028 37.257 432.298 37.3731C433.567 37.4965 434.563 36.0815 434.635 34.9712L430.43 35.4937Z" fill="#F7F6F6"/>
<path d="M430.038 35.6017C430.269 36.2766 430.68 36.937 431.25 37.3651C432.238 38.1198 433.529 37.757 434.272 36.8354C434.705 36.3056 434.986 35.6598 435.036 34.9777C435.051 34.7745 434.842 34.5495 434.632 34.5713C433.406 34.7237 432.18 34.8761 430.947 35.0285C430.774 35.0502 430.601 35.072 430.427 35.0938C430.211 35.1228 430.024 35.2607 430.024 35.5001C430.024 35.6961 430.211 35.9355 430.427 35.9065C431.654 35.7541 432.88 35.6017 434.113 35.4493C434.286 35.4276 434.459 35.4058 434.632 35.384C434.495 35.2462 434.366 35.1155 434.229 34.9777C434.171 35.7686 433.579 36.7265 432.757 36.937C431.978 37.1401 431.416 36.5378 431.062 35.9065C430.983 35.7686 430.918 35.6235 430.853 35.4784C430.824 35.4131 430.882 35.5654 430.86 35.4856C430.853 35.4711 430.846 35.4493 430.839 35.4348C430.831 35.4203 430.824 35.3985 430.817 35.384C430.651 34.8978 429.872 35.1083 430.038 35.6017Z" fill="#141414"/>
<path d="M441.977 30.0432C441.977 32.6338 440.109 34.7382 437.801 34.7382C435.493 34.7382 433.625 32.6338 433.625 30.0432C433.625 27.4526 435.493 25.3481 437.801 25.3481C440.109 25.3481 441.977 27.4526 441.977 30.0432Z" stroke="#049478" stroke-width="0.813511" stroke-miterlimit="10"/>
<path d="M427.398 33.6499C429.295 33.6499 430.832 31.772 430.832 29.4556C430.832 27.1391 429.295 25.2612 427.398 25.2612C425.502 25.2612 423.965 27.1391 423.965 29.4556C423.965 31.772 425.502 33.6499 427.398 33.6499Z" stroke="#049478" stroke-width="0.813511" stroke-miterlimit="10"/>
<path d="M432.175 29.5635V33.6417L430.054 32.3428L432.175 29.5635Z" fill="#D96980"/>
<path d="M430.729 30.7093C430.729 30.7093 432.409 29.9981 433.628 31.0141" stroke="#049478" stroke-width="0.813511" stroke-miterlimit="10"/>
<path d="M453.859 34.2145C453.859 36.7833 451.775 38.866 449.2 38.866C446.625 38.866 444.54 36.7833 444.54 34.2145C444.54 31.6456 446.625 29.563 449.2 29.563C451.775 29.563 453.859 31.6456 453.859 34.2145Z" fill="white"/>
<path d="M447.173 34.8326C447.166 34.731 447.173 34.6294 447.173 34.5278C447.173 34.4843 447.18 34.4335 447.18 34.3899C447.18 34.3609 447.188 34.3391 447.188 34.3101C447.202 34.1722 447.166 34.4335 447.188 34.3246C447.209 34.194 447.231 34.0634 447.267 33.94C447.281 33.8747 447.303 33.8094 447.325 33.7441C447.339 33.7078 447.346 33.6715 447.361 33.6352C447.368 33.6207 447.375 33.599 447.382 33.5844C447.411 33.5046 447.382 33.599 447.368 33.6207C447.454 33.4829 447.512 33.3232 447.606 33.1853C447.613 33.1708 447.628 33.1636 447.635 33.149C447.678 33.091 447.685 33.1273 447.613 33.1781C447.642 33.1636 447.664 33.1128 447.692 33.0837C447.75 33.0184 447.815 32.9531 447.88 32.8951C447.894 32.8806 447.909 32.8733 447.916 32.866C447.959 32.8225 447.988 32.8443 447.894 32.8806C447.93 32.866 447.967 32.8298 448.003 32.808C448.082 32.7572 448.168 32.7064 448.262 32.6629C448.277 32.6556 448.363 32.6193 448.277 32.6556C448.19 32.6919 448.306 32.6411 448.327 32.6411C448.385 32.6193 448.443 32.6048 448.5 32.583C448.558 32.5685 448.623 32.554 448.681 32.5395C448.702 32.5322 448.724 32.5322 448.745 32.525C448.767 32.5177 448.789 32.5177 448.81 32.5105C448.868 32.5032 448.854 32.5032 448.782 32.5105C448.832 32.4814 448.933 32.496 448.991 32.4887C449.063 32.4814 449.142 32.4814 449.214 32.4814C449.38 32.4814 449.539 32.4887 449.705 32.5105C449.964 32.5395 450.21 32.2637 450.202 32.0098C450.188 31.7195 449.986 31.5381 449.705 31.5091C448.702 31.4075 447.606 31.6252 446.935 32.4452C446.481 33.0039 446.264 33.6933 446.199 34.4044C446.185 34.5423 446.178 34.6802 446.185 34.8181C446.199 35.0793 446.401 35.3333 446.683 35.3188C446.935 35.3188 447.195 35.1083 447.173 34.8326Z" fill="#090909"/>
<path d="M382.847 194.798H356.551C353.19 194.798 350.467 197.538 350.467 200.919V211.717V215.494V227.329L356.653 221.615H382.847C386.208 221.615 388.931 218.876 388.931 215.494V200.919C388.931 197.538 386.208 194.798 382.847 194.798Z" fill="white" stroke="black" stroke-width="0.642518" stroke-miterlimit="10"/>
<path d="M363.685 208.691C363.685 210.158 362.5 211.35 361.042 211.35C359.584 211.35 358.399 210.158 358.399 208.691C358.399 207.224 359.584 206.032 361.042 206.032C362.5 206.032 363.685 207.224 363.685 208.691Z" fill="white" stroke="black" stroke-width="0.642518" stroke-miterlimit="10"/>
<path d="M372.885 208.691C372.885 210.158 371.7 211.35 370.241 211.35C368.783 211.35 367.598 210.158 367.598 208.691C367.598 207.224 368.783 206.032 370.241 206.032C371.7 206.032 372.885 207.224 372.885 208.691Z" fill="white" stroke="black" stroke-width="0.642518" stroke-miterlimit="10"/>
<path d="M382.086 208.691C382.086 210.158 380.901 211.35 379.443 211.35C377.985 211.35 376.8 210.158 376.8 208.691C376.8 207.224 377.985 206.032 379.443 206.032C380.901 206.032 382.086 207.224 382.086 208.691Z" fill="white" stroke="black" stroke-width="0.642518" stroke-miterlimit="10"/>
<path d="M390.425 186.086H364.129C360.768 186.086 358.045 188.826 358.045 192.208V203.005V206.782V218.618L364.231 212.903H390.425C393.786 212.903 396.509 210.164 396.509 206.782V192.208C396.509 188.826 393.786 186.086 390.425 186.086Z" fill="white" stroke="black" stroke-width="0.642518" stroke-miterlimit="10"/>
<path d="M371.262 199.978C371.262 201.445 370.077 202.637 368.619 202.637C367.16 202.637 365.975 201.445 365.975 199.978C365.975 198.51 367.16 197.318 368.619 197.318C370.077 197.318 371.262 198.51 371.262 199.978Z" fill="white" stroke="black" stroke-width="0.642518" stroke-miterlimit="10"/>
<path d="M380.46 199.979C380.46 201.446 379.275 202.639 377.817 202.639C376.358 202.639 375.173 201.446 375.173 199.979C375.173 198.512 376.358 197.32 377.817 197.32C379.275 197.32 380.46 198.512 380.46 199.979Z" fill="white" stroke="black" stroke-width="0.642518" stroke-miterlimit="10"/>
<path d="M389.662 199.979C389.662 201.446 388.477 202.639 387.019 202.639C385.56 202.639 384.375 201.446 384.375 199.979C384.375 198.512 385.56 197.32 387.019 197.32C388.477 197.32 389.662 198.512 389.662 199.979Z" fill="white" stroke="black" stroke-width="0.642518" stroke-miterlimit="10"/>
<path d="M167.045 73.4839H135.058C130.972 73.4839 127.659 76.8169 127.659 80.9284V94.0717V98.6669V113.065L135.186 106.111H167.053C171.139 106.111 174.452 102.778 174.452 98.6669V80.9284C174.445 76.8169 171.132 73.4839 167.045 73.4839Z" fill="white" stroke="black" stroke-width="0.847287" stroke-miterlimit="10"/>
<path d="M143.724 90.3827C143.724 92.174 142.282 93.6175 140.509 93.6175C138.729 93.6175 137.294 92.1664 137.294 90.3827C137.294 88.5991 138.736 87.1479 140.509 87.1479C142.282 87.1479 143.724 88.5991 143.724 90.3827Z" fill="white" stroke="black" stroke-width="0.847287" stroke-miterlimit="10"/>
<path d="M154.914 90.3823C154.914 92.1735 153.472 93.617 151.699 93.617C149.919 93.617 148.484 92.1659 148.484 90.3823C148.484 88.5986 149.926 87.1475 151.699 87.1475C153.472 87.1475 154.914 88.5986 154.914 90.3823Z" fill="white" stroke="black" stroke-width="0.847287" stroke-miterlimit="10"/>
<path d="M166.111 90.3823C166.111 92.1735 164.669 93.617 162.896 93.617C161.115 93.617 159.681 92.1659 159.681 90.3823C159.681 88.5986 161.123 87.1475 162.896 87.1475C164.669 87.1475 166.111 88.5986 166.111 90.3823Z" fill="white" stroke="black" stroke-width="0.847287" stroke-miterlimit="10"/>
<path d="M59.9013 261.338C58.8557 255.482 55.5676 251.642 51.8915 249.223C45.6605 245.135 37.392 245.135 31.1717 249.223C27.4956 251.642 24.2076 255.482 23.1619 261.338C21.243 272.163 30.7082 277.976 32.4869 280.156C32.4869 280.156 33.6835 281.154 34.2657 282.336C34.4058 282.629 34.5675 283.562 34.74 284.809H41.5424H48.3448C48.5281 283.562 48.679 282.629 48.8191 282.336C49.3905 281.154 50.5979 280.156 50.5979 280.156C52.3551 277.976 61.8203 272.163 59.9013 261.338Z" fill="#EEDA36" stroke="black" stroke-width="1.21589" stroke-miterlimit="10"/>
<path d="M38.6752 285.971C38.6752 285.971 38.6752 275.711 37.9314 274.247C37.1875 272.782 33.7486 267.652 33.1664 266.578C32.5843 265.494 33.7809 264.247 34.6973 265.841C35.4842 267.208 38.8153 271.882 39.5592 273.802C40.303 275.711 40.9391 286.492 40.9391 286.492L38.6752 285.971Z" fill="white"/>
<path d="M44.3232 285.971C44.3232 285.971 44.3232 275.711 45.067 274.247C45.8109 272.782 49.2498 267.652 49.832 266.578C50.4141 265.494 49.2175 264.247 48.3011 265.841C47.5142 267.208 44.1831 271.882 43.4392 273.802C42.6954 275.711 42.0593 286.492 42.0593 286.492L44.3232 285.971Z" fill="white"/>
<path d="M49.2633 266.229C47.8834 266.88 45.5333 266.956 43.7976 266.425C43.7868 266.436 43.7653 266.446 43.7545 266.457C42.3207 267.52 40.3263 267.119 38.8602 266.034C37.0383 266.75 34.5265 266.837 34.1492 266.848L34.1384 265.872C35.238 265.85 36.812 265.665 38.0409 265.297C37.0276 264.19 36.812 262.997 37.4911 262.184C38.3428 261.154 39.4208 261.219 40.1 261.739C40.9193 262.368 41.3074 263.702 40.542 264.852C40.3695 265.112 40.1323 265.329 39.852 265.524C40.7683 266.067 41.8572 266.305 42.7304 265.969C42.4285 265.796 42.1698 265.579 41.9865 265.34C41.6955 264.96 41.3074 264.18 42.0512 263.138C42.5579 262.433 43.2155 262.108 43.8623 262.249C44.4876 262.379 44.9727 262.932 45.102 263.648C45.2314 264.321 45.0374 265.015 44.5738 265.633C45.986 265.947 47.7971 265.893 48.9183 265.373L49.2633 266.229ZM43.1508 263.344C43.0322 263.431 42.9244 263.551 42.8166 263.702C42.4393 264.234 42.5794 264.527 42.7304 264.733C42.9244 264.971 43.237 265.177 43.6251 265.351C44.0779 264.885 44.2827 264.353 44.1857 263.865C44.121 263.529 43.9054 263.258 43.6467 263.203C43.4958 263.171 43.3233 263.214 43.1508 263.344ZM39.0327 264.917C39.3561 264.744 39.6041 264.548 39.755 264.331C40.197 263.659 39.9814 262.9 39.5178 262.542C39.1082 262.238 38.6446 262.336 38.235 262.824C37.8253 263.312 38.2781 264.125 38.7848 264.678C38.8602 264.754 38.9465 264.841 39.0327 264.917Z" fill="white"/>
<path d="M41.4988 283.714C37.8011 283.714 34.6425 282.738 34.1143 282.445C34.1574 282.521 34.2005 282.586 34.2328 282.662C34.7287 283.681 35.3432 292.195 36.68 295.482C36.9171 296.067 37.1759 296.479 37.4562 296.664C38.2216 297.163 39.8063 297.694 41.4988 297.607C43.1913 297.683 44.776 297.163 45.5414 296.664C45.8217 296.479 46.0804 296.067 46.3176 295.482C47.6436 292.195 48.2689 283.692 48.7648 282.662C48.7971 282.586 48.851 282.51 48.8833 282.445C48.3551 282.738 45.1965 283.714 41.4988 283.714Z" fill="white" stroke="black" stroke-width="1.21589" stroke-miterlimit="10"/>
<path d="M41.498 287.565C43.6326 287.532 45.9611 287.272 48.0741 286.6C48.2142 285.591 48.3436 284.68 48.4514 283.986C43.9667 285.699 39.0078 285.699 34.5339 283.986C34.6525 284.68 34.7711 285.591 34.9112 286.6C37.035 287.261 39.3635 287.522 41.498 287.565Z" fill="black"/>
<path d="M41.4977 291.903C43.4058 291.87 45.4648 291.653 47.3945 291.133C47.5454 290.287 47.6748 289.408 47.8042 288.551C43.7184 289.95 39.2769 289.95 35.1912 288.551C35.3205 289.408 35.4499 290.287 35.6008 291.133C37.5305 291.653 39.5895 291.87 41.4977 291.903Z" fill="black"/>
<path d="M36.0156 293.172C36.2205 294.072 36.4468 294.875 36.6948 295.482C36.7379 295.58 36.781 295.666 36.8134 295.764C38.3765 296.079 39.9936 296.22 41.5136 296.252C43.0336 296.23 44.6399 296.079 46.2031 295.764C46.2462 295.677 46.2893 295.591 46.3324 295.482C46.5804 294.864 46.8068 294.072 47.0116 293.172C43.4109 294.213 39.5947 294.213 36.0156 293.172Z" fill="black"/>
<path d="M41.8782 240.688H41.8351C40.757 240.688 39.873 239.809 39.873 238.714V229.462C39.873 228.378 40.7463 227.488 41.8351 227.488H41.8782C42.9562 227.488 43.8402 228.367 43.8402 229.462V238.714C43.8294 239.809 42.9562 240.688 41.8782 240.688Z" fill="white" stroke="black" stroke-width="1.21589" stroke-miterlimit="10"/>
<path d="M55.9792 243.247L55.9469 243.225C54.9874 242.716 54.6317 241.512 55.1491 240.557L59.4936 232.401C60.0003 231.447 61.1969 231.078 62.1456 231.599L62.1779 231.62C63.1266 232.13 63.4931 233.334 62.9757 234.288L58.6312 242.445C58.1245 243.41 56.9279 243.768 55.9792 243.247Z" fill="white" stroke="black" stroke-width="1.21589" stroke-miterlimit="10"/>
<path d="M27.734 243.247L27.7664 243.225C28.7258 242.716 29.0816 241.512 28.5641 240.557L24.2196 232.401C23.7129 231.447 22.5163 231.078 21.5677 231.599L21.5353 231.62C20.5866 232.13 20.2201 233.334 20.7376 234.288L25.0821 242.445C25.5887 243.41 26.7746 243.768 27.734 243.247Z" fill="white" stroke="black" stroke-width="1.21589" stroke-miterlimit="10"/>
<path d="M17.2822 254.104L17.2714 254.147C17.045 255.21 16.0101 255.894 14.9536 255.677L5.95204 253.779C4.89557 253.551 4.2164 252.51 4.43201 251.447L4.44279 251.403C4.66918 250.341 5.70409 249.657 6.76057 249.874L15.7622 251.772C16.8186 251.989 17.4978 253.041 17.2822 254.104Z" fill="white" stroke="black" stroke-width="1.21589" stroke-miterlimit="10"/>
<path d="M16.7917 268.887L16.7809 268.843C16.4791 267.802 15.3903 267.195 14.3446 267.509L5.52624 270.112C4.49133 270.416 3.88763 271.512 4.20026 272.564L4.21104 272.607C4.51289 273.648 5.60171 274.256 6.6474 273.941L15.4657 271.338C16.5006 271.034 17.0936 269.939 16.7917 268.887Z" fill="white" stroke="black" stroke-width="1.21589" stroke-miterlimit="10"/>
<path d="M66.4285 254.104L66.4393 254.147C66.6657 255.21 67.7006 255.894 68.7571 255.677L77.7587 253.779C78.8152 253.551 79.4943 252.51 79.2787 251.447L79.2679 251.403C79.0415 250.341 78.0066 249.657 76.9501 249.874L67.9486 251.772C66.8813 251.989 66.2021 253.041 66.4285 254.104Z" fill="white" stroke="black" stroke-width="1.21589" stroke-miterlimit="10"/>
<path d="M66.9077 268.887L66.9185 268.843C67.2204 267.802 68.3092 267.195 69.3549 267.509L78.1732 270.112C79.2081 270.416 79.8118 271.512 79.4992 272.564V272.596C79.1973 273.637 78.1085 274.245 77.0628 273.93L68.2445 271.327C67.1988 271.034 66.6059 269.939 66.9077 268.887Z" fill="white" stroke="black" stroke-width="1.21589" stroke-miterlimit="10"/>
</svg>
