<?xml version="1.0" encoding="utf-8"?>
<!-- Generator: Adobe Illustrator 26.3.1, SVG Export Plug-In . SVG Version: 6.00 Build 0)  -->
<svg version="1.1" id="Layer_1" xmlns="http://www.w3.org/2000/svg" xmlns:xlink="http://www.w3.org/1999/xlink" x="0px" y="0px"
	 viewBox="0 0 1100 800" style="enable-background:new 0 0 1100 800;" xml:space="preserve">
<style type="text/css">
	.st0{fill:#FFFFFF;stroke:#6F6F6F;stroke-width:2;stroke-miterlimit:10;}
	.st1{fill:#ADB5BD;stroke:#231F20;stroke-width:0.5992;stroke-linecap:round;stroke-linejoin:round;stroke-miterlimit:10;}
	.st2{fill:#EB5C68;stroke:#231F20;stroke-width:0.4517;stroke-miterlimit:10;}
	.st3{fill:#ADB5BD;stroke:#000000;stroke-width:0.4517;stroke-miterlimit:10;}
	.st4{fill:#ADB5BD;stroke:#231F20;stroke-width:0.4517;stroke-miterlimit:10;}
	.st5{fill:#343A40;}
	.st6{fill:#343A40;stroke:#231F20;stroke-width:0.4517;stroke-miterlimit:10;}
	.st7{fill:#759CD1;stroke:#231F20;stroke-width:0.9034;stroke-miterlimit:10;}
	.st8{fill:#292C3D;}
	.st9{fill:#495057;}
	.st10{fill:#FCE9D9;stroke:#231F20;stroke-width:0.5486;stroke-miterlimit:10;}
	.st11{fill:#1D3557;stroke:#231F20;stroke-width:0.5486;stroke-miterlimit:10;}
	.st12{fill:#9CBED3;stroke:#000000;stroke-width:0.5486;stroke-miterlimit:10;}
	.st13{fill:#FFFFFF;}
	.st14{fill:#FCE9D9;stroke:#231F20;stroke-width:0.5486;stroke-linecap:round;stroke-linejoin:round;stroke-miterlimit:10;}
	.st15{fill:#3D70B8;stroke:#231F20;stroke-width:0.5486;stroke-linecap:round;stroke-linejoin:round;stroke-miterlimit:10;}
	.st16{fill:#FFFFFF;stroke:#231F20;stroke-width:0.5486;stroke-miterlimit:10;}
	.st17{fill:#3D70B8;stroke:#231F20;stroke-width:0.5486;stroke-miterlimit:10;}
	.st18{fill:#3D70B8;}
	.st19{fill:none;stroke:#FFFFFF;stroke-width:0.5486;stroke-linecap:round;stroke-linejoin:round;stroke-miterlimit:10;}
	.st20{fill:#73C4D1;}
	.st21{fill:#3D70B8;stroke:#231F20;stroke-width:0.4512;stroke-miterlimit:10;}
	.st22{fill:#759CD1;stroke:#231F20;stroke-width:0.9024;stroke-miterlimit:10;}
	.st23{fill:#FFD7BA;stroke:#231F20;stroke-width:0.5986;stroke-linecap:round;stroke-linejoin:round;stroke-miterlimit:10;}
	.st24{fill:#15ADE0;stroke:#231F20;stroke-width:0.4512;stroke-miterlimit:10;}
	.st25{fill:#1D3557;}
	.st26{fill:#434C5E;}
	.st27{fill:#F8F9FA;stroke:#CED4DA;stroke-miterlimit:10;}
	.st28{fill:none;stroke:#D6D6D6;stroke-width:0.5658;stroke-miterlimit:10;}
	.st29{fill:#F3F4F6;}
	.st30{fill:#ECEFF4;}
	.st31{fill:#3978FE;}
	.st32{fill:#C7EDFA;}
	.st33{fill:#37BE5D;}
	.st34{fill:#F5F6F6;stroke:#B3B3B3;stroke-width:0.5612;stroke-miterlimit:10;}
	.st35{fill:#FFFFFF;stroke:#D6D6D6;stroke-width:0.5629;stroke-miterlimit:10;}
	.st36{fill:#FFFFFF;stroke:#D6D6D6;stroke-width:0.5612;stroke-miterlimit:10;}
	.st37{fill:#FFFFFF;stroke:#D6D6D6;stroke-width:0.5613;stroke-miterlimit:10;}
	.st38{fill:#FAD643;}
	.st39{fill:none;stroke:#D6D6D6;stroke-width:1.1224;stroke-miterlimit:10;}
	.st40{fill:#D6D6D6;}
	.st41{fill:#DEE2E6;}
	.st42{fill:#EB5C68;}
	.st43{fill:#F7F6F1;stroke:#212529;stroke-width:1.1802;stroke-miterlimit:10;}
	.st44{fill:#C9C9C4;}
	.st45{fill:#E94957;stroke:#212529;stroke-width:1.1802;stroke-miterlimit:10;}
	.st46{fill:#1D3557;stroke:#212529;stroke-width:1.1802;stroke-miterlimit:10;}
	.st47{fill:#335D99;stroke:#212529;stroke-width:1.1802;stroke-miterlimit:10;}
	.st48{fill:#ADB5BD;stroke:#212529;stroke-width:1.1802;stroke-miterlimit:10;}
	.st49{fill:#ADB5BD;stroke:#000000;stroke-miterlimit:10;}
	.st50{fill:none;stroke:#212529;stroke-width:1.1802;stroke-miterlimit:10;}
	.st51{fill:#335D99;}
	.st52{fill:#ADB5BD;}
	.st53{fill:#457B9D;stroke:#212529;stroke-width:1.354;stroke-miterlimit:10;}
	.st54{fill:#F8C8A0;stroke:#212529;stroke-width:1.354;stroke-miterlimit:10;}
	.st55{fill:#FFFFFF;stroke:#212529;stroke-width:1.354;stroke-miterlimit:10;}
	.st56{fill:#05173E;}
	.st57{fill:#EB5C68;stroke:#212529;stroke-width:1.354;stroke-miterlimit:10;}
	.st58{fill:#FFF8F3;}
	.st59{fill:#FAD643;stroke:#212529;stroke-width:1.354;stroke-miterlimit:10;}
	.st60{fill:#FFF8F3;stroke:#212529;stroke-width:1.354;stroke-miterlimit:10;}
	.st61{fill:#F7A491;}
	.st62{fill:#6C757D;stroke:#212529;stroke-width:1.354;stroke-miterlimit:10;}
	.st63{fill:#37BE5D;stroke:#212529;stroke-width:1.354;stroke-miterlimit:10;}
	.st64{fill:#BEE1E6;stroke:#212529;stroke-width:1.354;stroke-miterlimit:10;}
	.st65{fill:#212529;}
	.st66{fill:none;stroke:#212529;stroke-width:1.354;stroke-miterlimit:10;}
	.st67{fill:#F4A261;}
	.st68{fill:#15ADE0;}
</style>
<g>
	<path class="st27" d="M1000.8,451.3H291.6c-2.5,0-4.5-2-4.5-4.5V29.2c0-2.5,2-4.5,4.5-4.5h709.2c2.5,0,4.5,2,4.5,4.5v417.6
		C1005.3,449.3,1003.3,451.3,1000.8,451.3z"/>
	<path class="st13" d="M1005.3,66.9H287.1V29c0-2.3,1.9-4.2,4.2-4.2h709.7c2.3,0,4.2,1.9,4.2,4.2V66.9z"/>
	<g>
		<line class="st28" x1="298.3" y1="111.8" x2="971.7" y2="111.8"/>
		<g>
			<path class="st29" d="M968.2,190.3H301.6c-1.9,0-3.4-1.5-3.4-3.4v-60.6c0-1.9,1.5-3.4,3.4-3.4h666.6c1.9,0,3.4,1.5,3.4,3.4v60.6
				C971.6,188.7,970.1,190.3,968.2,190.3z"/>
			<path class="st13" d="M388,156.6v-33.7h-86.4c-1.9,0-3.4,1.5-3.4,3.4v30.3v30.3c0,1.9,1.5,3.4,3.4,3.4h666.6
				c1.9,0,3.4-1.5,3.4-3.4v-30.3H388z"/>
		</g>
		<path class="st30" d="M965.6,440.8H304c-3.2,0-5.8-2.6-5.8-5.8V244.6c0-3.2,2.6-5.8,5.8-5.8h661.7c3.2,0,5.8,2.6,5.8,5.8V435
			C971.5,438.2,968.9,440.8,965.6,440.8z"/>
		<path class="st30" d="M370.3,111.6h-71.8V86.9c0-1.2,1-2.2,2.2-2.2h67.3c1.2,0,2.2,1,2.2,2.2V111.6z"/>
		<g>
			<path class="st5" d="M311.8,102.3c-1.6,0-2.7-0.9-2.7-2.2h1.1c0.1,0.7,0.5,1.3,1.6,1.3c1,0,1.6-0.6,1.6-1.3
				c0-2.1-4.2-0.8-4.2-3.7c0-1.3,1-2.2,2.6-2.2c1.5,0,2.5,0.8,2.6,2h-1.1c-0.1-0.5-0.6-1.1-1.5-1.1c-0.8,0-1.5,0.4-1.5,1.3
				c0,2,4.2,0.8,4.2,3.7C314.4,101.2,313.5,102.3,311.8,102.3z"/>
			<path class="st5" d="M321.4,102.2h-1v-0.9c-0.4,0.6-1.1,1-2,1c-1.4,0-2.5-0.9-2.5-2.6v-3.6h1v3.5c0,1.2,0.7,1.9,1.7,1.9
				c1.1,0,1.8-0.7,1.8-2v-3.4h1V102.2z"/>
			<path class="st5" d="M332,98.8c0-1.3-0.7-1.9-1.7-1.9c-1,0-1.7,0.7-1.7,2v3.4h-1v-3.5c0-1.3-0.7-1.9-1.7-1.9c-1,0-1.7,0.7-1.7,2
				v3.4h-1v-6.2h1V97c0.4-0.7,1.1-1,1.9-1c1,0,1.9,0.4,2.3,1.4c0.4-0.9,1.2-1.4,2.2-1.4c1.4,0,2.5,0.9,2.5,2.6v3.6h-1V98.8z"/>
			<path class="st5" d="M343.5,98.8c0-1.3-0.7-1.9-1.7-1.9c-1,0-1.7,0.7-1.7,2v3.4h-1v-3.5c0-1.3-0.7-1.9-1.7-1.9
				c-1,0-1.7,0.7-1.7,2v3.4h-1v-6.2h1V97c0.4-0.7,1.1-1,1.9-1c1,0,1.9,0.4,2.3,1.4c0.4-0.9,1.2-1.4,2.2-1.4c1.4,0,2.5,0.9,2.5,2.6
				v3.6h-1V98.8z"/>
			<path class="st5" d="M348.7,96c1.1,0,1.9,0.6,2.3,1.2v-1.1h1v6.2h-1v-1.1c-0.4,0.7-1.2,1.2-2.3,1.2c-1.6,0-2.9-1.3-2.9-3.2
				C345.8,97.2,347.1,96,348.7,96z M348.9,96.9c-1.1,0-2.1,0.8-2.1,2.3s1,2.3,2.1,2.3c1.1,0,2.1-0.8,2.1-2.3
				C351,97.7,350.1,96.9,348.9,96.9z"/>
			<path class="st5" d="M354.8,102.2h-1v-6.2h1v1c0.3-0.7,1-1.1,2-1.1V97h-0.3c-1,0-1.7,0.4-1.7,1.9V102.2z"/>
			<path class="st5" d="M362.2,96.1h1.1l-3.7,9.1h-1.1l1.2-3l-2.5-6.1h1.1l1.9,5L362.2,96.1z"/>
		</g>
		<g>
			<path class="st31" d="M385.1,93.9c1.8,0,2.7,1,2.7,2.3c0,1-0.5,2-1.9,2.2l2,3.3h-1.2l-1.9-3.2h-1.2v3.2h-1v-7.8H385.1z
				 M385.1,94.8h-1.5v3h1.5c1.2,0,1.7-0.6,1.7-1.5C386.8,95.4,386.3,94.8,385.1,94.8z"/>
			<path class="st31" d="M392.1,101.9c-1.7,0-3-1.2-3-3.2c0-1.9,1.2-3.2,3-3.2c1.8,0,2.9,1.3,2.9,2.9c0,0.2,0,0.4,0,0.6h-4.9
				c0.1,1.2,1,1.9,2,1.9c0.9,0,1.5-0.5,1.7-1.1h1.1C394.6,101,393.6,101.9,392.1,101.9z M390.1,98.2h3.9c0-1.2-0.9-1.9-1.9-1.9
				C391.1,96.4,390.2,97,390.1,98.2z"/>
			<path class="st31" d="M398.6,101.9c-1.4,0-2.4-0.8-2.5-1.9h1.1c0.1,0.6,0.6,1,1.4,1c0.8,0,1.3-0.4,1.3-0.9c0-1.4-3.6-0.6-3.6-2.9
				c0-0.9,0.9-1.7,2.3-1.7c1.4,0,2.3,0.7,2.3,1.9h-1c0-0.6-0.5-1.1-1.3-1.1c-0.8,0-1.2,0.4-1.2,0.9c0,1.5,3.6,0.7,3.6,2.9
				C400.8,101.1,399.9,101.9,398.6,101.9z"/>
			<path class="st31" d="M405.6,95.5c1.6,0,2.9,1.2,2.9,3.2c0,1.9-1.3,3.2-2.9,3.2c-1.1,0-1.9-0.6-2.3-1.2v4.1h-1v-9.1h1v1.1
				C403.6,96.1,404.5,95.5,405.6,95.5z M405.4,96.4c-1.1,0-2.1,0.9-2.1,2.3c0,1.4,1,2.3,2.1,2.3c1.1,0,2.1-0.9,2.1-2.3
				S406.5,96.4,405.4,96.4z"/>
			<path class="st31" d="M412.5,101.9c-1.7,0-3.1-1.2-3.1-3.2c0-1.9,1.4-3.2,3.1-3.2c1.8,0,3.1,1.2,3.1,3.2
				C415.7,100.6,414.3,101.9,412.5,101.9z M412.5,101c1.1,0,2.1-0.7,2.1-2.3c0-1.5-1-2.3-2.1-2.3c-1.1,0-2.1,0.7-2.1,2.3
				C410.5,100.2,411.5,101,412.5,101z"/>
			<path class="st31" d="M421.5,98.3c0-1.3-0.7-1.9-1.7-1.9c-1,0-1.8,0.7-1.8,2v3.4h-1v-6.2h1v0.9c0.4-0.6,1.1-1,2-1
				c1.4,0,2.5,0.9,2.5,2.6v3.6h-1V98.3z"/>
			<path class="st31" d="M426.4,101.9c-1.4,0-2.4-0.8-2.5-1.9h1.1c0.1,0.6,0.6,1,1.4,1c0.8,0,1.3-0.4,1.3-0.9c0-1.4-3.6-0.6-3.6-2.9
				c0-0.9,0.9-1.7,2.3-1.7c1.4,0,2.3,0.7,2.3,1.9h-1c0-0.6-0.5-1.1-1.3-1.1c-0.8,0-1.2,0.4-1.2,0.9c0,1.5,3.6,0.7,3.6,2.9
				C428.6,101.1,427.7,101.9,426.4,101.9z"/>
			<path class="st31" d="M432.7,101.9c-1.7,0-3-1.2-3-3.2c0-1.9,1.2-3.2,3-3.2c1.8,0,2.9,1.3,2.9,2.9c0,0.2,0,0.4,0,0.6h-4.9
				c0.1,1.2,1,1.9,2,1.9c0.9,0,1.5-0.5,1.7-1.1h1.1C435.2,101,434.2,101.9,432.7,101.9z M430.7,98.2h3.9c0-1.2-0.9-1.9-1.9-1.9
				C431.7,96.4,430.9,97,430.7,98.2z"/>
			<path class="st31" d="M439.2,101.9c-1.4,0-2.4-0.8-2.5-1.9h1.1c0.1,0.6,0.6,1,1.4,1c0.8,0,1.3-0.4,1.3-0.9c0-1.4-3.6-0.6-3.6-2.9
				c0-0.9,0.9-1.7,2.3-1.7c1.4,0,2.3,0.7,2.3,1.9h-1c0-0.6-0.5-1.1-1.3-1.1c-0.8,0-1.2,0.4-1.2,0.9c0,1.5,3.6,0.7,3.6,2.9
				C441.4,101.1,440.6,101.9,439.2,101.9z"/>
		</g>
		<g>
			<path class="st5" d="M316.4,137.2c0,2.4-1.6,3.9-4.2,3.9h-2.4v-7.8h2.4C314.8,133.2,316.4,134.7,316.4,137.2z M312.3,140.2
				c2,0,3.1-1.1,3.1-3.1s-1.1-3.1-3.1-3.1h-1.4v6.2H312.3z"/>
			<path class="st5" d="M320.4,141.2c-1.7,0-3-1.2-3-3.2c0-1.9,1.2-3.2,3-3.2c1.8,0,2.9,1.3,2.9,2.9c0,0.2,0,0.4,0,0.6h-4.9
				c0.1,1.2,1,1.9,2,1.9c0.9,0,1.5-0.5,1.7-1.1h1.1C323,140.3,322,141.2,320.4,141.2z M318.5,137.5h3.9c0-1.2-0.9-1.9-1.9-1.9
				C319.4,135.7,318.6,136.3,318.5,137.5z"/>
			<path class="st5" d="M326.9,141.2c-1.4,0-2.4-0.8-2.5-1.9h1.1c0.1,0.6,0.6,1,1.4,1c0.8,0,1.3-0.4,1.3-0.9c0-1.4-3.6-0.6-3.6-2.9
				c0-0.9,0.9-1.7,2.3-1.7c1.4,0,2.3,0.7,2.3,1.9h-1c0-0.6-0.5-1.1-1.3-1.1c-0.8,0-1.2,0.4-1.2,0.9c0,1.5,3.6,0.7,3.6,2.9
				C329.2,140.4,328.3,141.2,326.9,141.2z"/>
			<path class="st5" d="M333.2,134.8c1.5,0,2.5,0.8,2.8,2.1h-1.1c-0.2-0.7-0.8-1.2-1.7-1.2c-1.1,0-2,0.8-2,2.3c0,1.5,0.8,2.3,2,2.3
				c0.9,0,1.5-0.4,1.7-1.2h1.1c-0.3,1.2-1.3,2.1-2.8,2.1c-1.7,0-3-1.2-3-3.2C330.2,136,331.5,134.8,333.2,134.8z"/>
			<path class="st5" d="M338.4,141.1h-1v-6.2h1v1c0.3-0.7,1-1.1,2-1.1v1.1h-0.3c-1,0-1.7,0.4-1.7,1.9V141.1z"/>
			<path class="st5" d="M341.4,133.2c0-0.4,0.3-0.7,0.7-0.7c0.4,0,0.7,0.3,0.7,0.7s-0.3,0.7-0.7,0.7
				C341.7,133.9,341.4,133.6,341.4,133.2z M341.6,134.9h1v6.2h-1V134.9z"/>
			<path class="st5" d="M347.7,134.8c1.6,0,2.9,1.2,2.9,3.2c0,1.9-1.3,3.2-2.9,3.2c-1.1,0-1.9-0.6-2.3-1.2v4.1h-1v-9.1h1v1.1
				C345.7,135.4,346.6,134.8,347.7,134.8z M347.5,135.7c-1.1,0-2.1,0.9-2.1,2.3c0,1.4,1,2.3,2.1,2.3c1.1,0,2.1-0.9,2.1-2.3
				S348.6,135.7,347.5,135.7z"/>
			<path class="st5" d="M352.2,135.7h-0.8v-0.8h0.8v-1.5h1v1.5h1.6v0.8h-1.6v3.6c0,0.6,0.2,0.8,0.9,0.8h0.8v0.9h-0.9
				c-1.1,0-1.7-0.4-1.7-1.7V135.7z"/>
			<path class="st5" d="M355.9,133.2c0-0.4,0.3-0.7,0.7-0.7c0.4,0,0.7,0.3,0.7,0.7s-0.3,0.7-0.7,0.7
				C356.2,133.9,355.9,133.6,355.9,133.2z M356,134.9h1v6.2h-1V134.9z"/>
			<path class="st5" d="M361.5,141.2c-1.7,0-3.1-1.2-3.1-3.2c0-1.9,1.4-3.2,3.1-3.2c1.8,0,3.1,1.2,3.1,3.2
				C364.6,139.9,363.2,141.2,361.5,141.2z M361.5,140.3c1.1,0,2.1-0.7,2.1-2.3c0-1.5-1-2.3-2.1-2.3c-1.1,0-2.1,0.7-2.1,2.3
				C359.4,139.5,360.4,140.3,361.5,140.3z"/>
			<path class="st5" d="M370.5,137.6c0-1.3-0.7-1.9-1.7-1.9c-1,0-1.8,0.7-1.8,2v3.4h-1v-6.2h1v0.9c0.4-0.6,1.1-1,2-1
				c1.4,0,2.5,0.9,2.5,2.6v3.6h-1V137.6z"/>
		</g>
		<path class="st32" d="M867.9,176.4H313.5c-1.9,0-3.4-1.5-3.4-3.4v0c0-1.9,1.5-3.4,3.4-3.4h554.4c1.9,0,3.4,1.5,3.4,3.4v0
			C871.2,174.9,869.7,176.4,867.9,176.4z"/>
		<g>
			<path class="st5" d="M314.5,218.4h1.1l-2.9,7.8h-1.2l-2.9-7.8h1.1l2.5,6.7L314.5,218.4z"/>
			<path class="st5" d="M316.5,218.4c0-0.4,0.3-0.7,0.7-0.7c0.4,0,0.7,0.3,0.7,0.7s-0.3,0.7-0.7,0.7
				C316.8,219,316.5,218.7,316.5,218.4z M316.7,220h1v6.2h-1V220z"/>
			<path class="st5" d="M322,219.9c1,0,1.9,0.5,2.3,1.2v-3.3h1v8.3h-1V225c-0.4,0.7-1.2,1.3-2.3,1.3c-1.6,0-2.9-1.3-2.9-3.2
				C319.1,221.2,320.4,219.9,322,219.9z M322.2,220.8c-1.1,0-2.1,0.8-2.1,2.3s1,2.3,2.1,2.3c1.1,0,2.1-0.8,2.1-2.3
				C324.3,221.7,323.3,220.8,322.2,220.8z"/>
			<path class="st5" d="M329.7,226.3c-1.7,0-3-1.2-3-3.2c0-1.9,1.2-3.2,3-3.2c1.8,0,2.9,1.3,2.9,2.9c0,0.2,0,0.4,0,0.6h-4.9
				c0.1,1.2,1,1.9,2,1.9c0.9,0,1.5-0.5,1.7-1.1h1.1C332.2,225.4,331.2,226.3,329.7,226.3z M327.7,222.7h3.9c0-1.2-0.9-1.9-1.9-1.9
				C328.7,220.8,327.8,221.5,327.7,222.7z"/>
			<path class="st5" d="M336.7,226.3c-1.7,0-3.1-1.2-3.1-3.2c0-1.9,1.4-3.2,3.1-3.2c1.8,0,3.1,1.2,3.1,3.2
				C339.8,225.1,338.4,226.3,336.7,226.3z M336.7,225.4c1.1,0,2.1-0.7,2.1-2.3c0-1.5-1-2.3-2.1-2.3c-1.1,0-2.1,0.7-2.1,2.3
				C334.7,224.7,335.6,225.4,336.7,225.4z"/>
		</g>
		<path class="st32" d="M710.7,52.9H313.3c-1.8,0-3.3-1.5-3.3-3.3v-2.4c0-1.8,1.5-3.3,3.3-3.3h397.4c1.8,0,3.3,1.5,3.3,3.3v2.4
			C714,51.5,712.5,52.9,710.7,52.9z"/>
		<g>
			<path class="st33" d="M933.2,59.9h-86.5c-0.9,0-1.6-0.7-1.6-1.6V33.6c0-0.9,0.7-1.6,1.6-1.6h86.6c0.9,0,1.6,0.7,1.6,1.6v24.7
				C934.8,59.2,934.1,59.9,933.2,59.9z"/>
			<g>
				<path class="st5" d="M857.2,46h-1.5v3.3h-1v-7.8h2.5c1.8,0,2.7,1,2.7,2.3C859.9,44.9,859.1,46,857.2,46z M857.2,45.2
					c1.2,0,1.7-0.6,1.7-1.4c0-0.9-0.5-1.4-1.7-1.4h-1.5v2.9H857.2z"/>
				<path class="st5" d="M866.6,49.3h-1v-0.9c-0.4,0.6-1.1,1-2,1c-1.4,0-2.5-0.9-2.5-2.6v-3.6h1v3.5c0,1.2,0.7,1.9,1.7,1.9
					c1.1,0,1.8-0.7,1.8-2v-3.4h1V49.3z"/>
				<path class="st5" d="M871.6,43c1.7,0,2.9,1.2,2.9,3.2c0,1.9-1.3,3.2-2.9,3.2c-1.1,0-1.9-0.6-2.3-1.2v1.1h-1V41h1v3.3
					C869.7,43.6,870.6,43,871.6,43z M871.4,43.9c-1.1,0-2.1,0.9-2.1,2.3c0,1.4,1,2.3,2.1,2.3c1.1,0,2.1-0.9,2.1-2.3
					S872.6,43.9,871.4,43.9z"/>
				<path class="st5" d="M875.9,41h1v8.3h-1V41z"/>
				<path class="st5" d="M878.5,41.4c0-0.4,0.3-0.7,0.7-0.7c0.4,0,0.7,0.3,0.7,0.7s-0.3,0.7-0.7,0.7
					C878.8,42.1,878.5,41.8,878.5,41.4z M878.7,43.1h1v6.2h-1V43.1z"/>
				<path class="st5" d="M883.6,49.4c-1.4,0-2.4-0.8-2.5-1.9h1.1c0.1,0.6,0.6,1,1.4,1c0.8,0,1.3-0.4,1.3-0.9c0-1.4-3.6-0.6-3.6-2.9
					c0-0.9,0.9-1.7,2.3-1.7c1.4,0,2.3,0.7,2.3,1.9h-1c0-0.6-0.5-1.1-1.3-1.1c-0.8,0-1.2,0.4-1.2,0.9c0,1.5,3.6,0.7,3.6,2.9
					C885.9,48.6,885,49.4,883.6,49.4z"/>
				<path class="st5" d="M887.3,41h1v3c0.4-0.7,1.2-1,2-1c1.4,0,2.5,0.9,2.5,2.6v3.6h-1v-3.5c0-1.3-0.7-1.9-1.7-1.9
					c-1,0-1.8,0.7-1.8,2v3.4h-1V41z"/>
				<path class="st5" d="M897.1,49.4c-1.7,0-3-1.2-3-3.2c0-1.9,1.2-3.2,3-3.2c1.8,0,2.9,1.3,2.9,2.9c0,0.2,0,0.4,0,0.6h-4.9
					c0.1,1.2,1,1.9,2,1.9c0.9,0,1.5-0.5,1.7-1.1h1.1C899.6,48.5,898.7,49.4,897.1,49.4z M895.1,45.7h3.9c0-1.2-0.9-1.9-1.9-1.9
					C896.1,43.9,895.3,44.5,895.1,45.7z"/>
				<path class="st5" d="M904,43c1,0,1.9,0.5,2.3,1.2V41h1v8.3h-1v-1.2c-0.4,0.7-1.2,1.3-2.3,1.3c-1.6,0-2.9-1.3-2.9-3.2
					C901.1,44.2,902.3,43,904,43z M904.2,43.9c-1.1,0-2.1,0.8-2.1,2.3s1,2.3,2.1,2.3c1.1,0,2.1-0.8,2.1-2.3
					C906.3,44.8,905.3,43.9,904.2,43.9z"/>
			</g>
			<path id="angle-down-2_00000181781998017049026620000012695365942692851362_" class="st5" d="M921.7,48.1l-5-5
				c-0.2-0.2-0.2-0.5,0-0.7c0,0,0,0,0,0L917,42c0.2-0.2,0.5-0.2,0.7,0c0,0,0,0,0,0l4.3,4.4l4.3-4.4c0.2-0.2,0.5-0.2,0.7,0
				c0,0,0,0,0,0l0.3,0.3c0.2,0.2,0.2,0.5,0,0.7c0,0,0,0,0,0l-5,5C922.2,48.3,921.9,48.3,921.7,48.1z"/>
		</g>
		<g>
			<path class="st30" d="M972.4,59.9h-26c-0.3,0-0.5-0.7-0.5-1.6V33.7c0-0.9,0.2-1.6,0.5-1.6h26c0.3,0,0.5,0.7,0.5,1.6v24.7
				C972.9,59.2,972.7,59.9,972.4,59.9z"/>
			<path class="st5" d="M959.4,44.7c0.8,0,1.4,0.6,1.4,1.4s-0.6,1.4-1.4,1.4c-0.8,0-1.4-0.6-1.4-1.4C958,45.3,958.7,44.7,959.4,44.7
				z M958,40.8c0,0.8,0.6,1.4,1.4,1.4c0.8,0,1.4-0.6,1.4-1.4c0-0.8-0.6-1.4-1.4-1.4C958.7,39.3,958,40,958,40.8z M958,51.4
				c0,0.8,0.6,1.4,1.4,1.4c0.8,0,1.4-0.6,1.4-1.4c0-0.8-0.6-1.4-1.4-1.4C958.7,50,958,50.6,958,51.4z"/>
		</g>
	</g>
	<g>
		<path class="st34" d="M660.1,102.4h327.7c2.5,0,4.5,1.8,4.5,4.1v328.6c0,2.3-2,4.1-4.5,4.1H660.1c-2.5,0-4.5-1.8-4.5-4.1V106.5
			C655.7,104.2,657.7,102.4,660.1,102.4z"/>
		<rect id="Rectangle_8-2" x="947.4" y="111.4" class="st13" width="41.5" height="325.5"/>
		<g>
			<path id="Rectangle_9" class="st31" d="M965.3,121.5h12.3c3.7,0,6.7,3,6.7,6.7v19.1c0,3.7-3,6.7-6.7,6.7h-12.3
				c-3.7,0-6.7-3-6.7-6.7v-19.1C958.5,124.5,961.6,121.5,965.3,121.5z"/>
			<path id="street-view" class="st13" d="M973.7,141.4v0.9c1.9,0.3,3.1,0.7,3.1,1.2c0,0.8-2.9,1.4-6.4,1.4s-6.4-0.6-6.4-1.4
				c0-0.5,1.2-1,3.1-1.2v-0.9c-2.5,0.4-4.3,1.2-4.3,2.1c0,1.3,3.4,2.4,7.6,2.4s7.6-1.1,7.6-2.4C978,142.6,976.2,141.7,973.7,141.4z
				 M968,140.2v2.4c0,0.8,0.6,1.4,1.4,1.4h1.9c0.8,0,1.4-0.6,1.4-1.4v-2.4c0.8,0,1.4-0.6,1.4-1.4c0,0,0,0,0,0v-1.9
				c0-1-0.6-1.9-1.6-2.2c0.2-0.4,0.4-0.9,0.4-1.3c0-1.4-1.1-2.6-2.6-2.7s-2.6,1.1-2.7,2.6c0,0,0,0.1,0,0.1c0,0.5,0.1,0.9,0.4,1.3
				c-0.9,0.3-1.6,1.2-1.6,2.2v1.9C966.6,139.5,967.2,140.2,968,140.2z M970.4,131.6c0.9,0,1.7,0.7,1.7,1.7s-0.7,1.7-1.7,1.7
				c-0.9,0-1.7-0.7-1.7-1.7C968.7,132.3,969.5,131.6,970.4,131.6C970.4,131.6,970.4,131.6,970.4,131.6z M967.5,136.8
				c0-0.8,0.6-1.4,1.4-1.4c0.9,0.6,2.1,0.6,3,0c0.8,0,1.4,0.7,1.4,1.4v1.9c0,0.3-0.2,0.5-0.5,0.5l0,0h-1v3.3c0,0.3-0.2,0.5-0.5,0.5
				l0,0h-1.9c-0.3,0-0.5-0.2-0.5-0.5l0,0v-3.3h-1c-0.3,0-0.5-0.2-0.5-0.5l0,0L967.5,136.8z"/>
		</g>
		<path id="info-square" class="st5" d="M976.9,181.1H966c-0.8,0-1.5,0.7-1.5,1.5l0,0v10.9c0,0.8,0.7,1.5,1.5,1.5l0,0h10.9
			c0.8,0,1.5-0.7,1.5-1.5l0,0v-10.9C978.4,181.8,977.7,181.1,976.9,181.1L976.9,181.1z M977.4,193.5c0,0.3-0.2,0.5-0.5,0.5H966
			c-0.3,0-0.5-0.2-0.5-0.5v-10.9c0-0.3,0.2-0.5,0.5-0.5h10.9c0.3,0,0.5,0.2,0.5,0.5V193.5z M970.3,191h0.4v-3.7h-0.4
			c-0.2,0-0.4-0.2-0.4-0.4l0,0v-0.2c0-0.2,0.2-0.4,0.4-0.4l0,0h1.5c0.2,0,0.4,0.2,0.4,0.4l0,0v4.3h0.4c0.2,0,0.4,0.2,0.4,0.4l0,0
			v0.2c0,0.2-0.2,0.4-0.4,0.4l0,0h-2.2c-0.2,0-0.4-0.2-0.4-0.4l0,0v-0.2C970,191.2,970.1,191,970.3,191L970.3,191L970.3,191z
			 M971.5,183.6c-0.5,0-1,0.4-1,1s0.4,1,1,1c0.5,0,1-0.4,1-1l0,0C972.4,184,972,183.6,971.5,183.6L971.5,183.6z"/>
		<path id="analytics" class="st5" d="M966.4,290.9h-1.5c-0.2,0-0.4,0.2-0.4,0.4c0,0,0,0,0,0v3.1c0,0.2,0.2,0.4,0.4,0.4l0,0h1.5
			c0.2,0,0.4-0.2,0.4-0.4l0,0v-3.1C966.8,291.1,966.7,290.9,966.4,290.9C966.4,290.9,966.4,290.9,966.4,290.9z M966.1,294h-0.8v-2.3
			h0.8L966.1,294z M978,287.1h-1.5c-0.2,0-0.4,0.2-0.4,0.4l0,0v6.9c0,0.2,0.2,0.4,0.4,0.4l0,0h1.5c0.2,0,0.4-0.2,0.4-0.4l0,0v-6.9
			C978.4,287.2,978.2,287.1,978,287.1L978,287.1z M977.6,294h-0.8v-6.2h0.8V294z M976.6,284.6c0.5,0.3,1.3,0.2,1.6-0.4
			c0.3-0.5,0.2-1.3-0.4-1.6s-1.3-0.2-1.6,0.4c-0.1,0.2-0.2,0.4-0.2,0.6c0,0.1,0,0.3,0.1,0.4l-2.2,1.7c-0.4-0.2-0.8-0.2-1.2,0
			l-2.2-1.7c0-0.1,0.1-0.2,0.1-0.4c0-0.6-0.5-1.2-1.1-1.2c-0.6,0-1.2,0.5-1.2,1.1c0,0.2,0,0.4,0.1,0.5l-2.3,2.3
			c-0.6-0.3-1.3,0-1.5,0.5c-0.3,0.6,0,1.3,0.5,1.5c0.6,0.3,1.3,0,1.5-0.5c0.1-0.2,0.1-0.3,0.1-0.5c0-0.2,0-0.3-0.1-0.5l2.3-2.3
			c0.4,0.2,0.8,0.1,1.1-0.1l2.2,1.7c-0.2,0.6,0.1,1.3,0.7,1.5c0.6,0.2,1.3-0.1,1.5-0.7c0.1-0.3,0.1-0.5,0-0.8L976.6,284.6z
			 M977.2,283.2c0.2,0,0.4,0.2,0.4,0.4s-0.2,0.4-0.4,0.4s-0.4-0.2-0.4-0.4C976.8,283.4,977,283.2,977.2,283.2z M965.7,287.8
			c-0.2,0-0.4-0.2-0.4-0.4s0.2-0.4,0.4-0.4s0.4,0.2,0.4,0.4l0,0C966.1,287.7,965.9,287.8,965.7,287.8z M969.5,284
			c-0.2,0-0.4-0.2-0.4-0.4s0.2-0.4,0.4-0.4s0.4,0.2,0.4,0.4l0,0C969.9,283.8,969.7,284,969.5,284z M973.4,287.1
			c-0.2,0-0.4-0.2-0.4-0.4s0.2-0.4,0.4-0.4s0.4,0.2,0.4,0.4l0,0C973.8,286.9,973.6,287.1,973.4,287.1z M970.3,287.1h-1.5
			c-0.2,0-0.4,0.2-0.4,0.4v6.9c0,0.2,0.2,0.4,0.4,0.4l0,0h1.5c0.2,0,0.4-0.2,0.4-0.4l0,0v-6.9C970.7,287.2,970.5,287.1,970.3,287.1
			L970.3,287.1z M969.9,294h-0.8v-6.2h0.8L969.9,294z M974.2,290.1h-1.5c-0.2,0-0.4,0.2-0.4,0.4v3.9c0,0.2,0.2,0.4,0.4,0.4l0,0h1.5
			c0.2,0,0.4-0.2,0.4-0.4l0,0v-3.9C974.5,290.3,974.4,290.1,974.2,290.1C974.2,290.1,974.2,290.1,974.2,290.1z M973.8,294H973v-3.1
			h0.8V294z"/>
		<path class="st5" d="M976.9,334l-2.6-2.6c-0.3-0.3-0.7-0.4-1-0.4H967c-0.8,0-1.5,0.7-1.5,1.5v12.8c0,0.8,0.7,1.5,1.5,1.5h8.8
			c0.8,0,1.5-0.7,1.5-1.5v-10.2C977.3,334.7,977.2,334.3,976.9,334z M976.2,334.7c0.1,0.1,0.1,0.1,0.1,0.2h-2.9V332
			c0.1,0,0.2,0.1,0.2,0.1L976.2,334.7z M975.9,345.8H967c-0.3,0-0.5-0.2-0.5-0.5v-12.8c0-0.3,0.2-0.5,0.5-0.5h5.4v3.2
			c0,0.4,0.3,0.7,0.7,0.7h3.2v9.3C976.4,345.5,976.1,345.8,975.9,345.8z M974.4,338.3v0.2c0,0.2-0.2,0.4-0.4,0.4h-5.2
			c-0.2,0-0.4-0.2-0.4-0.4v-0.2c0-0.2,0.2-0.4,0.4-0.4h5.2C974.2,337.9,974.4,338.1,974.4,338.3z M974.4,340.2v0.2
			c0,0.2-0.2,0.4-0.4,0.4h-5.2c-0.2,0-0.4-0.2-0.4-0.4v-0.2c0-0.2,0.2-0.4,0.4-0.4h5.2C974.2,339.9,974.4,340,974.4,340.2z
			 M974.4,342.2v0.2c0,0.2-0.2,0.4-0.4,0.4h-5.2c-0.2,0-0.4-0.2-0.4-0.4v-0.2c0-0.2,0.2-0.4,0.4-0.4h5.2
			C974.2,341.8,974.4,342,974.4,342.2z"/>
		<path class="st5" d="M976.1,232.4h0.1c0.2,0,0.3-0.1,0.3-0.3v-0.2c0-0.2-0.1-0.3-0.3-0.3h-9.5c-0.2,0-0.3,0.1-0.3,0.3v0.2
			c0,0.2,0.1,0.3,0.3,0.3h0.1c0,2.4,1.2,5.1,3.4,5.9c-2.3,0.8-3.4,3.5-3.4,5.9h-0.1c-0.2,0-0.3,0.1-0.3,0.3v0.2
			c0,0.2,0.1,0.3,0.3,0.3h9.5c0.2,0,0.3-0.1,0.3-0.3v-0.2c0-0.2-0.1-0.3-0.3-0.3h-0.1c0-2.4-1.2-5.1-3.4-5.9
			C974.9,237.5,976.1,234.8,976.1,232.4z M967.7,232.4h7.6c0,2.9-1.7,5.3-3.8,5.3C969.4,237.7,967.7,235.3,967.7,232.4z"/>
		<g id="Path_102">
			<path class="st5" d="M682.7,126.8c0.1-2.6-2-4.7-4.6-4.8c-0.1,0-0.2,0-0.2,0c-2.6-0.1-4.8,2-4.8,4.6c0,0.1,0,0.1,0,0.2
				c-0.1,2.6,2,4.8,4.6,4.8c0.1,0,0.1,0,0.2,0c2.6,0.1,4.7-2,4.8-4.6C682.7,126.9,682.7,126.9,682.7,126.8z M675,126.8
				c-0.2-1.6,1-2.9,2.5-3.1c0.1,0,0.2,0,0.4,0c1.6,0,2.8,1.2,2.9,2.8c0,0.1,0,0.2,0,0.4c0.2,1.6-1,3-2.5,3.1c-0.1,0-0.2,0-0.3,0
				c-1.6,0-2.9-1.2-2.9-2.8C674.9,127,675,126.9,675,126.8z M689.3,131.5h1.9v-4.4c0.2-1.6-1-3-2.5-3.2c-0.1,0-0.3,0-0.4,0
				c-0.9,0-1.7,0.4-2.2,1v-0.9h-1.9v7.5h1.9v-4.1c-0.1-0.9,0.5-1.7,1.4-1.8c0.1,0,0.2,0,0.3,0c0.9,0,1.6,0.7,1.7,1.6
				c0,0.1,0,0.2,0,0.3V131.5z M696.2,125.5c0.9-0.1,1.7,0.6,1.8,1.5c0,0,0,0.1,0,0.1h-3.5C694.5,126.2,695.2,125.5,696.2,125.5
				L696.2,125.5z M699.7,129.2h-2c-0.3,0.6-0.9,0.9-1.5,0.9c-1,0-1.8-0.7-1.8-1.7c0,0,0,0,0,0h5.5c0-0.2,0.1-0.5,0.1-0.7
				c0.1-1.9-1.4-3.6-3.3-3.7c-0.1,0-0.2,0-0.4,0c-2-0.1-3.7,1.4-3.8,3.4c0,0.1,0,0.3,0,0.4c-0.1,2,1.4,3.7,3.4,3.9
				c0.1,0,0.3,0,0.4,0C697.8,131.7,699.2,130.7,699.7,129.2L699.7,129.2z M700.5,124.1l2.8,7.5h2.3l2.8-7.5h-2l-1.9,5.7l-1.9-5.7
				H700.5z M709.3,131.5h1.9v-7.5h-1.9V131.5z M710.3,123.2c0.6,0,1.1-0.5,1.2-1.1c0,0,0,0,0,0c0-0.6-0.5-1.1-1.1-1.1c0,0,0,0,0,0
				c-0.6,0-1.1,0.4-1.2,1.1c0,0,0,0,0,0.1C709.1,122.7,709.6,123.2,710.3,123.2C710.3,123.2,710.3,123.2,710.3,123.2z M716.3,125.5
				c0.9-0.1,1.7,0.6,1.8,1.5c0,0,0,0,0,0.1h-3.5C714.6,126.2,715.4,125.5,716.3,125.5z M719.8,129.2h-2c-0.3,0.6-0.9,0.9-1.5,0.9
				c-1,0-1.8-0.7-1.8-1.7c0,0,0,0,0,0h5.5c0-0.2,0.1-0.5,0.1-0.7c0.1-1.9-1.4-3.6-3.3-3.7c-0.1,0-0.2,0-0.4,0
				c-2-0.1-3.7,1.4-3.7,3.4c0,0.1,0,0.3,0,0.4c-0.1,2,1.4,3.7,3.4,3.9c0.1,0,0.3,0,0.4,0C717.9,131.7,719.4,130.7,719.8,129.2z
				 M722.7,131.5h2l1.4-5.2l1.4,5.2h2l2.2-7.5h-1.8l-1.3,5.7l-1.4-5.7h-2l-1.4,5.7l-1.3-5.7h-1.9L722.7,131.5z"/>
		</g>
		<g>
			<path id="Rectangle_13" class="st35" d="M674,324.9h255.2c2.5,0,4.5,2,4.5,4.5v24.5c0,2.5-2,4.5-4.5,4.5H674
				c-2.5,0-4.5-2-4.5-4.5v-24.5C669.5,326.9,671.5,324.9,674,324.9z"/>
			<path id="angle-down-4" class="st5" d="M695.4,342.2l-5,5c-0.2,0.2-0.5,0.2-0.7,0c0,0,0,0,0,0l-0.3-0.3c-0.2-0.2-0.2-0.5,0-0.7
				c0,0,0,0,0,0l4.4-4.3l-4.4-4.3c-0.2-0.2-0.2-0.5,0-0.7c0,0,0,0,0,0l0.3-0.3c0.2-0.2,0.5-0.2,0.7,0c0,0,0,0,0,0l5,5
				C695.6,341.7,695.6,342,695.4,342.2z"/>
			<g>
				<path class="st5" d="M717.5,336.8h-4v3.5h3.6v0.8h-3.6v3.6h4v0.8h-4.9V336h4.9V336.8z"/>
				<path class="st5" d="M721.3,342.5l-1.8,3h-1l2.4-3.7l-2.3-3.7h1.1l1.9,2.9l1.8-2.9h1l-2.3,3.6l2.4,3.7h-1.1L721.3,342.5z"/>
				<path class="st5" d="M728.7,345.6c-2.1,0-3.6-1.5-3.6-3.8c0-2.3,1.5-3.8,3.6-3.8c2.2,0,3.5,1.5,3.5,3.4c0,0.3,0,0.5,0,0.7H726
					c0.1,1.7,1.3,2.6,2.7,2.6c1.3,0,2.1-0.7,2.4-1.6h1C731.7,344.5,730.5,345.6,728.7,345.6z M726,341.4h5.2c0-1.7-1.2-2.6-2.6-2.6
					C727.3,338.8,726.2,339.7,726,341.4z"/>
				<path class="st5" d="M734.8,345.5h-0.9v-7.4h0.9v1.3c0.4-0.9,1.3-1.4,2.5-1.4v1h-0.3c-1.2,0-2.3,0.6-2.3,2.4V345.5z"/>
				<path class="st5" d="M741.9,338c1.8,0,3,1,3.4,2.5h-1c-0.2-1.1-1.1-1.7-2.4-1.7c-1.4,0-2.6,1-2.6,3s1.2,3,2.6,3
					c1.2,0,2.1-0.6,2.4-1.7h1c-0.3,1.5-1.5,2.5-3.4,2.5c-2.1,0-3.6-1.5-3.6-3.8S739.8,338,741.9,338z"/>
				<path class="st5" d="M746.8,336c0-0.4,0.3-0.7,0.7-0.7c0.4,0,0.7,0.3,0.7,0.7s-0.3,0.7-0.7,0.7
					C747.1,336.7,746.8,336.4,746.8,336z M747,338.1h0.9v7.4H747V338.1z"/>
				<path class="st5" d="M752.6,345.6c-1.7,0-2.8-0.8-3-2.2h1c0.1,0.8,0.8,1.4,2,1.4c1.1,0,1.6-0.6,1.6-1.3c0-1.8-4.4-0.8-4.4-3.5
					c0-1.1,1-2,2.6-2c1.6,0,2.6,0.8,2.7,2.2h-0.9c-0.1-0.8-0.7-1.4-1.8-1.4c-1,0-1.6,0.5-1.6,1.2c0,2,4.4,0.9,4.4,3.5
					C755.2,344.7,754.2,345.6,752.6,345.6z"/>
				<path class="st5" d="M760.2,345.6c-2.1,0-3.6-1.5-3.6-3.8c0-2.3,1.5-3.8,3.6-3.8c2.2,0,3.5,1.5,3.5,3.4c0,0.3,0,0.5,0,0.7h-6.1
					c0.1,1.7,1.3,2.6,2.7,2.6c1.3,0,2.1-0.7,2.4-1.6h1C763.2,344.5,762,345.6,760.2,345.6z M757.5,341.4h5.2c0-1.7-1.2-2.6-2.6-2.6
					C758.8,338.8,757.6,339.7,757.5,341.4z"/>
				<path class="st5" d="M767.9,345.6c-1.7,0-2.8-0.8-3-2.2h1c0.1,0.8,0.8,1.4,2,1.4c1.1,0,1.6-0.6,1.6-1.3c0-1.8-4.4-0.8-4.4-3.5
					c0-1.1,1-2,2.6-2c1.6,0,2.6,0.8,2.7,2.2h-0.9c-0.1-0.8-0.7-1.4-1.8-1.4c-1,0-1.6,0.5-1.6,1.2c0,2,4.4,0.9,4.4,3.5
					C770.4,344.7,769.4,345.6,767.9,345.6z"/>
			</g>
			<g>
				<path id="link_00000041276722788838362410000018150578130191653040_" class="st5" d="M872.4,343.8l-1.4,1.4
					c-0.9,0.9-2.3,0.9-3.2,0s-0.9-2.3,0-3.2l0,0l1.4-1.4l0.1-0.1c0.1-0.1,0.2-0.1,0.3,0c0,0,0.1,0.1,0.1,0.1c0,0.1,0,0.2,0,0.2
					c0,0.1,0,0.1-0.1,0.2l-1.3,1.3c-0.6,0.6-0.6,1.7,0,2.3s1.7,0.6,2.3,0l1.4-1.4l0,0c0.6-0.6,0.6-1.7,0-2.3
					c-0.1-0.1-0.3-0.2-0.5-0.3c-0.1,0-0.1-0.1-0.1-0.2c0-0.1,0-0.2,0-0.3c0-0.1,0.2-0.2,0.3-0.1c0,0,0,0,0,0
					c1.1,0.5,1.7,1.8,1.2,2.9C872.8,343.4,872.6,343.6,872.4,343.8L872.4,343.8z M870.9,342.2c0.2,0.2,0.4,0.4,0.7,0.5
					c0.1,0,0.2,0,0.3-0.1c0,0,0,0,0,0c0-0.1,0-0.2,0-0.3c0-0.1,0-0.2-0.1-0.2c-0.8-0.4-1.2-1.3-0.8-2.2c0.1-0.2,0.2-0.3,0.3-0.5l0,0
					l1.4-1.4c0.6-0.6,1.7-0.6,2.3,0c0.6,0.6,0.6,1.7,0,2.3l-1.3,1.3c0,0-0.1,0.1-0.1,0.2c0,0.1,0,0.2,0,0.2c0,0.1,0.1,0.2,0.2,0.2
					c0.1,0,0.1,0,0.1-0.1l0.1-0.1l1.4-1.4c0.9-0.9,0.9-2.3,0-3.2c-0.9-0.9-2.3-0.9-3.2,0l-1.4,1.4C870,339.9,870,341.4,870.9,342.2z
					"/>
				<path id="plus-circle_00000091714514833413566200000000982702947756554112_" class="st5" d="M897.5,341.3v0.2
					c0,0.1-0.1,0.2-0.2,0.2h-1.8v1.8c0,0.1-0.1,0.2-0.2,0.2h-0.2c-0.1,0-0.2-0.1-0.2-0.2v-1.8h-1.8c-0.1,0-0.2-0.1-0.2-0.2v-0.2
					c0-0.1,0.1-0.2,0.2-0.2h1.8v-1.8c0-0.1,0.1-0.2,0.2-0.2h0.2c0.1,0,0.2,0.1,0.2,0.2v1.8h1.8C897.4,341.1,897.5,341.2,897.5,341.3
					L897.5,341.3z M899.7,341.5c0,2.4-2,4.4-4.4,4.4c-2.4,0-4.4-2-4.4-4.4c0-2.4,2-4.4,4.4-4.4C897.7,337,899.7,339,899.7,341.5
					C899.7,341.4,899.7,341.4,899.7,341.5L899.7,341.5z M899.1,341.5c0-2.1-1.7-3.9-3.9-3.9c-2.1,0-3.9,1.7-3.9,3.9
					c0,2.1,1.7,3.9,3.9,3.9l0,0C897.4,345.3,899.1,343.6,899.1,341.5C899.1,341.5,899.1,341.4,899.1,341.5L899.1,341.5z"/>
				<path id="expand_00000034073582392348522290000013126115243225218443_" class="st5" d="M914.5,339.9v-2.5c0-0.3,0.2-0.5,0.5-0.5
					c0,0,0,0,0,0h2.5c0.1,0,0.2,0.1,0.2,0.2v0.2c0,0.1-0.1,0.2-0.2,0.2h-2.3v2.3c0,0.1-0.1,0.2-0.2,0.2h-0.2
					C914.6,340.2,914.5,340.1,914.5,339.9z M920.4,337h2.5c0.3,0,0.5,0.2,0.5,0.5c0,0,0,0,0,0v2.5c0,0.1-0.1,0.2-0.2,0.2h-0.2
					c-0.1,0-0.2-0.1-0.2-0.2v-2.3h-2.3c-0.1,0-0.2-0.1-0.2-0.2v-0.2C920.2,337.1,920.3,337,920.4,337z M923.3,343v2.5
					c0,0.3-0.2,0.5-0.5,0.5c0,0,0,0,0,0h-2.5c-0.1,0-0.2-0.1-0.2-0.2v-0.2c0-0.1,0.1-0.2,0.2-0.2h2.3V343c0-0.1,0.1-0.2,0.2-0.2h0.2
					C923.2,342.7,923.3,342.8,923.3,343z M917.4,345.9h-2.5c-0.3,0-0.5-0.2-0.5-0.5c0,0,0,0,0,0V343c0-0.1,0.1-0.2,0.2-0.2h0.2
					c0.1,0,0.2,0.1,0.2,0.2v2.3h2.3c0.1,0,0.2,0.1,0.2,0.2v0.2C917.6,345.8,917.5,345.9,917.4,345.9z"/>
			</g>
		</g>
		<g>
			<path class="st36" d="M930.4,315.6H675c-2.5,0-4.4-2-4.4-4.4V152.2c0-2.5,2-4.4,4.4-4.4h255.4c2.5,0,4.4,2,4.4,4.4v158.9
				C934.8,313.6,932.8,315.6,930.4,315.6z"/>
			<path id="angle-down-2" class="st5" d="M689,167.6l-5-5c-0.2-0.2-0.2-0.5,0-0.7c0,0,0,0,0,0l0.3-0.3c0.2-0.2,0.5-0.2,0.7,0
				c0,0,0,0,0,0l4.3,4.4l4.3-4.4c0.2-0.2,0.5-0.2,0.7,0c0,0,0,0,0,0l0.3,0.3c0.2,0.2,0.2,0.5,0,0.7c0,0,0,0,0,0l-5,5
				C689.6,167.8,689.2,167.8,689,167.6z"/>
			<g>
				<path id="link" class="st5" d="M873,166.5l-1.4,1.4c-0.9,0.9-2.3,0.9-3.2,0c-0.9-0.9-0.9-2.3,0-3.2l0,0l1.4-1.4l0.1-0.1
					c0.1-0.1,0.2-0.1,0.3,0c0,0,0.1,0.1,0.1,0.1c0,0.1,0,0.2,0,0.2c0,0.1,0,0.1-0.1,0.2l-1.3,1.3c-0.6,0.6-0.6,1.7,0,2.3
					s1.7,0.6,2.3,0l1.4-1.4l0,0c0.6-0.6,0.6-1.7,0-2.3c-0.1-0.1-0.3-0.2-0.5-0.3c-0.1,0-0.1-0.1-0.1-0.2c0-0.1,0-0.2,0-0.3
					c0-0.1,0.2-0.2,0.3-0.1c0,0,0,0,0,0c1.1,0.5,1.7,1.8,1.2,2.9C873.3,166.1,873.2,166.3,873,166.5L873,166.5z M871.4,164.9
					c0.2,0.2,0.4,0.4,0.7,0.5c0.1,0,0.2,0,0.3-0.1c0,0,0,0,0,0c0-0.1,0-0.2,0-0.3c0-0.1,0-0.2-0.1-0.2c-0.8-0.4-1.2-1.3-0.8-2.2
					c0.1-0.2,0.2-0.3,0.3-0.5l0,0l1.4-1.4c0.6-0.6,1.7-0.6,2.3,0c0.6,0.6,0.6,1.7,0,2.3l-1.3,1.3c0,0-0.1,0.1-0.1,0.2
					c0,0.1,0,0.2,0,0.2c0,0.1,0.1,0.2,0.2,0.2c0.1,0,0.1,0,0.1-0.1l0.1-0.1l1.4-1.4c0.9-0.9,0.9-2.3,0-3.2c-0.9-0.9-2.3-0.9-3.2,0
					l-1.4,1.4C870.5,162.6,870.5,164,871.4,164.9z"/>
				<path id="plus-circle" class="st5" d="M898.1,164v0.2c0,0.1-0.1,0.2-0.2,0.2h-1.8v1.8c0,0.1-0.1,0.2-0.2,0.2h-0.2
					c-0.1,0-0.2-0.1-0.2-0.2v-1.8h-1.8c-0.1,0-0.2-0.1-0.2-0.2V164c0-0.1,0.1-0.2,0.2-0.2h1.8V162c0-0.1,0.1-0.2,0.2-0.2h0.2
					c0.1,0,0.2,0.1,0.2,0.2v1.8h1.8C898,163.8,898.1,163.9,898.1,164L898.1,164z M900.2,164.1c0,2.4-2,4.4-4.4,4.4
					c-2.4,0-4.4-2-4.4-4.4c0-2.4,2-4.4,4.4-4.4C898.3,159.7,900.2,161.7,900.2,164.1C900.2,164.1,900.2,164.1,900.2,164.1
					L900.2,164.1z M899.7,164.1c0-2.1-1.7-3.9-3.9-3.9c-2.1,0-3.9,1.7-3.9,3.9s1.7,3.9,3.9,3.9l0,0
					C897.9,168,899.7,166.2,899.7,164.1C899.7,164.1,899.7,164.1,899.7,164.1L899.7,164.1z"/>
				<path id="expand" class="st5" d="M915,162.6v-2.5c0-0.3,0.2-0.5,0.5-0.5c0,0,0,0,0,0h2.5c0.1,0,0.2,0.1,0.2,0.2v0.2
					c0,0.1-0.1,0.2-0.2,0.2h-2.3v2.3c0,0.1-0.1,0.2-0.2,0.2h-0.2C915.1,162.8,915,162.7,915,162.6z M920.9,159.7h2.5
					c0.3,0,0.5,0.2,0.5,0.5c0,0,0,0,0,0v2.5c0,0.1-0.1,0.2-0.2,0.2h-0.2c-0.1,0-0.2-0.1-0.2-0.2v-2.3h-2.3c-0.1,0-0.2-0.1-0.2-0.2
					v-0.2C920.7,159.8,920.8,159.7,920.9,159.7z M923.9,165.6v2.5c0,0.3-0.2,0.5-0.5,0.5c0,0,0,0,0,0h-2.5c-0.1,0-0.2-0.1-0.2-0.2
					v-0.2c0-0.1,0.1-0.2,0.2-0.2h2.3v-2.3c0-0.1,0.1-0.2,0.2-0.2h0.2C923.8,165.4,923.9,165.5,923.9,165.6z M917.9,168.5h-2.5
					c-0.3,0-0.5-0.2-0.5-0.5c0,0,0,0,0,0v-2.5c0-0.1,0.1-0.2,0.2-0.2h0.2c0.1,0,0.2,0.1,0.2,0.2v2.3h2.3c0.1,0,0.2,0.1,0.2,0.2v0.2
					C918.2,168.4,918.1,168.5,917.9,168.5z"/>
			</g>
			<g>
				<path class="st5" d="M710.6,159.5c2.1,0,3.7,1.1,4.3,2.9h-1.1c-0.5-1.3-1.6-2-3.2-2c-2.1,0-3.6,1.5-3.6,4c0,2.5,1.6,4,3.6,4
					c1.6,0,2.7-0.8,3.2-2h1.1c-0.7,1.8-2.2,2.8-4.3,2.8c-2.6,0-4.6-2-4.6-4.8S708,159.5,710.6,159.5z"/>
				<path class="st5" d="M720.1,169.1c-2.1,0-3.7-1.5-3.7-3.8c0-2.3,1.6-3.8,3.7-3.8c2.1,0,3.7,1.4,3.7,3.8
					C723.8,167.7,722.1,169.1,720.1,169.1z M720.1,168.3c1.4,0,2.7-0.9,2.7-3s-1.3-3-2.7-3s-2.7,0.9-2.7,3S718.7,168.3,720.1,168.3z
					"/>
				<path class="st5" d="M731,164.8c0-1.6-0.9-2.5-2.2-2.5c-1.4,0-2.3,0.9-2.3,2.7v4h-0.9v-7.4h0.9v1.3c0.5-0.9,1.4-1.4,2.5-1.4
					c1.7,0,3,1,3,3.2v4.3H731V164.8z"/>
				<path class="st5" d="M737.1,161.6c1.8,0,3,1,3.4,2.5h-1c-0.2-1.1-1.1-1.7-2.4-1.7c-1.4,0-2.6,1-2.6,3s1.2,3,2.6,3
					c1.2,0,2.1-0.6,2.4-1.7h1c-0.3,1.5-1.5,2.5-3.4,2.5c-2.1,0-3.6-1.5-3.6-3.8S735.1,161.6,737.1,161.6z"/>
				<path class="st5" d="M745.4,169.1c-2.1,0-3.6-1.5-3.6-3.8c0-2.3,1.5-3.8,3.6-3.8c2.2,0,3.5,1.5,3.5,3.4c0,0.3,0,0.5,0,0.7h-6.1
					c0.1,1.7,1.3,2.6,2.7,2.6c1.3,0,2.1-0.7,2.4-1.6h1C748.5,168.1,747.3,169.1,745.4,169.1z M742.8,165h5.2c0-1.7-1.2-2.6-2.6-2.6
					C744.1,162.4,742.9,163.2,742.8,165z"/>
				<path class="st5" d="M754.5,161.6c2,0,3.5,1.5,3.5,3.8c0,2.3-1.5,3.8-3.5,3.8c-1.5,0-2.5-0.8-2.9-1.7v5.1h-0.9v-10.8h0.9v1.6
					C752,162.4,753,161.6,754.5,161.6z M754.3,162.4c-1.5,0-2.7,1.1-2.7,3s1.2,3,2.7,3c1.5,0,2.7-1.1,2.7-3
					C757,163.5,755.8,162.4,754.3,162.4z"/>
				<path class="st5" d="M760,162.5h-1v-0.8h1v-1.8h1v1.8h2v0.8h-2v4.6c0,0.9,0.3,1.2,1.2,1.2h0.9v0.8h-1c-1.3,0-2-0.5-2-2V162.5z"
					/>
				<path class="st5" d="M767.1,169.1c-1.7,0-2.8-0.8-3-2.2h1c0.1,0.8,0.8,1.4,2,1.4c1.1,0,1.6-0.6,1.6-1.3c0-1.8-4.4-0.8-4.4-3.5
					c0-1.1,1-2,2.6-2c1.6,0,2.6,0.8,2.7,2.2h-0.9c-0.1-0.8-0.7-1.4-1.8-1.4c-1,0-1.6,0.5-1.6,1.2c0,2,4.4,0.9,4.4,3.5
					C769.6,168.3,768.6,169.1,767.1,169.1z"/>
			</g>
			<line class="st37" x1="671.5" y1="182.1" x2="934.1" y2="182.1"/>
			<line class="st37" x1="672.2" y1="215.4" x2="934.8" y2="215.4"/>
			<line class="st37" x1="672.2" y1="249.1" x2="934.8" y2="249.1"/>
			<line class="st37" x1="672.2" y1="282.8" x2="934.8" y2="282.8"/>
			<g>
				<g>
					<ellipse class="st38" cx="691.2" cy="198.7" rx="9.8" ry="9.8"/>
					<path class="st13" d="M691.2,193.1c-2.3,0-3.9,1.8-3.9,3.9c0,1,0.4,1.9,1,2.5c0.6,0.6,1.1,1.7,1.1,2l0,1.6c0,0.1,0,0.1,0.1,0.2
						l0.5,0.8c0.1,0.1,0.2,0.2,0.3,0.2h1.7c0.1,0,0.2-0.1,0.3-0.2l0.5-0.8c0-0.1,0.1-0.1,0.1-0.2l0-1.6c0-0.3,0.6-1.4,1.1-2
						c0.6-0.7,1-1.6,1-2.5C695,194.8,693.3,193.1,691.2,193.1z M692.2,203l-0.4,0.6h-1.4l-0.4-0.6l0-0.1h2.1V203L692.2,203z
						 M692.2,202.2h-2.1l0-0.7h2.1L692.2,202.2z M693.6,199c-0.3,0.3-0.8,1.1-1.1,1.8h-2.5c-0.3-0.7-0.8-1.4-1.1-1.8
						c-0.5-0.6-0.8-1.3-0.8-2.1c0-1.7,1.3-3.2,3.2-3.2c1.7,0,3.2,1.4,3.2,3.2C694.3,197.7,694.1,198.4,693.6,199z M691.2,194.5
						c-1.4,0-2.5,1.1-2.5,2.5c0,0.2,0.2,0.4,0.4,0.4c0.2,0,0.4-0.2,0.4-0.4c0-1,0.8-1.8,1.8-1.8c0.2,0,0.4-0.2,0.4-0.4
						C691.5,194.6,691.4,194.5,691.2,194.5z"/>
				</g>
				<g>
					<ellipse class="st38" cx="691.2" cy="232.3" rx="9.8" ry="9.8"/>
					<path class="st13" d="M691.2,226.7c-2.3,0-3.9,1.8-3.9,3.9c0,1,0.4,1.9,1,2.5c0.6,0.6,1.1,1.7,1.1,2l0,1.6c0,0.1,0,0.1,0.1,0.2
						l0.5,0.8c0.1,0.1,0.2,0.2,0.3,0.2h1.7c0.1,0,0.2-0.1,0.3-0.2l0.5-0.8c0-0.1,0.1-0.1,0.1-0.2l0-1.6c0-0.3,0.6-1.4,1.1-2
						c0.6-0.7,1-1.6,1-2.5C695,228.4,693.3,226.7,691.2,226.7z M692.2,236.7l-0.4,0.6h-1.4l-0.4-0.6l0-0.1h2.1V236.7L692.2,236.7z
						 M692.2,235.8h-2.1l0-0.7h2.1L692.2,235.8z M693.6,232.6c-0.3,0.3-0.8,1.1-1.1,1.8h-2.5c-0.3-0.7-0.8-1.4-1.1-1.8
						c-0.5-0.6-0.8-1.3-0.8-2.1c0-1.7,1.3-3.2,3.2-3.2c1.7,0,3.2,1.4,3.2,3.2C694.3,231.3,694.1,232.1,693.6,232.6z M691.2,228.1
						c-1.4,0-2.5,1.1-2.5,2.5c0,0.2,0.2,0.4,0.4,0.4c0.2,0,0.4-0.2,0.4-0.4c0-1,0.8-1.8,1.8-1.8c0.2,0,0.4-0.2,0.4-0.4
						S691.4,228.1,691.2,228.1z"/>
				</g>
				<g>
					<ellipse class="st38" cx="691.2" cy="265.9" rx="9.8" ry="9.8"/>
					<path class="st13" d="M691.2,260.3c-2.3,0-3.9,1.8-3.9,3.9c0,1,0.4,1.9,1,2.5c0.6,0.6,1.1,1.7,1.1,2l0,1.6c0,0.1,0,0.1,0.1,0.2
						l0.5,0.8c0.1,0.1,0.2,0.2,0.3,0.2h1.7c0.1,0,0.2-0.1,0.3-0.2l0.5-0.8c0-0.1,0.1-0.1,0.1-0.2l0-1.6c0-0.3,0.6-1.4,1.1-2
						c0.6-0.7,1-1.6,1-2.5C695,262.1,693.3,260.3,691.2,260.3z M692.2,270.3l-0.4,0.6h-1.4l-0.4-0.6l0-0.1h2.1V270.3L692.2,270.3z
						 M692.2,269.4h-2.1l0-0.7h2.1L692.2,269.4z M693.6,266.3c-0.3,0.3-0.8,1.1-1.1,1.8h-2.5c-0.3-0.7-0.8-1.4-1.1-1.8
						c-0.5-0.6-0.8-1.3-0.8-2.1c0-1.7,1.3-3.2,3.2-3.2c1.7,0,3.2,1.4,3.2,3.2C694.3,265,694.1,265.7,693.6,266.3z M691.2,261.7
						c-1.4,0-2.5,1.1-2.5,2.5c0,0.2,0.2,0.4,0.4,0.4c0.2,0,0.4-0.2,0.4-0.4c0-1,0.8-1.8,1.8-1.8c0.2,0,0.4-0.2,0.4-0.4
						S691.4,261.7,691.2,261.7z"/>
				</g>
				<g>
					<ellipse class="st38" cx="691.2" cy="299.6" rx="9.8" ry="9.8"/>
					<path class="st13" d="M691.2,294c-2.3,0-3.9,1.8-3.9,3.9c0,1,0.4,1.9,1,2.5c0.6,0.6,1.1,1.7,1.1,2l0,1.6c0,0.1,0,0.1,0.1,0.2
						l0.5,0.8c0.1,0.1,0.2,0.2,0.3,0.2h1.7c0.1,0,0.2-0.1,0.3-0.2l0.5-0.8c0-0.1,0.1-0.1,0.1-0.2l0-1.6c0-0.3,0.6-1.4,1.1-2
						c0.6-0.7,1-1.6,1-2.5C695,295.7,693.3,294,691.2,294z M692.2,303.9l-0.4,0.6h-1.4l-0.4-0.6l0-0.1h2.1V303.9L692.2,303.9z
						 M692.2,303.1h-2.1l0-0.7h2.1L692.2,303.1z M693.6,299.9c-0.3,0.3-0.8,1.1-1.1,1.8h-2.5c-0.3-0.7-0.8-1.4-1.1-1.8
						c-0.5-0.6-0.8-1.3-0.8-2.1c0-1.7,1.3-3.2,3.2-3.2c1.7,0,3.2,1.4,3.2,3.2C694.3,298.6,694.1,299.3,693.6,299.9z M691.2,295.4
						c-1.4,0-2.5,1.1-2.5,2.5c0,0.2,0.2,0.4,0.4,0.4c0.2,0,0.4-0.2,0.4-0.4c0-1,0.8-1.8,1.8-1.8c0.2,0,0.4-0.2,0.4-0.4
						C691.5,295.5,691.4,295.4,691.2,295.4z"/>
				</g>
				<path class="st32" d="M888.4,201.7H715.6c-1.9,0-3.4-1.5-3.4-3.4v0c0-1.9,1.5-3.4,3.4-3.4h172.8c1.9,0,3.4,1.5,3.4,3.4v0
					C891.7,200.2,890.2,201.7,888.4,201.7z"/>
				<path class="st32" d="M888.4,235.7H715.6c-1.9,0-3.4-1.5-3.4-3.4v0c0-1.9,1.5-3.4,3.4-3.4h172.8c1.9,0,3.4,1.5,3.4,3.4v0
					C891.7,234.2,890.2,235.7,888.4,235.7z"/>
				<path class="st32" d="M888.4,269.6H715.6c-1.9,0-3.4-1.5-3.4-3.4v0c0-1.9,1.5-3.4,3.4-3.4h172.8c1.9,0,3.4,1.5,3.4,3.4v0
					C891.7,268.1,890.2,269.6,888.4,269.6z"/>
				<path class="st32" d="M888.4,303.6H715.6c-1.9,0-3.4-1.5-3.4-3.4v0c0-1.9,1.5-3.4,3.4-3.4h172.8c1.9,0,3.4,1.5,3.4,3.4v0
					C891.7,302.1,890.2,303.6,888.4,303.6z"/>
			</g>
		</g>
		<g>
			<path class="st36" d="M931.7,436.3H673c-1.6,0-2.8-1.3-2.8-2.8v-61.4c0-1.6,1.3-2.8,2.8-2.8h258.7c1.6,0,2.8,1.3,2.8,2.8v61.4
				C934.5,435.1,933.2,436.3,931.7,436.3z"/>
			<line class="st36" x1="671.2" y1="403.6" x2="933.8" y2="403.6"/>
			<path id="angle-down-5" class="st5" d="M690.6,391.1l-5-5c-0.2-0.2-0.2-0.5,0-0.7c0,0,0,0,0,0l0.3-0.3c0.2-0.2,0.5-0.2,0.7,0
				c0,0,0,0,0,0l4.3,4.4l4.3-4.4c0.2-0.2,0.5-0.2,0.7,0c0,0,0,0,0,0l0.3,0.3c0.2,0.2,0.2,0.5,0,0.7c0,0,0,0,0,0l-5,5
				C691.2,391.3,690.8,391.3,690.6,391.1z"/>
			<g>
				<path class="st5" d="M723.7,392.1l2.5,2.3H725l-2.1-2c-0.5,0.1-0.9,0.2-1.4,0.2c-2.6,0-4.7-2-4.7-4.8c0-2.8,2-4.8,4.7-4.8
					c2.7,0,4.7,2,4.7,4.8C726.1,389.8,725.1,391.3,723.7,392.1z M721.4,391.8c2.1,0,3.7-1.5,3.7-4c0-2.5-1.6-4-3.7-4
					c-2.1,0-3.7,1.5-3.7,4C717.7,390.3,719.3,391.8,721.4,391.8z"/>
				<path class="st5" d="M734.2,392.6h-0.9v-1.3c-0.4,0.9-1.4,1.4-2.5,1.4c-1.7,0-3-1-3-3.2v-4.3h0.9v4.2c0,1.6,0.9,2.5,2.2,2.5
					c1.4,0,2.3-0.9,2.3-2.7v-4h0.9V392.6z"/>
				<path class="st5" d="M736.1,383.1c0-0.4,0.3-0.7,0.7-0.7c0.4,0,0.7,0.3,0.7,0.7s-0.3,0.7-0.7,0.7
					C736.4,383.8,736.1,383.5,736.1,383.1z M736.3,385.2h0.9v7.4h-0.9V385.2z"/>
				<path class="st5" d="M743.7,386l-3.8,5.8h3.9v0.8h-4.9v-0.8l3.8-5.8h-3.7v-0.8h4.8V386z"/>
			</g>
			<g>
				<path id="link_00000072993533782465712270000016414385733472905089_" class="st5" d="M872.7,388.6l-1.4,1.4
					c-0.9,0.9-2.3,0.9-3.2,0c-0.9-0.9-0.9-2.3,0-3.2l0,0l1.4-1.4l0.1-0.1c0.1-0.1,0.2-0.1,0.3,0c0,0,0.1,0.1,0.1,0.1
					c0,0.1,0,0.2,0,0.2c0,0.1,0,0.1-0.1,0.2l-1.3,1.3c-0.6,0.6-0.6,1.7,0,2.3s1.7,0.6,2.3,0l1.4-1.4l0,0c0.6-0.6,0.6-1.7,0-2.3
					c-0.1-0.1-0.3-0.2-0.5-0.3c-0.1,0-0.1-0.1-0.1-0.2c0-0.1,0-0.2,0-0.3c0-0.1,0.2-0.2,0.3-0.1c0,0,0,0,0,0
					c1.1,0.5,1.7,1.8,1.2,2.9C873,388.2,872.9,388.4,872.7,388.6L872.7,388.6z M871.1,387c0.2,0.2,0.4,0.4,0.7,0.5
					c0.1,0,0.2,0,0.3-0.1c0,0,0,0,0,0c0-0.1,0-0.2,0-0.3c0-0.1,0-0.2-0.1-0.2c-0.8-0.4-1.2-1.3-0.8-2.2c0.1-0.2,0.2-0.3,0.3-0.5l0,0
					l1.4-1.4c0.6-0.6,1.7-0.6,2.3,0c0.6,0.6,0.6,1.7,0,2.3l-1.3,1.3c0,0-0.1,0.1-0.1,0.2c0,0.1,0,0.2,0,0.2c0,0.1,0.1,0.2,0.2,0.2
					c0.1,0,0.1,0,0.1-0.1l0.1-0.1l1.4-1.4c0.9-0.9,0.9-2.3,0-3.2s-2.3-0.9-3.2,0l-1.4,1.4C870.2,384.7,870.2,386.1,871.1,387z"/>
				<path id="plus-circle_00000104665618762190342920000009458473190852494000_" class="st5" d="M897.8,386.1v0.2
					c0,0.1-0.1,0.2-0.2,0.2h-1.8v1.8c0,0.1-0.1,0.2-0.2,0.2h-0.2c-0.1,0-0.2-0.1-0.2-0.2v-1.8h-1.8c-0.1,0-0.2-0.1-0.2-0.2v-0.2
					c0-0.1,0.1-0.2,0.2-0.2h1.8v-1.8c0-0.1,0.1-0.2,0.2-0.2h0.2c0.1,0,0.2,0.1,0.2,0.2v1.8h1.8C897.7,385.9,897.8,386,897.8,386.1
					L897.8,386.1z M899.9,386.2c0,2.4-2,4.4-4.4,4.4c-2.4,0-4.4-2-4.4-4.4c0-2.4,2-4.4,4.4-4.4C898,381.8,899.9,383.8,899.9,386.2
					C899.9,386.2,899.9,386.2,899.9,386.2L899.9,386.2z M899.4,386.2c0-2.1-1.7-3.9-3.9-3.9c-2.1,0-3.9,1.7-3.9,3.9s1.7,3.9,3.9,3.9
					l0,0C897.6,390.1,899.4,388.4,899.4,386.2C899.4,386.2,899.4,386.2,899.4,386.2L899.4,386.2z"/>
				<path id="expand_00000132770445686038626660000010890148374953948597_" class="st5" d="M914.7,384.7v-2.5c0-0.3,0.2-0.5,0.5-0.5
					c0,0,0,0,0,0h2.5c0.1,0,0.2,0.1,0.2,0.2v0.2c0,0.1-0.1,0.2-0.2,0.2h-2.3v2.3c0,0.1-0.1,0.2-0.2,0.2h-0.2
					C914.8,385,914.7,384.8,914.7,384.7z M920.6,381.8h2.5c0.3,0,0.5,0.2,0.5,0.5c0,0,0,0,0,0v2.5c0,0.1-0.1,0.2-0.2,0.2h-0.2
					c-0.1,0-0.2-0.1-0.2-0.2v-2.3h-2.3c-0.1,0-0.2-0.1-0.2-0.2V382C920.4,381.9,920.5,381.8,920.6,381.8z M923.6,387.7v2.5
					c0,0.3-0.2,0.5-0.5,0.5c0,0,0,0,0,0h-2.5c-0.1,0-0.2-0.1-0.2-0.2v-0.2c0-0.1,0.1-0.2,0.2-0.2h2.3v-2.3c0-0.1,0.1-0.2,0.2-0.2
					h0.2C923.5,387.5,923.6,387.6,923.6,387.7z M917.6,390.7h-2.5c-0.3,0-0.5-0.2-0.5-0.5c0,0,0,0,0,0v-2.5c0-0.1,0.1-0.2,0.2-0.2
					h0.2c0.1,0,0.2,0.1,0.2,0.2v2.3h2.3c0.1,0,0.2,0.1,0.2,0.2v0.2C917.9,390.5,917.8,390.7,917.6,390.7z"/>
			</g>
			<g>
				<ellipse class="st38" cx="690.7" cy="420.4" rx="9.8" ry="9.8"/>
				<path class="st13" d="M690.7,414.8c-2.3,0-3.9,1.8-3.9,3.9c0,1,0.4,1.9,1,2.5c0.6,0.6,1.1,1.7,1.1,2l0,1.6c0,0.1,0,0.1,0.1,0.2
					l0.5,0.8c0.1,0.1,0.2,0.2,0.3,0.2h1.7c0.1,0,0.2-0.1,0.3-0.2l0.5-0.8c0-0.1,0.1-0.1,0.1-0.2l0-1.6c0-0.3,0.6-1.4,1.1-2
					c0.6-0.7,1-1.6,1-2.5C694.6,416.6,692.8,414.8,690.7,414.8z M691.8,424.8l-0.4,0.6H690l-0.4-0.6l0-0.1h2.1V424.8L691.8,424.8z
					 M691.8,424h-2.1l0-0.7h2.1L691.8,424z M693.1,420.8c-0.3,0.3-0.8,1.1-1.1,1.8h-2.5c-0.3-0.7-0.8-1.4-1.1-1.8
					c-0.5-0.6-0.8-1.3-0.8-2.1c0-1.7,1.3-3.2,3.2-3.2c1.7,0,3.2,1.4,3.2,3.2C693.9,419.5,693.6,420.2,693.1,420.8z M690.7,416.2
					c-1.4,0-2.5,1.1-2.5,2.5c0,0.2,0.2,0.4,0.4,0.4c0.2,0,0.4-0.2,0.4-0.4c0-1,0.8-1.8,1.8-1.8c0.2,0,0.4-0.2,0.4-0.4
					C691.1,416.4,690.9,416.2,690.7,416.2z"/>
			</g>
			<path class="st32" d="M887.9,424.5H715.1c-1.9,0-3.4-1.5-3.4-3.4v0c0-1.9,1.5-3.4,3.4-3.4h172.8c1.9,0,3.4,1.5,3.4,3.4v0
				C891.3,423,889.8,424.5,887.9,424.5z"/>
		</g>
	</g>
	<g>
		<ellipse class="st39" cx="495.9" cy="339.8" rx="27.7" ry="27.8"/>
		<ellipse class="st40" cx="495.9" cy="339.8" rx="22.4" ry="22.5"/>
		<polygon class="st13" points="487.7,339.8 487.7,326.8 498.9,333.3 510.2,339.8 498.9,346.3 487.7,352.8 		"/>
	</g>
</g>
<g>
	<g>
		<g>
			<g>
				<path class="st43" d="M184,316.7c-2.3,1.3-5.5,3.2-9,6c0,0-4.7,3.8-8,7.7c-8.7,10.5,11.3,47.6,11.3,47.6
					c4.4,9.5,34.4,87.4,35.7,87c1.4-0.5,18.9-81.1,20.1-98.1c0.2-2.4-5.5-33.4-5.9-36.7c-1-7.5-4.5-9.6-6.3-11.3
					C210.1,307.4,187.3,315.5,184,316.7z"/>
				<g>
					<path class="st44" d="M219.6,358.6c-0.1,0-0.1,0-0.1,0c-0.3,0-0.6-0.4-0.5-0.7c0-0.3,0.3-0.5,0.6-0.5c0.8-0.4,3.3-4.9,4.5-7.7
						c0.1-0.3,0.5-0.5,0.8-0.3c0.3,0.1,0.5,0.5,0.3,0.8c-0.5,1.1-1.5,3.2-2.5,5C220.8,358.2,220.1,358.6,219.6,358.6z"/>
				</g>
				<path class="st45" d="M207.9,342c-1.3,0-6.3,11.1-6.3,11.1s6.4,9.4,6.3,11.5c-0.1,2.1-4.6,28.4-8.7,30.3
					c-4.1,1.9,9.2,22.2,10,29c0.8,6.7,2.6,23,3.1,23c0.5,0,9.1-22.5,9.2-26c0.1-3.4,2.2-36.1,2.1-37.8c-0.1-1.7-8.8-18.4-8.8-19.4
					c0-1,3.3-6.7,2.8-7.3C217.2,355.7,209.2,342,207.9,342z"/>
				<path class="st46" d="M303.2,777.9c-25.1,0.2-50.2,0.4-75.4,0.7c-5.1-19.8-17.3-67.6-22.4-87.4c-1.3-4.9-9.2-35.9-10.5-40.8
					c-3.9,16.2-7.7,32.5-11.6,48.7c-6.2,26.4-12.4,52.8-18.6,79.2c-24.3,0.2-48.6,0.5-72.9,0.7c3.7-25,5.6-46.5,6.5-63.7
					c2.6-46.7-1.1-65.9,4.2-101.9c3.6-24.4,9.6-44.8,15.2-60.3l44.8-21.4l95.4,21.4c5.3,15,12.4,37.3,18.3,65.1
					c5,23.7,6.5,39.6,9.1,59.2C288.7,701.6,294,735.8,303.2,777.9z"/>
				<path class="st47" d="M167,330.3c1.5,6.7,8.3,23.6,11.8,30.7c3.5,7.1,21.5,32.9,23.2,37.6s10.8,24.3,10.6,36.4
					c-0.2,12.1,11.4,104.8-2.8,133.5c-14.1,28.7-54.1,60.8-105.4,32.7c3.1-8.9,12.8-65.1,19.3-108.5c6.5-43.4-29.7-117.6-25-125.8
					c4.8-8.2,31.8-16.8,39.7-18.8C146.3,345.9,165.8,324.6,167,330.3z"/>
				<g>
					<path class="st48" d="M418.5,229.4c2.4-2.2,5.3,7.6,5.8,8.1c1.7,1.7-9.7,9.8-9.7,9.8l-9.5-9.3L418.5,229.4z"/>
					<path class="st48" d="M393.5,252.4c-1.3-1.3-1.3-3.4,0-4.8c4.9-5,6.1-16.6,8.5-17.8c2.7-1.4,13.4-7.6,17-9.3
						c2.3-1,16.3-10,14.7-4.5c-0.8,2.7-10.3,10.2-13.2,12.2c-2.9,2-7.1,7.8-6.6,9.8c0.5,1.9,3,5.5,6.5,3.7c2.9-1.5,3.5-5.2,5.6-6.3
						c2.4-1.3,5.1-2.2,7.5-2c4.6,0.5-0.2,3.5-1.7,5.1c-1.5,1.6-5.6,12.8-10.8,15.8c-5.2,2.9-14.8,2.6-17.5,4.4
						C401.7,259.8,396.7,255.5,393.5,252.4z"/>
					<path class="st48" d="M433.5,233.5c-2.3-0.2-4.7,0.5-7,1.7c-2.3,1.2,3.9,4.9,5.4,3.4C433.3,237,438.1,234,433.5,233.5z"/>
				</g>
				<path class="st47" d="M98.8,366.8c-7.2,13-43.4,137.5-26.7,153.9c22.5,22.1,88.8,0.9,105.8-4.9c1.8-0.6,3.6-1.2,3.6-1.2
					c3.9-1.6,6.9-3.8,9.3-5.8c-0.6-7.9-1.1-15.7-1.7-23.6c-22.6-0.5-45.1-1-67.7-1.4c2.8-9.7,6.6-23.7,10.5-40.6
					c5.3-23.1,5.2-27.7,4.9-30.8C136.1,405.7,132.2,386,98.8,366.8z"/>
				<path class="st47" d="M225.7,323.4c3.7-0.4,9.1-0.9,15.8-1c10.5-0.1,14.3,0.9,20.4,1c8.4,0.1,12.3-1.8,32-8.2
					c7.2-2.3,17.8-5.7,30.9-9.6c14.9-9.2,31.9-21.9,48.5-39.3c5.9-6.2,11.2-12.4,15.8-18.4c2.9,0.6,7.4,2,12,5.1
					c3.9,2.6,6.6,5.5,8.2,7.6c-14.5,24.7-27.8,44-37.7,57.7c-12.4,17-17.1,21.8-22,25.9c-10.4,8.9-18.3,11.9-45.8,25.4
					c-7.8,3.8-19.5,9.7-33.8,17c-7.2,19.2-16.4,50.1-15.7,88.2c1.2,66.9,20.5,108.4,14.5,129.4c-1.4,4.8-20.6,3.5-34.4-1.9
					c-13.7-5.5-30.5-15.5-33.3-42.5c-4.5-43.8,14.7-129.2,14.7-129.2C221.5,406,227.3,369.8,225.7,323.4z"/>
				<g>
					<path class="st48" d="M187.8,465.5c-0.4,0.4-0.5,0.8-0.6,1.1c-0.7,2.7,2.9,5.1,4.3,7.6c1.3,2.3,1.6,6.1-2.1,13.1
						c0.4,6.4,0.9,12.7,1.3,19.1c4.4,1.1,11.1,2.2,19.3,1.5c4.1-0.4,11.7-1.1,19.9-5.5c8.9-4.7,17.7-13.4,16.1-16.7
						c-1.2-2.3-8.7-1.3-11-0.9c2.3-0.9,4.2-3.4,3-4.4c-4.1-3.1-21.2,6.2-31,3.8c-0.8-0.2-2.6-0.8-4.1-2.4c-2.6-2.8-2.2-6.4-2.2-7
						c-0.2-1.3-0.6-3.3-2-5.2C195.8,465.6,189.6,463.6,187.8,465.5z"/>
				</g>
			</g>
			<path class="st49" d="M216.4,323.8c0.2,1.5,0.8,8-3.5,12.2c0,0-1.6,1.6-3.9,2.4c-6,2.3-16.5-2.5-27-11.6c-1-2-2.1-4-3.1-6
				c0.6-6.1,1.3-12.2,1.9-18.3c11.9,3.1,23.8,6.3,35.7,9.4C216.5,315.8,216.5,319.8,216.4,323.8z"/>
			<g>
				<path d="M213.6,279.9c3.1-3,6-0.9,11.1-3.6c5.5-2.9,10.3-9.5,10.5-16.7c0.2-8.7-6.6-14.5-10.9-18.2c-4.2-3.6-9.4-7.6-15.9-7.7
					c-8.5-0.2-10.1,5.3-19.7,5.7c-7.8,0.3-8.5-3.3-15.4-2.9c-5.7,0.4-20.4,6.5-20.9,15.8c-0.3,5.9,5.4,7.3,5.8,15.7
					c0.2,5-1.7,6.4-2,10.4c-0.8,10.1,9.5,23.6,20.7,25.4C192,306.4,208.3,285.1,213.6,279.9z"/>
			</g>
			<g>
				<path class="st48" d="M178.5,298.6c0,0-12.1-1.4-11.9-12.3c0.2-10,10.4-3.8,10.4-3.8s-1.7-23.3,13.6-19.3c15.3,4,28,2.9,28,2.9
					s3.3,22.9,0.6,39.8c-1.6,10.2-5.5,18.3-13.5,17.9C183.7,322.7,178.5,298.6,178.5,298.6z"/>
			</g>
			<path class="st50" d="M168,334c7.2,9.7,13.8,16.7,18.7,21.3c3.6,3.4,6.8,6.2,9.9,5.3c3.4-1,4.7-6,5-7.5"/>
			<path class="st50" d="M218.2,357c0.3,0.7,0.6,1,1,1.1c1.4,0.3,3.5-2.9,6.2-9.7"/>
		</g>
		<path class="st51" d="M150.4,430.1c-8.9,7.1-17.7,14.2-26.6,21.3c-1.1-7.9-3.6-18.9-9.4-31.1c-5.6-11.7-12.2-20.4-17.4-26.2
			c0.3-1.7,0.9-4.4,2.7-7c2-2.9,4.5-4.4,6.1-5.4c1.4-0.9,2.8-1.4,3.7-1.7C123.2,396.6,136.8,413.4,150.4,430.1z"/>
		<path class="st52" d="M431.4,238.3c-0.3,0.5-0.6,0.9-0.9,1.4c-0.2,0.1-1.6,0.8-3.2,0c-1.8-0.8-2.1-2.7-2.1-2.9
			c0.2-0.2,0.4-0.5,0.8-0.8c0.4-0.2,0.7-0.4,0.9-0.4c0.2,0.4,0.7,1.3,1.8,2C429.9,238.3,431,238.3,431.4,238.3z"/>
		<path class="st50" d="M178.6,319.7c2.6,4.3,7.6,11.2,16.4,15.4c4.5,2.1,10.3,4.9,15.3,2.3c5.1-2.6,7.7-10,6.4-18.4"/>
	</g>
	<g>
		<g>
			<path class="st53" d="M415.6,777.5c-0.6-14.1-1.5-34.3-2.9-58.7c-2.2-36.6-3.6-50.9-14.4-61.6c-4.7-4.7-13.7-11.2-17.3-13.9
				c-10.8-7.8-19.5-12.7-22-14.1c-6.6-3.7-14.9-7.8-24.9-11.8c-18.6-0.7-37.2-1.5-55.8-2.2c-9.6,3.4-18.4,6.9-26.4,10.2
				c-26.1,10.8-31.3,15.4-34.7,19.4c-2.1,2.5-5.5,6.9-10.9,22.5c-7.3,21.3-9.9,38.8-10.9,46.3c-2.4,16.9-4.9,38.7-6.6,64.6
				C264.4,778,340,777.8,415.6,777.5z"/>
			<g>
				<path class="st5" d="M328.9,534.4c10-5.9,11.3-23.5,3.9-27.3c-6.7-3.5-14.9,0.3-25.3,5.2c-4.9,2.3-12.1,2.2-19.6,3.7
					c-34.9,6.9-33.3,49.4,1,77c24.7,19.8,39.2-49.3,39.2-49.3L328.9,534.4z"/>
				<g>
					<path class="st54" d="M321.2,538.6c0.6-5.7,6.7-6,7.8-4.2c2.6,4.6,3.8,7.7,4.2,9.7c0.6,2.6-1.8,5.2-0.6,8s3.3,6,3.5,11
						c0.2,4.9,5.1,27.4-12.2,26.7c-0.7,0-1.2,0.5-1.2,1.2c0,3.4,0.2,12.8,1,17.9c0.4,2.8-1.3,5.4-4,6.2c-6.9,2-19.8,4.8-29.5,1.6
						c-2.5-0.8-3.8-3.6-2.9-6.1c1.1-3.2,2.7-12.2,1.7-17.5c0,0,5.8-0.6,12.2-3.6c9.9-4.6,14.8-15.7,12-26.4c-0.6-2.3-1.9-5.5-0.5-9
						c2.1-5.4,4.8-4.2,6.6-2.5c0.7,0.7,1.9,0.2,1.9-0.8L321.2,538.6z"/>
				</g>
				<path d="M336.1,560.7c-0.1,0-0.3-0.1-0.4-0.2c-0.1-0.2-0.1-0.5,0.1-0.6c5.8-3.5,1.9-13.5,1-15.5l-15.8,7.8
					c-0.2,0.1-0.5,0-0.6-0.2c-0.1-0.2,0-0.5,0.2-0.6l16.2-7.9c0.1,0,0.2-0.1,0.3,0c0.1,0,0.2,0.1,0.2,0.2c0.2,0.5,6,12.7-1.1,17
					C336.3,560.7,336.2,560.7,336.1,560.7z"/>
			</g>
			<path class="st55" d="M326.2,608.6c-2.4-0.8-2.9,0.1-13.9,0.1c-4.1,0-7.1-0.1-7.1-0.1s-3,0-7.1,0.1c-8.5,0-10.7-0.9-13.9-0.1
				c-2.6,0.7-6.3,2.4-10,7.6c11.2,3.1,20.5,3.9,27,4.1c6.3,0.2,12.1-0.2,16.2-0.5c7-0.5,12.9-1.3,17.2-1.9
				C331.9,611.6,328.7,609.4,326.2,608.6z"/>
			<path class="st54" d="M754.5,589l6.3,36.5c0,0-6.8,18.1-23.1,16.2c-12.5-1.5-20.6-16.2-20.6-16.2s6.9-24.8,4.8-33.5
				C720,583.3,754.5,589,754.5,589z"/>
			<path class="st56" d="M717.2,618.5c0,0,24.4,1.5,43.7,0c0,0,2.7,18.1,2.1,18.5c-0.6,0.5-0.9,9.1-11.2,6.1
				c-10.2-3-33.5-5.5-33.7-6.1c-0.2-0.6-2.7-11.5-2.8-12.1C715,624.3,717.2,618.5,717.2,618.5z"/>
			<path class="st57" d="M594,660.8c-5.6-5-10-5.9-19.3-12.8c-8.4-6.2-14.3-12.5-18-16.9h-30.1h-30.1c-8.3,5.8-20.5,14.5-35.2,25.3
				c-10.9,8-16.3,12-17.3,13c-0.7,0.7-1.5,1.6-2.3,2.6c-10.9,13.9-12.8,59.4-13.3,69.3c-0.4,9.9-1.3,24.1-3.6,41.3
				c34.1,1.2,69.4,1.8,105.9,1.6c26.6-0.1,52.6-0.7,77.9-1.6c-0.2-7.5-0.2-19.4,0.4-33.9c1.3-30.4,4.2-39.9,0-57.6
				C606.5,680.7,603.6,669.4,594,660.8z"/>
			<path class="st58" d="M550.1,624.7c-10.2,0.2-23.7,0-23.7,0s-13.5,0.2-23.7,0c-10.2-0.2-12.1,10.2-12.1,10.2
				c9.2,1.5,35.8,0.9,35.8,0.9s26.6,0.7,35.8-0.9C562.2,634.9,560.3,624.6,550.1,624.7z"/>
			<path class="st59" d="M808.9,637.1c-7.6-3.2-11.2-4.1-18.9-7c-5.7-2.1-13.9-5.5-23.8-10.6c-8.9,0.9-18.6,1.4-29,1.5
				c-9,0.1-17.5-0.3-25.4-0.8c-3.4,1.6-8.5,4-15,6.4c-7.3,2.8-12.6,4.7-15.4,5.1c0,0-15.2,2.6-30.5,13.8c-9.6,7-15,18.4-20.3,59.5
				c-2.5,19.2-5,45.3-5.5,76.6c36.6-0.4,73.3-0.9,109.9-1.4c39.9-0.6,79.9-1.2,119.8-1.9c-0.9-6.5-2.1-16.4-3.3-28.5
				c-3.2-31.5-2.1-36.3-4.9-53.6c-3.9-23.3-6.7-39.2-19.7-49.8C823.6,643.7,816.2,640.2,808.9,637.1z"/>
			<path class="st60" d="M758,609.4c-8.2,0.2-19,0-19,0s-10.9,0.2-19,0c-8.2-0.2-9.7,10.6-9.7,10.6c7.4,1.6,28.8,0.9,28.8,0.9
				s21.4,0.7,28.8-0.9C767.8,620,766.2,609.2,758,609.4z"/>
			<path class="st61" d="M992.5,566.5c-2.4,5.3-1.8,10.7,1.3,12.1c3.2,1.5,7.7-1.6,10.1-6.9c2.4-5.3,1.8-10.7-1.3-12.1
				C999.5,558.1,994.9,561.2,992.5,566.5z"/>
			<path class="st62" d="M945.9,552c0,0-13.2,31-10,49.6c2.1,7.7,7.1,5,9.2,7.9c2.1,2.9-9.7,43.5-9.7,43.5l37.2,6.5
				c0,0,23.7-54.4,24.5-75.9C997.9,562.1,962.1,539.8,945.9,552z"/>
			<path class="st63" d="M1044.7,649.9c-3.8-2.4-8.9-4.4-19.3-8.6c-12-4.8-22.1-8-28.9-10.1c-19.6,0-39.1,0-58.7,0
				c-5.5,3.3-14.3,8.2-25.7,13c-12.4,5.3-17.6,6.2-23.3,11c-9.2,7.7-10.9,18.5-12.4,26.4c-6.9,35.7-7.2,91.7-7.3,99.5
				c32.8,0.9,66.7,1.4,101.5,1.3c37.3-0.1,73.5-0.9,108.5-2.3c-2.8-19-6.8-45.3-12.3-77.3C1062.5,677.4,1059.1,659,1044.7,649.9z"/>
			<path class="st55" d="M982.5,623.7c-8.4,0.1-19.4,0-19.4,0s-11.1,0.1-19.4,0c-8.4-0.1-9.9,8.2-9.9,8.2c7.6,1.2,29.4,0.7,29.4,0.7
				s21.8,0.5,29.4-0.7C992.5,631.9,990.9,623.6,982.5,623.7z"/>
			<path class="st64" d="M219.4,779.2h163.6l5.4-94.3c0.2-3.7-2.5-6.8-6-6.8H220c-3.5,0-6.2,3-6,6.8L219.4,779.2z"/>
			<path class="st64" d="M446.7,784.2h163.6l5.4-94.3c0.2-3.7-2.5-6.8-6-6.8H447.3c-3.5,0-6.2,3-6,6.8L446.7,784.2z"/>
			<path class="st64" d="M654.9,780.2h163.6l5.4-94.3c0.2-3.7-2.5-6.8-6-6.8H655.5c-3.5,0-6.2,3-6,6.8L654.9,780.2z"/>
			<path class="st64" d="M896.4,782.2h163.6l5.4-94.3c0.2-3.7-2.5-6.8-6-6.8H897c-3.5,0-6.2,3-6,6.8L896.4,782.2z"/>
		</g>
		<path class="st25" d="M978.4,529.5c0,0-29.5-2.3-39.3,21.6c-9.1,23.2,23.1,33.2,21,55.6c-2.1,22.4-24.5,23.9-20.3,51
			c4.2,27,14.7,31.7,2.8,63.3c-11.9,31.7-11.2,58.7,30.2,74.1c41.4,15.4,79.3-6.2,88.4-51.7c9.1-45.5-37.1-86.6-42-122.1
			c-4.9-35.5-1.8-48.7-8.2-65.2C1004.2,538.5,990.3,531,978.4,529.5z"/>
		<path class="st65" d="M735.6,601.6c-2.1,0.5-5.7,1.1-9.7-0.2c-9-3-12.2-13.5-12.7-15c-1.8-6-0.1-7.2-2.3-12.6
			c-1.4-3.5-5.3-4.8-4.9-9.3c0.2-2.9,2.3-5.4,5.2-6.5c-1.9-2-5-5.9-5.8-11.3c-1.9-13.3,11.6-23.1,14.5-25.1
			c3.4-2.3,11.5-7.8,18.9-4.3c3.4,1.6,5.5,4.6,6.5,6.5c1.1-1.1,3-2.7,5.6-3.7c8.3-3.1,18.2,1.9,23.2,9.1c2.9,4.2,3.6,8.4,3.8,10.4
			c0.5,4.9-0.9,7.7-2.1,12.9c-2,9.2,0.6,9.8-0.8,17.7c-1.9,10.9-8.5,18.3-14.9,25.6c-4.3,4.9-6.6,6.2-8.6,7
			C744.9,605.5,738.2,602.8,735.6,601.6z"/>
		<g>
			<path class="st54" d="M533.1,546.1c1.9,0.3,4.8,3.7,6.2,5.6c2.6,3.7,3.4,7.3,3.7,9.2c0.8,4.1,5.9,31.7,0.7,35.4
				c-1.9,1.4-3.5,1.9-3.5,1.9c-2.5,0.9-3.5,0.2-6,3.5c-2.7,3.6-1.6,7.4,0.2,16c0.1,0.5,11.7-1,12.1-0.6c0.9,0.9,0.3,17.1-20.7,23.2
				c-19.9,5.8-28-5.8-28.5-6.7c-0.3-0.5,13.6-7.7,13.6-8.3c0.4-8.2-2.3-21-2.3-21C522.5,556.1,529.4,545.5,533.1,546.1z"/>
		</g>
		<g>
			<path class="st65" d="M538.6,544.8c1.5,2.3,4.9,7.9,4.9,14.3c0,2.9-0.7,2.2-0.9,6.1c-0.1,3.3,0.3,5.7-0.9,9
				c-0.3,0.8-0.4,0.8-0.6,1.5c-0.7,2.1-0.5,3.7-0.4,6.7c0.2,4.6,0,7.1,0,8.2c0.3,10.6,25.4,41.4,28,68c0.3,3.1,1.7,14.2-4,25.3
				c-6.2,12.1-20.7,21.9-51.9,32.2c-42,13.8-76.6-29.2-79-50.1c-1-9,0.4-15,3.3-19.4c8.1-12.2,21.9-9,34.4-22.9
				c1.3-1.5,8.4-9.6,10.5-21.5c2.9-16.8-7.7-21.9-5.8-38.3c0.2-2.2,2.6-20.7,18.4-29.4c14.3-7.8,29.7-2,34.8,1
				C535,539,538,544,538.6,544.8z"/>
		</g>
		<path class="st66" d="M313.3,564.2c0.3,2.3,1.9,4.1,3.9,4.7c2.2,0.7,4-0.4,4.4-0.6"/>
		<line class="st66" x1="212.9" y1="631.8" x2="218.7" y2="601.2"/>
	</g>
</g>
<g>
	<path class="st67" d="M115.3,239.5c0,23-13.7,41.7-36.7,41.7s-37.5-18.7-37.5-41.7s14.5-38.3,37.5-38.3S115.3,216.5,115.3,239.5z"
		/>
	<path class="st13" d="M83.7,243.3c18.6-9.3,0.1-34-13.8-18.3C61.9,234.4,73.5,247.3,83.7,243.3z M79.3,221.9
		c12.8-2.2,14,19.7,1.1,20.3C65.8,242.4,65.9,222.5,79.3,221.9z"/>
	<path class="st13" d="M60.4,234.3c0,2.4,2.3,3.6,3.1,5.4c-0.8,4,2.1,8.3,5.9,8.7c-1.9,6.2-13.4,26.8-0.3,13.9
		c2.5,11.9,8.3-7.1,10.7-10.6c0.4,0,0.7,0,1.1-0.1c2.1,5.1,7.5,22.7,9.9,8.3c1.2-0.2,2.5,1.3,3.7,1.1c1.9-3.8-2.8-10.5-3.5-14.5
		c2.2-1,3.7-2.9,3.9-5.2c0.3-3.2,3.4-4.9,4-8c0.4-2.4-0.4-4.9-2.3-6.1c-1.2-0.4-0.6-1.4-0.4-2.3c0.5-4.8-3.8-8-8.2-8.1
		c-1.9-4.1-6.7-4-10.2-0.7c-3.6-1.9-7.5-0.7-9.3,2.7c-4.5-1.2-6.6,4.2-5.4,7.9C61.6,228.4,59.9,231,60.4,234.3z M77.8,251.7
		c-1.9,4.2-4,8.2-6.3,12.1c-1.9-6.8-2.7-3.2-6.4-0.2c2.2-5.4,4.3-10.6,6.2-15.4c0.4-0.1,0.8-0.3,1.2-0.4c1.6,1.8,3.5,3.1,5.5,3.6
		L77.8,251.7z M91.5,253.4c0.6,1.7,1.4,3.5,1.7,5.3c-4-2.8-4.5,2-5.4,4.9c-2-4.2-3.6-8-5.4-12.6c2.6-1.2,3.5-4.6,6.8-4.2L91.5,253.4
		z M64.7,227.5c0.1-2.4-1.1-8.4,3.7-6.9c2.8-0.2,2.8-6,8.4-2.8c-0.1,0-0.2,0.1-0.2,0.2c0,0,0,0,0,0l0.4-0.2c1.7,1.4,3.7-3,6-2.4
		c1.9-0.1,2.5,1.1,3.4,2.2c3.3,2.1,9.2,1.4,7.8,7.6c-1.1,3.3,4.4,4.3,3,7.9c-0.5,2.6-3.4,3.9-3.9,6.4c-0.4,1.7-0.1,3.1-1.7,4.5
		c-2,2-4.9,0.6-6.8,2.2c-5,7.7-8.1,1.8-12.5-0.4c-3.5,2.2-7.6-1.1-7.2-5c0.1-1.1,0.6-2.3-0.4-3.1C60.7,235.5,62.1,229.4,64.7,227.5z
		"/>
	<path class="st13" d="M74.4,232.7c0.8,0.2,1.6,0.6,2.3,1c-1.9,4.7,0.5,5,3.1,2c4,2.4,4.9,1,2.7-2.9c2.3-2.3,2-4.3-1.3-2.6
		c-1.9-4.2-3.1-2.9-3.7,0.8C76.2,230.9,72.1,230.7,74.4,232.7z"/>
</g>
<g>
	<path class="st68" d="M1080,253.8c0,24.5-19.9,37.3-44.4,37.3c-24.5,0-35.6-12.8-35.6-37.3s17.2-35.6,41.8-35.6
		C1066.3,218.3,1080,229.3,1080,253.8z"/>
	<path class="st13" d="M1013.4,259.8c1.3,0.9,5.9,2.2,5.9,3.5c-0.8,2.5,1.8,4.7,1,7.4c-0.5,3.6,5.2,2.4,7,1.1c2.1-3.1-3.8-5.3-4-8.4
		c-6.4-4.1-19.9-8.2-6.1-14.6c3-3.9,1.4-3.2,5.6-0.3c4.6,2,3.7,6.1,3.7,10.5c1.4,13.7,30.1,12.1,32.1,0.2c-0.1-0.6-0.6-8-0.4-8.3
		c2.8-2.2,7.4-3.1,8.9-6.5c-9.1-5.5-21.4-14.2-32.6-10.7c-5.3,2.5-16.4,4.2-17.4,10.5c0.6,1.2,0,2.2-1,3.2
		C1010.5,249.7,1005.8,256,1013.4,259.8z M1022.9,266.8c1.7,0.7,2.8,3,2.9,3.9c-1.2,0.5-4.8,2.1-4-1.4
		C1022,268.3,1021,266.1,1022.9,266.8z M1020.8,264.5c0.1-0.8,1.5-0.6,1.3,0.3C1022,265.6,1020.6,265.4,1020.8,264.5z M1051.3,264.5
		c-10.3,4.8-26.4,2.3-23.2-12.4c11.1,6.4,14.6,8.6,25.8,0.9c0.2,1-0.1,2.1-0.6,2.9C1052.3,259,1057.4,263.3,1051.3,264.5z
		 M1054.8,257.8c-0.2-0.4-0.4-1-0.2-1.4C1054.9,256.7,1055.1,257.4,1054.8,257.8z M1056.7,261.1c-0.4,0.6-0.7,0.7-0.7,0.7
		c0,0,0,0,0,0l0,0c0,0,0,0,0,0c-0.8-1.1-0.3-2.6,0.4-3.7c0.7-2.1-2.4-5.1,0.2-6.5C1056.6,254.6,1057.5,258.3,1056.7,261.1z
		 M1029.7,237.3c12.6-6.8,24,1.3,34.8,7.2c-4.4,3.5-19.4,11.8-21.8,12.2c-6.7-1.9-17.9-7.6-23.6-13.8
		C1021.2,241.2,1025.5,238.9,1029.7,237.3z M1019.1,242.9L1019.1,242.9l-0.3-0.3L1019.1,242.9z"/>
</g>
<g>
	<path class="st42" d="M297.3,75.7c-1.6,14.9-17.9,37.5-39.9,37.5s-39.2-26.4-39.9-37.5c-1.4-22,17.9-39.9,39.9-39.9
		S299.6,53.8,297.3,75.7z"/>
	<path class="st13" d="M266.4,88.1c16.1-14.3-3.7-38.7-20.2-22.8c-4.9,7.1-5.1,21.8,3.6,25.5c0,1.7,0.8,3.1,2.3,3.9
		c-0.5,1.8,0.3,3.3,1.9,4.1c-0.9,5.2,9.8,3.6,8.5-1.1c1.4-1,2.4-2.9,1.7-4.6C265.7,91.8,266.5,90,266.4,88.1z M245,82.6
		c-7.8-23.4,27.3-29.5,25.5-5.9c0.2,7.7-5.7,12.5-12.4,13.3c-0.5-4-0.4-7.8,0.6-11.7c6.5-1.8,1.6-7-0.9-1.2
		c-1.2,0.5-2.6,0.8-3.9,1.2c-1.8-4.9-6.1,1.7-1.1,1.6c1.3,3.4,2,7.2,2.5,10.3C250,90.3,246.3,87.5,245,82.6z M256.6,88.6
		c-0.6-3.2-1.2-5.9-2.1-8.9c0.9-0.2,1.9-0.5,2.8-0.9C256.5,81.7,256.3,84.9,256.6,88.6z M258,100.5c-0.7,0-3,0.1-2.7-1.3
		c1.9,0.5,4.2,0.1,5.9-0.7C261,100.1,258.8,100.4,258,100.5z M262.3,95.9c-1.5,2.2-9,3.3-8.9-0.7c3,1,7.1,0.3,9.6-1.3
		C263.1,94.6,262.8,95.3,262.3,95.9z M263.8,91.6c-2.3,2.9-11.3,4.3-12.5-0.4c1.8,0.5,3.9,0.5,5.9,0.3c2.5-0.2,5.3-1.1,7.8-2.5
		C264.9,89.9,264.5,90.8,263.8,91.6z"/>
	<path class="st13" d="M242.9,61c0.7,0.6,1.5-0.6,0.9-1.2c-0.7-0.2-3.4-4.5-4.2-2.7C239.1,57.9,242.6,60.5,242.9,61z"/>
	<path class="st13" d="M238,69.5c0.8,0.2,1.4-1.2,0.5-1.4c-0.7,0.1-5-1.8-5-0.1C233.1,69,237.6,69.2,238,69.5z"/>
	<path class="st13" d="M234,78.8c0,0,4.5-0.2,4.5-0.2c3.2-2.1-3.7-1.2-4.4-1.3C233.4,77.4,233.1,78.8,234,78.8z"/>
	<path class="st13" d="M272.7,61.7c1.4-1.7,4.6-2,5.5-3.8C277.5,55.9,268.7,62.2,272.7,61.7z"/>
	<path class="st13" d="M276.3,70.7c0,0,5.7-1.4,5.7-1.4c0.8-0.2,0.8-1.4-0.1-1.4C281.4,68.3,273.4,69.1,276.3,70.7z"/>
	<path class="st13" d="M277.5,78c0,0,4.5-0.2,4.5-0.2c0.8,0,1.1-1.4,0.1-1.4C281.5,76.5,274.8,76.1,277.5,78z"/>
	<path class="st13" d="M253.6,50.1c-1.6-0.1-0.4,4.4-0.6,5.1c0.1,1,1.5,0.6,1.4-0.2C254.2,54.5,254.7,49.9,253.6,50.1z"/>
	<path class="st13" d="M266.2,51.6c0,0.7-3.3,5.2-1.4,5.2C265.6,57.2,269.3,49.1,266.2,51.6z"/>
</g>
<g>
	<path class="st33" d="M651.4,484.9c0,23-18.7,35.8-41.7,35.8c-23,0-38.3-12.8-38.3-35.8c0-23,23.7-41.3,38.3-41.7
		C632.7,442.6,651.4,461.9,651.4,484.9z"/>
	<path class="st13" d="M582.7,504c64.3-5.9,52.7,16.9,53.1-36.8c-3.5-4-0.6,32.5-1.4,32.2c1,4.4-3,2.5-5.7,2.7l1-29.6l-0.2-0.3
		c-3.6-0.3-8.6-1.5-11.7,0.5c-0.2,9.9-1.2,19.5-1.6,29.4c-1,0-2,0-3,0c-0.2-6.9-0.1-14.1,0.4-21.3l-0.2-0.3
		c-3.3-0.2-7.9-1.8-10.7,0.1c0,0-0.9,21.6-0.9,21.6c-1.1,0-2.2,0-3.4,0c-0.2-5.3-0.1-10.7,0.2-16l-0.2-0.3
		c-3.1-0.1-7.5-1.7-10.1,0.1c0,0-0.7,16.5-0.7,16.5C586.6,502.5,580.1,502.6,582.7,504z M635.3,500.1c0,0.6,0.1,1.1,0,1.5
		c0-0.7,0-1.5,0-2.2C635.3,499.6,635.3,499.8,635.3,500.1z M628.9,472.9l0,0.9c0-0.3,0-0.6-0.2-1
		C628.8,472.9,628.8,472.9,628.9,472.9z M619.5,473.1c1.8,0,8.2-1.2,8.6,1c0,3-0.9,24.6-1,28.1c-1.3,0-7.7,0-9.2,0
		C618.3,492.2,619.3,483.2,619.5,473.1L619.5,473.1z M617.8,489.7c0.4-5.4,0.7-11,0.9-16.5c-0.1,6.2-0.6,12-1,17.9
		C617.7,490.6,617.8,490.2,617.8,489.7z M612.8,481.2c0,0.2,0,0.4,0,0.6c0-0.2-0.1-0.4-0.2-0.6C612.6,481.2,612.7,481.2,612.8,481.2
		z M612.4,502C612.4,502,612.4,502,612.4,502c0-0.8,0-1.6-0.1-2.4C612.3,500.4,612.4,501.2,612.4,502z M604.3,481.3c0,0,0-0.2,0-0.3
		c2.3-0.1,5.1,0,7.3,0.4c0.4,6.5-0.6,14.2-0.1,20.7c-2.7,0-5.4,0-8.1,0L604.3,481.3z M597.8,486.6c0,0.3,0,0.6-0.1,0.9
		c0-0.3,0-0.6-0.2-0.9C597.6,486.6,597.7,486.6,597.8,486.6z M597.5,493c-0.1,3,0,6,0.1,9c0,0,0,0,0,0
		C597.5,499,597.4,496,597.5,493z M590,486.4L590,486.4c2.4-0.1,4.4,0.1,6.7,0.4c0.4,4.9-0.4,10.1,0.1,15.4c-2.6,0-5,0.1-7.5,0.2
		L590,486.4z M582.6,503.2l0,0.3l0,0L582.6,503.2C582.6,503.2,582.6,503.2,582.6,503.2z"/>
	<path class="st13" d="M621.7,464l-0.1,0.4c3,2.1,2.7-3.8,2.9-5.6c0.3-0.4,0.5-0.8,0.7-1.2c-0.4-0.7-1.9-1.2-2.4-0.7
		c-1.3,1.8-7.6,0-6.1,2.8c2,0.1,3.2,0.2,5.2-0.4c-6,9.7-20.1,12.4-34.8,16.2c15.3,0.8,28.9-6.5,35.5-14.1
		C622.2,462.3,621.9,463.1,621.7,464z"/>
</g>
</svg>
