<svg xmlns="http://www.w3.org/2000/svg" viewBox="0 0 1188 788" preserveAspectRatio="xMidYMid" width="1188" height="788" xmlns:xlink="http://www.w3.org/1999/xlink" style="shape-rendering:auto;display:block;background-position-x:0%;background-position-y:0%;background-size:auto;background-origin:padding-box;background-clip:border-box;fill:rgb(0, 0, 0);stroke:none;transform:none;opacity:1;background:scroll rgb(47, 51, 73) none  repeat;width:1188px;height:788px;;animation:none"><g style="fill:rgb(0, 0, 0);stroke:none;transform:none;opacity:1;;animation:none"><defs style="fill:rgb(0, 0, 0);stroke:none;transform:none;opacity:1;;animation:none"><filter height="3" width="3" y="-1" x="-1" id="blur-ytrfcswkyl-1" style="fill:rgb(0, 0, 0);stroke:none;transform:none;opacity:1;;animation:none"><feGaussianBlur stdDeviation="3" style="fill:rgb(0, 0, 0);stroke:none;transform:none;opacity:1;;animation:none"></feGaussianBlur></filter>
<filter height="3" width="3" y="-1" x="-1" id="blur-ytrfcswkyl-2" style="fill:rgb(0, 0, 0);stroke:none;transform:none;opacity:1;;animation:none"><feGaussianBlur stdDeviation="1.5" style="fill:rgb(0, 0, 0);stroke:none;transform:none;opacity:1;;animation:none"></feGaussianBlur></filter>
<filter height="3" width="3" y="-1" x="-1" id="blur-ytrfcswkyl-3" style="fill:rgb(0, 0, 0);stroke:none;transform:none;opacity:1;;animation:none"><feGaussianBlur stdDeviation="1" style="fill:rgb(0, 0, 0);stroke:none;transform:none;opacity:1;;animation:none"></feGaussianBlur></filter></defs>
<circle fill="#ff0000" r="3.4101216793060303" transform="matrix(1,0,0,1,1219.091796875,518.952880859375)" cy="0" cx="0" fill-opacity="0.613154" style="fill:rgb(255, 0, 0);stroke:none;transform:none;opacity:1;;animation:none"></circle>
<circle fill="#ffed00" r="5.024285793304443" transform="matrix(1,0,0,1,228.9565887451172,137.6875457763672)" cy="0" cx="0" fill-opacity="0.284281" style="fill:rgb(255, 237, 0);stroke:none;transform:none;opacity:1;;animation:none"></circle>
<circle fill="#ff0092" r="1.7913953065872192" transform="matrix(1,0,0,1,400.2790832519531,762.485595703125)" cy="0" cx="0" fill-opacity="0.446" style="fill:rgb(255, 0, 146);stroke:none;transform:none;opacity:1;;animation:none"></circle>
<circle fill="#c2ff00" r="15.376761436462402" transform="matrix(1,0,0,1,151.53616333007812,441.6216125488281)" cy="0" cx="0" fill-opacity="0.889056" style="fill:rgb(194, 255, 0);stroke:none;transform:none;opacity:1;;animation:none"></circle>
<circle fill="#00c7f2" r="2.356701612472534" transform="matrix(1,0,0,1,820.9127807617188,725.643310546875)" cy="0" cx="0" fill-opacity="0.26" style="fill:rgb(0, 199, 242);stroke:none;transform:none;opacity:1;;animation:none"></circle>
<circle fill="#c1f1fc" r="0" transform="matrix(1,0,0,1,582.3287353515625,447.3563232421875)" cy="0" cx="0" fill-opacity="0" style="fill:rgb(193, 241, 252);stroke:none;transform:none;opacity:1;;animation:none"></circle>
<circle fill="#ebffac" r="2.056185245513916" transform="matrix(1,0,0,1,38.091514587402344,324.1922607421875)" cy="0" cx="0" fill-opacity="0.400538" style="fill:rgb(235, 255, 172);stroke:none;transform:none;opacity:1;;animation:none"></circle>
<circle fill="#ffc2e5" r="2.6344852447509766" transform="matrix(1,0,0,1,228.28607177734375,160.44259643554688)" cy="0" cx="0" fill-opacity="0.285231" style="fill:rgb(255, 194, 229);stroke:none;transform:none;opacity:1;;animation:none"></circle>
<circle fill="#ffaaaa" r="6.233338832855225" transform="matrix(1,0,0,1,983.6134033203125,85.62760162353516)" cy="0" cx="0" fill-opacity="0.829231" style="fill:rgb(255, 170, 170);stroke:none;transform:none;opacity:1;;animation:none"></circle>
<circle fill="#ff0000" r="16.841278076171875" transform="matrix(1,0,0,1,1073.864501953125,400.1901550292969)" cy="0" cx="0" fill-opacity="0.829085" style="fill:rgb(255, 0, 0);stroke:none;transform:none;opacity:1;;animation:none"></circle>
<circle fill="#ffed00" r="2.182981491088867" transform="matrix(1,0,0,1,164.60797119140625,829.1593627929688)" cy="0" cx="0" fill-opacity="0.381077" style="fill:rgb(255, 237, 0);stroke:none;transform:none;opacity:1;;animation:none"></circle>
<circle fill="#ff0092" r="1.2120299339294434" transform="matrix(1,0,0,1,990.6221923828125,830.7041625976562)" cy="0" cx="0" fill-opacity="0.0739246" style="fill:rgb(255, 0, 146);stroke:none;transform:none;opacity:1;;animation:none"></circle>
<circle fill="#c2ff00" r="16.037960052490234" transform="matrix(1,0,0,1,1071.2164306640625,338.59173583984375)" cy="0" cx="0" fill-opacity="0.998501" style="fill:rgb(194, 255, 0);stroke:none;transform:none;opacity:1;;animation:none"></circle>
<circle fill="#00c7f2" r="1.3601545095443726" transform="matrix(1,0,0,1,820.911376953125,407.8557434082031)" cy="0" cx="0" fill-opacity="0.120154" style="fill:rgb(0, 199, 242);stroke:none;transform:none;opacity:1;;animation:none"></circle>
<circle fill="#c1f1fc" r="4.795800685882568" transform="matrix(1,0,0,1,1084.5233154296875,279.12689208984375)" cy="0" cx="0" fill-opacity="0.970077" style="fill:rgb(193, 241, 252);stroke:none;transform:none;opacity:1;;animation:none"></circle>
<circle fill="#ebffac" r="9.808762550354004" transform="matrix(1,0,0,1,855.1245727539062,484.4938049316406)" cy="0" cx="0" fill-opacity="0.347826" style="fill:rgb(235, 255, 172);stroke:none;transform:none;opacity:1;;animation:none"></circle>
<circle fill="#ffc2e5" r="2.946831464767456" transform="matrix(1,0,0,1,391.4239807128906,104.382080078125)" cy="0" cx="0" fill-opacity="0.339231" style="fill:rgb(255, 194, 229);stroke:none;transform:none;opacity:1;;animation:none"></circle>
<circle fill="#ffaaaa" r="0" transform="matrix(1,0,0,1,888.860595703125,461.8848876953125)" cy="0" cx="0" fill-opacity="0" style="fill:rgb(255, 170, 170);stroke:none;transform:none;opacity:1;;animation:none"></circle>
<circle fill="#ff0000" r="9.672296524047852" transform="matrix(1,0,0,1,42.97502517700195,360.05670166015625)" cy="0" cx="0" fill-opacity="0.912615" style="fill:rgb(255, 0, 0);stroke:none;transform:none;opacity:1;;animation:none"></circle>
<circle fill="#ffed00" r="8.64139175415039" transform="matrix(1,0,0,1,1047.7891845703125,313.82598876953125)" cy="0" cx="0" fill-opacity="0.981" style="fill:rgb(255, 237, 0);stroke:none;transform:none;opacity:1;;animation:none"></circle>
<circle fill="#ff0092" r="7.845362663269043" transform="matrix(1,0,0,1,1012.1871948242188,388.74017333984375)" cy="0" cx="0" fill-opacity="0.796" style="fill:rgb(255, 0, 146);stroke:none;transform:none;opacity:1;;animation:none"></circle>
<circle fill="#c2ff00" r="11.460245132446289" transform="matrix(1,0,0,1,726.5015258789062,614.3035278320312)" cy="0" cx="0" fill-opacity="0.780879" style="fill:rgb(194, 255, 0);stroke:none;transform:none;opacity:1;;animation:none"></circle>
<circle fill="#00c7f2" r="0.9648720026016235" transform="matrix(1,0,0,1,214.76589965820312,543.3458862304688)" cy="0" cx="0" fill-opacity="0.0887692" style="fill:rgb(0, 199, 242);stroke:none;transform:none;opacity:1;;animation:none"></circle>
<circle fill="#c1f1fc" r="9.11352252960205" transform="matrix(1,0,0,1,292.87713623046875,579.40234375)" cy="0" cx="0" fill-opacity="0.817" style="fill:rgb(193, 241, 252);stroke:none;transform:none;opacity:1;;animation:none"></circle>
<circle fill="#ebffac" r="4.133091926574707" transform="matrix(1,0,0,1,958.3238525390625,517.5162963867188)" cy="0" cx="0" fill-opacity="0.850154" style="fill:rgb(235, 255, 172);stroke:none;transform:none;opacity:1;;animation:none"></circle>
<circle fill="#ffc2e5" r="8.897465705871582" transform="matrix(1,0,0,1,432.8741149902344,680.6644897460938)" cy="0" cx="0" fill-opacity="0.845" style="fill:rgb(255, 194, 229);stroke:none;transform:none;opacity:1;;animation:none"></circle>
<circle fill="#ffaaaa" r="0" transform="matrix(1,0,0,1,869.7076416015625,180.63026428222656)" cy="0" cx="0" fill-opacity="0" style="fill:rgb(255, 170, 170);stroke:none;transform:none;opacity:1;;animation:none"></circle>
<circle fill="#ff0000" r="6.728543758392334" transform="matrix(1,0,0,1,421.3806457519531,395.6114501953125)" cy="0" cx="0" fill-opacity="0.377696" style="fill:rgb(255, 0, 0);stroke:none;transform:none;opacity:1;;animation:none"></circle>
<circle fill="#ffed00" r="0.5340741872787476" transform="matrix(1,0,0,1,485.7442626953125,73.22272491455078)" cy="0" cx="0" fill-opacity="0.0693846" style="fill:rgb(255, 237, 0);stroke:none;transform:none;opacity:1;;animation:none"></circle>
<circle fill="#ff0092" r="5.902400970458984" transform="matrix(1,0,0,1,1003.6732177734375,247.81915283203125)" cy="0" cx="0" fill-opacity="0.380694" style="fill:rgb(255, 0, 146);stroke:none;transform:none;opacity:1;;animation:none"></circle>
<circle fill="#c2ff00" r="9.07919692993164" transform="matrix(1,0,0,1,462.5393981933594,249.65724182128906)" cy="0" cx="0" fill-opacity="0.965538" style="fill:rgb(194, 255, 0);stroke:none;transform:none;opacity:1;;animation:none"></circle>
<circle fill="#00c7f2" r="0" transform="matrix(1,0,0,1,464.7819519042969,149.34857177734375)" cy="0" cx="0" fill-opacity="0" style="fill:rgb(0, 199, 242);stroke:none;transform:none;opacity:1;;animation:none"></circle>
<circle fill="#c1f1fc" r="0" transform="matrix(1,0,0,1,1061.58056640625,13.3656005859375)" cy="0" cx="0" fill-opacity="0" style="fill:rgb(193, 241, 252);stroke:none;transform:none;opacity:1;;animation:none"></circle>
<circle fill="#ebffac" r="2.278242826461792" transform="matrix(1,0,0,1,613.632568359375,68.06187438964844)" cy="0" cx="0" fill-opacity="0.507154" style="fill:rgb(235, 255, 172);stroke:none;transform:none;opacity:1;;animation:none"></circle>
<circle fill="#ffc2e5" r="6.431236267089844" transform="matrix(1,0,0,1,188.8799591064453,380.30853271484375)" cy="0" cx="0" fill-opacity="0.750462" style="fill:rgb(255, 194, 229);stroke:none;transform:none;opacity:1;;animation:none"></circle>
<circle fill="#ffaaaa" r="0" transform="matrix(1,0,0,1,851.3699340820312,129.3881072998047)" cy="0" cx="0" fill-opacity="0" style="fill:rgb(255, 170, 170);stroke:none;transform:none;opacity:1;;animation:none"></circle>
<circle fill="#ff0000" r="10.682391166687012" transform="matrix(1,0,0,1,287.5651550292969,436.6976013183594)" cy="0" cx="0" fill-opacity="0.814093" style="fill:rgb(255, 0, 0);stroke:none;transform:none;opacity:1;;animation:none"></circle>
<circle fill="#ffed00" r="0" transform="matrix(1,0,0,1,580.7173461914062,609.6063232421875)" cy="0" cx="0" fill-opacity="0" style="fill:rgb(255, 237, 0);stroke:none;transform:none;opacity:1;;animation:none"></circle>
<circle fill="#ff0092" r="0" transform="matrix(1,0,0,1,381.29803466796875,53.95610046386719)" cy="0" cx="0" fill-opacity="0" style="fill:rgb(255, 0, 146);stroke:none;transform:none;opacity:1;;animation:none"></circle>
<circle fill="#c2ff00" r="0" transform="matrix(1,0,0,1,976.2006225585938,217.8629150390625)" cy="0" cx="0" fill-opacity="0" style="fill:rgb(194, 255, 0);stroke:none;transform:none;opacity:1;;animation:none"></circle>
<circle fill="#00c7f2" r="3.74782133102417" transform="matrix(1,0,0,1,612.68603515625,35.035213470458984)" cy="0" cx="0" fill-opacity="0.488769" style="fill:rgb(0, 199, 242);stroke:none;transform:none;opacity:1;;animation:none"></circle>
<circle fill="#c1f1fc" r="3.338458299636841" transform="matrix(1,0,0,1,549.335205078125,214.4325408935547)" cy="0" cx="0" fill-opacity="0.419077" style="fill:rgb(193, 241, 252);stroke:none;transform:none;opacity:1;;animation:none"></circle>
<circle fill="#ebffac" r="11.204320907592773" transform="matrix(1,0,0,1,400.2286376953125,125.7369613647461)" cy="0" cx="0" fill-opacity="0.616192" style="fill:rgb(235, 255, 172);stroke:none;transform:none;opacity:1;;animation:none"></circle>
<circle fill="#ffc2e5" r="0.8682520389556885" transform="matrix(1,0,0,1,357.07672119140625,206.14816284179688)" cy="0" cx="0" fill-opacity="0.175385" style="fill:rgb(255, 194, 229);stroke:none;transform:none;opacity:1;;animation:none"></circle>
<circle fill="#ffaaaa" r="1.0657340288162231" transform="matrix(1,0,0,1,372.77801513671875,297.32379150390625)" cy="0" cx="0" fill-opacity="0.266231" style="fill:rgb(255, 170, 170);stroke:none;transform:none;opacity:1;;animation:none"></circle>
<circle fill="#ff0000" r="16.416324615478516" transform="matrix(1,0,0,1,182.84939575195312,246.22018432617188)" cy="0" cx="0" fill-opacity="0.425787" style="fill:rgb(255, 0, 0);stroke:none;transform:none;opacity:1;;animation:none"></circle>
<circle fill="#ffed00" r="3.5910634994506836" transform="matrix(1,0,0,1,53.51423263549805,715.3843994140625)" cy="0" cx="0" fill-opacity="0.728385" style="fill:rgb(255, 237, 0);stroke:none;transform:none;opacity:1;;animation:none"></circle>
<circle fill="#ff0092" r="2.4088549613952637" transform="matrix(1,0,0,1,192.96678161621094,-50.18305969238281)" cy="0" cx="0" fill-opacity="0.263692" style="fill:rgb(255, 0, 146);stroke:none;transform:none;opacity:1;;animation:none"></circle>
<circle fill="#c2ff00" r="6.4504780769348145" transform="matrix(1,0,0,1,972.9639282226562,693.3320922851562)" cy="0" cx="0" fill-opacity="0.371468" style="fill:rgb(194, 255, 0);stroke:none;transform:none;opacity:1;;animation:none"></circle>
<circle fill="#00c7f2" r="0" transform="matrix(1,0,0,1,1113.9498291015625,652.3517456054688)" cy="0" cx="0" fill-opacity="0" style="fill:rgb(0, 199, 242);stroke:none;transform:none;opacity:1;;animation:none"></circle>
<circle fill="#c1f1fc" r="0" transform="matrix(1,0,0,1,1151.4742431640625,133.5453338623047)" cy="0" cx="0" fill-opacity="0" style="fill:rgb(193, 241, 252);stroke:none;transform:none;opacity:1;;animation:none"></circle>
<circle fill="#ebffac" r="0" transform="matrix(1,0,0,1,-17.147192001342773,302.5405578613281)" cy="0" cx="0" fill-opacity="0" style="fill:rgb(235, 255, 172);stroke:none;transform:none;opacity:1;;animation:none"></circle>
<circle fill="#ffc2e5" r="14.9891357421875" transform="matrix(1,0,0,1,1081.2012939453125,375.5673522949219)" cy="0" cx="0" fill-opacity="0.871987" style="fill:rgb(255, 194, 229);stroke:none;transform:none;opacity:1;;animation:none"></circle>
<circle fill="#ffaaaa" r="6.054902076721191" transform="matrix(1,0,0,1,324.8719177246094,10.52462387084961)" cy="0" cx="0" fill-opacity="0.516769" style="fill:rgb(255, 170, 170);stroke:none;transform:none;opacity:1;;animation:none"></circle>
<circle fill="#ff0000" r="2.086472511291504" transform="matrix(1,0,0,1,955.1958618164062,92.88323974609375)" cy="0" cx="0" fill-opacity="0.399077" style="fill:rgb(255, 0, 0);stroke:none;transform:none;opacity:1;;animation:none"></circle>
<circle fill="#ffed00" r="2.2128782272338867" transform="matrix(1,0,0,1,1124.560546875,862.8236083984375)" cy="0" cx="0" fill-opacity="0.182793" style="fill:rgb(255, 237, 0);stroke:none;transform:none;opacity:1;;animation:none"></circle>
<circle fill="#ff0092" r="0" transform="matrix(1,0,0,1,849.4314575195312,329.9086608886719)" cy="0" cx="0" fill-opacity="0" style="fill:rgb(255, 0, 146);stroke:none;transform:none;opacity:1;;animation:none"></circle>
<circle fill="#c2ff00" r="10.767119407653809" transform="matrix(1,0,0,1,805.3112182617188,324.4884033203125)" cy="0" cx="0" fill-opacity="0.903" style="fill:rgb(194, 255, 0);stroke:none;transform:none;opacity:1;;animation:none"></circle>
<circle fill="#00c7f2" r="0.03471730649471283" transform="matrix(1,0,0,1,926.771728515625,237.9683074951172)" cy="0" cx="0" fill-opacity="0.00807692" style="fill:rgb(0, 199, 242);stroke:none;transform:none;opacity:1;;animation:none"></circle>
<circle fill="#c1f1fc" r="6.3600335121154785" transform="matrix(1,0,0,1,229.9038848876953,522.76513671875)" cy="0" cx="0" fill-opacity="0.798769" style="fill:rgb(193, 241, 252);stroke:none;transform:none;opacity:1;;animation:none"></circle>
<circle fill="#ebffac" r="4.86824369430542" transform="matrix(1,0,0,1,424.0948791503906,43.24265670776367)" cy="0" cx="0" fill-opacity="0.807769" style="fill:rgb(235, 255, 172);stroke:none;transform:none;opacity:1;;animation:none"></circle>
<circle fill="#ffc2e5" r="0.010476693511009216" transform="matrix(1,0,0,1,304.6002502441406,657.123291015625)" cy="0" cx="0" fill-opacity="0.000923077" style="fill:rgb(255, 194, 229);stroke:none;transform:none;opacity:1;;animation:none"></circle>
<circle fill="#ffaaaa" r="1.5241724252700806" transform="matrix(1,0,0,1,-14.884415626525879,465.40313720703125)" cy="0" cx="0" fill-opacity="0.301615" style="fill:rgb(255, 170, 170);stroke:none;transform:none;opacity:1;;animation:none"></circle>
<circle fill="#ff0000" r="0.15992328524589539" transform="matrix(1,0,0,1,385.3823547363281,472.716796875)" cy="0" cx="0" fill-opacity="0.0139546" style="fill:rgb(255, 0, 0);stroke:none;transform:none;opacity:1;;animation:none"></circle>
<circle fill="#ffed00" r="0.5065110921859741" transform="matrix(1,0,0,1,57.28533172607422,324.1582946777344)" cy="0" cx="0" fill-opacity="0.0475" style="fill:rgb(255, 237, 0);stroke:none;transform:none;opacity:1;;animation:none"></circle>
<circle fill="#ff0092" r="0.07331643253564835" transform="matrix(1,0,0,1,109.59527587890625,361.2743835449219)" cy="0" cx="0" fill-opacity="0.0120769" style="fill:rgb(255, 0, 146);stroke:none;transform:none;opacity:1;;animation:none"></circle>
<circle fill="#c2ff00" r="0" transform="matrix(1,0,0,1,936.3900756835938,484.8667297363281)" cy="0" cx="0" fill-opacity="0" style="fill:rgb(194, 255, 0);stroke:none;transform:none;opacity:1;;animation:none"></circle>
<circle fill="#00c7f2" r="2.550567388534546" transform="matrix(1,0,0,1,124.68328857421875,435.5709533691406)" cy="0" cx="0" fill-opacity="0.331692" style="fill:rgb(0, 199, 242);stroke:none;transform:none;opacity:1;;animation:none"></circle>
<circle fill="#c1f1fc" r="5.434621810913086" transform="matrix(1,0,0,1,558.4653930664062,534.5967407226562)" cy="0" cx="0" fill-opacity="0.690154" style="fill:rgb(193, 241, 252);stroke:none;transform:none;opacity:1;;animation:none"></circle>
<circle fill="#ebffac" r="9.614182472229004" transform="matrix(1,0,0,1,240.35231018066406,638.806640625)" cy="0" cx="0" fill-opacity="0.574" style="fill:rgb(235, 255, 172);stroke:none;transform:none;opacity:1;;animation:none"></circle>
<circle fill="#ffc2e5" r="2.115187644958496" transform="matrix(1,0,0,1,1187.6036376953125,412.5114440917969)" cy="0" cx="0" fill-opacity="0.345692" style="fill:rgb(255, 194, 229);stroke:none;transform:none;opacity:1;;animation:none"></circle>
<circle fill="#ffaaaa" r="0" transform="matrix(1,0,0,1,282.1202392578125,458.8758544921875)" cy="0" cx="0" fill-opacity="0" style="fill:rgb(255, 170, 170);stroke:none;transform:none;opacity:1;;animation:none"></circle>
<circle fill="#ff0000" r="4.5803914070129395" transform="matrix(1,0,0,1,1160.6114501953125,481.2781982421875)" cy="0" cx="0" fill-opacity="0.933538" style="fill:rgb(255, 0, 0);stroke:none;transform:none;opacity:1;;animation:none"></circle>
<circle fill="#ffed00" r="11.674246788024902" transform="matrix(1,0,0,1,510.9465637207031,595.0460815429688)" cy="0" cx="0" fill-opacity="0.78134" style="fill:rgb(255, 237, 0);stroke:none;transform:none;opacity:1;;animation:none"></circle>
<circle fill="#ff0092" r="0.6983611583709717" transform="matrix(1,0,0,1,460.4163818359375,279.3462219238281)" cy="0" cx="0" fill-opacity="0.0855385" style="fill:rgb(255, 0, 146);stroke:none;transform:none;opacity:1;;animation:none"></circle>
<circle fill="#c2ff00" r="0.9425002336502075" transform="matrix(1,0,0,1,698.9130859375,143.16864013671875)" cy="0" cx="0" fill-opacity="0.110923" style="fill:rgb(194, 255, 0);stroke:none;transform:none;opacity:1;;animation:none"></circle>
<circle fill="#00c7f2" r="15.350007057189941" transform="matrix(1,0,0,1,996.5309448242188,265.6886901855469)" cy="0" cx="0" fill-opacity="0.926537" style="fill:rgb(0, 199, 242);stroke:none;transform:none;opacity:1;;animation:none"></circle>
<circle fill="#c1f1fc" r="0.963666558265686" transform="matrix(1,0,0,1,899.413818359375,101.57362365722656)" cy="0" cx="0" fill-opacity="0.180846" style="fill:rgb(193, 241, 252);stroke:none;transform:none;opacity:1;;animation:none"></circle>
<circle fill="#ebffac" r="0" transform="matrix(1,0,0,1,434.822021484375,199.2750244140625)" cy="0" cx="0" fill-opacity="0" style="fill:rgb(235, 255, 172);stroke:none;transform:none;opacity:1;;animation:none"></circle>
<circle fill="#ffc2e5" r="0.30277737975120544" transform="matrix(1,0,0,1,635.1993408203125,523.9190063476562)" cy="0" cx="0" fill-opacity="0.0190289" style="fill:rgb(255, 194, 229);stroke:none;transform:none;opacity:1;;animation:none"></circle>
<circle fill="#ffaaaa" r="0" transform="matrix(1,0,0,1,273.0034484863281,305.7276611328125)" cy="0" cx="0" fill-opacity="0" style="fill:rgb(255, 170, 170);stroke:none;transform:none;opacity:1;;animation:none"></circle>
<circle fill="#ff0000" r="2.2792625427246094" transform="matrix(1,0,0,1,308.5369567871094,829.8699951171875)" cy="0" cx="0" fill-opacity="0.382" style="fill:rgb(255, 0, 0);stroke:none;transform:none;opacity:1;;animation:none"></circle>
<circle fill="#ffed00" r="0" transform="matrix(1,0,0,1,88.61211395263672,466.8320617675781)" cy="0" cx="0" fill-opacity="0" style="fill:rgb(255, 237, 0);stroke:none;transform:none;opacity:1;;animation:none"></circle>
<circle fill="#ff0092" r="0" transform="matrix(1,0,0,1,681.0965576171875,594.8933715820312)" cy="0" cx="0" fill-opacity="0" style="fill:rgb(255, 0, 146);stroke:none;transform:none;opacity:1;;animation:none"></circle>
<circle fill="#c2ff00" r="4.840242862701416" transform="matrix(1,0,0,1,637.39697265625,743.5787963867188)" cy="0" cx="0" fill-opacity="0.895769" style="fill:rgb(194, 255, 0);stroke:none;transform:none;opacity:1;;animation:none"></circle>
<circle fill="#00c7f2" r="9.190157890319824" transform="matrix(1,0,0,1,270.1702575683594,253.31716918945312)" cy="0" cx="0" fill-opacity="0.802615" style="fill:rgb(0, 199, 242);stroke:none;transform:none;opacity:1;;animation:none"></circle>
<circle fill="#c1f1fc" r="13.089456558227539" transform="matrix(1,0,0,1,275.05322265625,410.60302734375)" cy="0" cx="0" fill-opacity="0.950525" style="fill:rgb(193, 241, 252);stroke:none;transform:none;opacity:1;;animation:none"></circle>
<circle fill="#ebffac" r="15.113099098205566" transform="matrix(1,0,0,1,737.3848876953125,605.7632446289062)" cy="0" cx="0" fill-opacity="0.993772" style="fill:rgb(235, 255, 172);stroke:none;transform:none;opacity:1;;animation:none"></circle>
<circle fill="#ffc2e5" r="11.024055480957031" transform="matrix(1,0,0,1,220.7180938720703,482.8691711425781)" cy="0" cx="0" fill-opacity="0.890462" style="fill:rgb(255, 194, 229);stroke:none;transform:none;opacity:1;;animation:none"></circle>
<circle fill="#ffaaaa" r="2.4703338146209717" transform="matrix(1,0,0,1,136.56251525878906,373.49725341796875)" cy="0" cx="0" fill-opacity="0.216923" style="fill:rgb(255, 170, 170);stroke:none;transform:none;opacity:1;;animation:none"></circle>
<circle fill="#ff0000" r="3.419727087020874" transform="matrix(1,0,0,1,1073.128173828125,550.3427124023438)" cy="0" cx="0" fill-opacity="0.801077" style="fill:rgb(255, 0, 0);stroke:none;transform:none;opacity:1;;animation:none"></circle>
<circle fill="#ffed00" r="5.3946919441223145" transform="matrix(1,0,0,1,974.8908081054688,857.59912109375)" cy="0" cx="0" fill-opacity="0.331796" style="fill:rgb(255, 237, 0);stroke:none;transform:none;opacity:1;;animation:none"></circle>
<circle fill="#ff0092" r="0" transform="matrix(1,0,0,1,867.5150756835938,-5.17850399017334)" cy="0" cx="0" fill-opacity="0" style="fill:rgb(255, 0, 146);stroke:none;transform:none;opacity:1;;animation:none"></circle>
<circle fill="#c2ff00" r="3.0923616886138916" transform="matrix(1,0,0,1,335.1145324707031,795.6671142578125)" cy="0" cx="0" fill-opacity="0.620231" style="fill:rgb(194, 255, 0);stroke:none;transform:none;opacity:1;;animation:none"></circle>
<circle fill="#00c7f2" r="0" transform="matrix(1,0,0,1,995.5477294921875,179.4061279296875)" cy="0" cx="0" fill-opacity="0" style="fill:rgb(0, 199, 242);stroke:none;transform:none;opacity:1;;animation:none"></circle>
<circle fill="#c1f1fc" r="0" transform="matrix(1,0,0,1,700.5887451171875,110.00587463378906)" cy="0" cx="0" fill-opacity="0" style="fill:rgb(193, 241, 252);stroke:none;transform:none;opacity:1;;animation:none"></circle>
<circle fill="#ebffac" r="5.662692546844482" transform="matrix(1,0,0,1,434.31585693359375,381.6095886230469)" cy="0" cx="0" fill-opacity="0.652769" style="fill:rgb(235, 255, 172);stroke:none;transform:none;opacity:1;;animation:none"></circle>
<circle fill="#ffc2e5" r="0" transform="matrix(1,0,0,1,435.5335998535156,689.0144653320312)" cy="0" cx="0" fill-opacity="0" style="fill:rgb(255, 194, 229);stroke:none;transform:none;opacity:1;;animation:none"></circle>
<circle fill="#ffaaaa" r="3.2394933700561523" transform="matrix(1,0,0,1,1095.1378173828125,639.5269775390625)" cy="0" cx="0" fill-opacity="0.21001" style="fill:rgb(255, 170, 170);stroke:none;transform:none;opacity:1;;animation:none"></circle>
<circle fill="#ff0000" r="3.7184457778930664" transform="matrix(1,0,0,1,265.310546875,125.63763427734375)" cy="0" cx="0" fill-opacity="0.670923" style="fill:rgb(255, 0, 0);stroke:none;transform:none;opacity:1;;animation:none"></circle>
<circle fill="#ffed00" r="5.21950626373291" transform="matrix(1,0,0,1,786.8882446289062,538.1337890625)" cy="0" cx="0" fill-opacity="0.501385" style="fill:rgb(255, 237, 0);stroke:none;transform:none;opacity:1;;animation:none"></circle>
<circle fill="#ff0092" r="9.43502426147461" transform="matrix(1,0,0,1,306.3895568847656,94.88412475585938)" cy="0" cx="0" fill-opacity="0.764964" style="fill:rgb(255, 0, 146);stroke:none;transform:none;opacity:1;;animation:none"></circle>
<circle fill="#c2ff00" r="4.855318069458008" transform="matrix(1,0,0,1,256.3446350097656,415.7393798828125)" cy="0" cx="0" fill-opacity="0.987" style="fill:rgb(194, 255, 0);stroke:none;transform:none;opacity:1;;animation:none"></circle>
<circle fill="#00c7f2" r="10.646843910217285" transform="matrix(1,0,0,1,357.18353271484375,408.3876647949219)" cy="0" cx="0" fill-opacity="0.598201" style="fill:rgb(0, 199, 242);stroke:none;transform:none;opacity:1;;animation:none"></circle>
<circle fill="#c1f1fc" r="0.5750502943992615" transform="matrix(1,0,0,1,496.72344970703125,697.2177124023438)" cy="0" cx="0" fill-opacity="0.137538" style="fill:rgb(193, 241, 252);stroke:none;transform:none;opacity:1;;animation:none"></circle>
<circle fill="#ebffac" r="0" transform="matrix(1,0,0,1,29.99079132080078,777.6049194335938)" cy="0" cx="0" fill-opacity="0" style="fill:rgb(235, 255, 172);stroke:none;transform:none;opacity:1;;animation:none"></circle>
<circle fill="#ffc2e5" r="5.7474045753479" transform="matrix(1,0,0,1,314.930419921875,358.6070251464844)" cy="0" cx="0" fill-opacity="0.545" style="fill:rgb(255, 194, 229);stroke:none;transform:none;opacity:1;;animation:none"></circle>
<circle fill="#ffaaaa" r="0" transform="matrix(1,0,0,1,1092.876953125,170.29055786132812)" cy="0" cx="0" fill-opacity="0" style="fill:rgb(255, 170, 170);stroke:none;transform:none;opacity:1;;animation:none"></circle>
<circle fill="#ff0000" r="4.688863277435303" transform="matrix(1,0,0,1,764.9904174804688,300.9866027832031)" cy="0" cx="0" fill-opacity="0.417846" style="fill:rgb(255, 0, 0);stroke:none;transform:none;opacity:1;;animation:none"></circle>
<circle fill="#ffed00" r="3.5575263500213623" transform="matrix(1,0,0,1,259.12286376953125,255.79922485351562)" cy="0" cx="0" fill-opacity="0.425846" style="fill:rgb(255, 237, 0);stroke:none;transform:none;opacity:1;;animation:none"></circle>
<circle fill="#ff0092" r="5.57097053527832" transform="matrix(1,0,0,1,837.817626953125,516.4522094726562)" cy="0" cx="0" fill-opacity="0.187406" style="fill:rgb(255, 0, 146);stroke:none;transform:none;opacity:1;;animation:none"></circle>
<circle fill="#c2ff00" r="8.393619537353516" transform="matrix(1,0,0,1,857.7341918945312,350.2141418457031)" cy="0" cx="0" fill-opacity="0.820615" style="fill:rgb(194, 255, 0);stroke:none;transform:none;opacity:1;;animation:none"></circle>
<circle fill="#00c7f2" r="9.176980972290039" transform="matrix(1,0,0,1,-14.517239570617676,34.15271759033203)" cy="0" cx="0" fill-opacity="0.771538" style="fill:rgb(0, 199, 242);stroke:none;transform:none;opacity:1;;animation:none"></circle>
<circle fill="#c1f1fc" r="5.309717178344727" transform="matrix(1,0,0,1,1192.1571044921875,584.2844848632812)" cy="0" cx="0" fill-opacity="0.890615" style="fill:rgb(193, 241, 252);stroke:none;transform:none;opacity:1;;animation:none"></circle>
<circle fill="#ebffac" r="0" transform="matrix(1,0,0,1,1046.6873779296875,66.61817932128906)" cy="0" cx="0" fill-opacity="0" style="fill:rgb(235, 255, 172);stroke:none;transform:none;opacity:1;;animation:none"></circle>
<circle fill="#ffc2e5" r="4.048884868621826" transform="matrix(1,0,0,1,314.28955078125,430.26116943359375)" cy="0" cx="0" fill-opacity="0.994846" style="fill:rgb(255, 194, 229);stroke:none;transform:none;opacity:1;;animation:none"></circle>
<circle fill="#ffaaaa" r="9.290081024169922" transform="matrix(1,0,0,1,43.98554229736328,385.0525817871094)" cy="0" cx="0" fill-opacity="0.565909" style="fill:rgb(255, 170, 170);stroke:none;transform:none;opacity:1;;animation:none"></circle>
<circle fill="#ff0000" r="1.2949403524398804" transform="matrix(1,0,0,1,265.6999816894531,458.41058349609375)" cy="0" cx="0" fill-opacity="0.107385" style="fill:rgb(255, 0, 0);stroke:none;transform:none;opacity:1;;animation:none"></circle>
<circle fill="#ffed00" r="12.62233829498291" transform="matrix(1,0,0,1,108.1089096069336,254.84381103515625)" cy="0" cx="0" fill-opacity="0.694384" style="fill:rgb(255, 237, 0);stroke:none;transform:none;opacity:1;;animation:none"></circle>
<circle fill="#ff0092" r="2.746204137802124" transform="matrix(1,0,0,1,979.7224731445312,426.6253967285156)" cy="0" cx="0" fill-opacity="0.237458" style="fill:rgb(255, 0, 146);stroke:none;transform:none;opacity:1;;animation:none"></circle>
<g style="fill:rgb(0, 0, 0);stroke:none;transform:none;opacity:1;;animation:none"></g></g><!-- [ldio] generated by https://loading.io --></svg>