<svg xmlns="http://www.w3.org/2000/svg" version="1.1" xmlns:xlink="http://www.w3.org/1999/xlink" xmlns:svgjs="http://svgjs.dev/svgjs" width="1440" height="2000" preserveAspectRatio="none" viewBox="0 0 1440 2000"><g mask="url(&quot;#SvgjsMask1040&quot;)" fill="none"><rect width="1440" height="2000" x="0" y="0" fill="rgba(245, 251, 255, 1)"></rect><path d="M0,492.798C102.059,498.032,212.194,519.173,299.123,465.444C386.41,411.494,410.994,300.344,458.517,209.398C508.992,112.804,577.459,24.309,586.393,-84.311C596.632,-208.795,602.482,-357.501,512.25,-443.867C421.507,-530.721,270.606,-476.767,147.972,-503.946C36.384,-528.677,-61.9,-612.28,-175.058,-596.191C-294.204,-579.25,-405.847,-510.588,-478.747,-414.837C-549.806,-321.503,-547.4,-197.181,-566.909,-81.509C-586.943,37.281,-652.929,166.149,-594.5,271.499C-535.957,377.055,-393.154,393.633,-280.034,435.741C-188.911,469.661,-97.104,487.818,0,492.798" fill="#dcf1ff"></path><path d="M1440 2851.308C1596.57 2860.666 1722.142 2726.522 1841.5430000000001 2624.812 1948.144 2534.006 2022.392 2419.421 2090.5879999999997 2297.114 2164.462 2164.623 2258.483 2034.441 2255.284 1882.78 2251.925 1723.55 2175.087 1573.754 2072.756 1451.714 1969.393 1328.444 1836.309 1214.9940000000001 1676.942 1193.049 1523.58 1171.931 1387.104 1275.104 1245.564 1337.812 1122.789 1392.2060000000001 1013.375 1457.671 903.953 1535.513 760.203 1637.775 521.4 1689.867 503.91700000000003 1865.412 486.17100000000005 2043.6 718.84 2138.169 829.947 2278.602 910.811 2380.81 973.146 2489.386 1068.164 2578.587 1182.546 2685.966 1283.392 2841.948 1440 2851.308" fill="#ffffff"></path></g><defs><mask id="SvgjsMask1040"><rect width="1440" height="2000" fill="#ffffff"></rect></mask></defs></svg>