<svg xmlns="http://www.w3.org/2000/svg" version="1.1" xmlns:xlink="http://www.w3.org/1999/xlink" xmlns:svgjs="http://svgjs.dev/svgjs" width="1440" height="1440" preserveAspectRatio="none" viewBox="0 0 1440 1440"><g mask="url(&quot;#SvgjsMask1365&quot;)" fill="none"><rect width="1440" height="1440" x="0" y="0" fill="rgba(255, 250, 221, 0.42)"></rect><path d="M0,474.534C85.553,456.901,151.414,396.735,221.222,344.228C285.888,295.589,350.556,248.437,392.551,179.272C438.34,103.859,490.038,18.456,471.379,-67.774C452.847,-153.416,362.905,-199.375,297.901,-258.133C240.867,-309.687,182.539,-354.299,114.595,-390.276C30.829,-434.631,-50.517,-504.013,-144.593,-492.438C-241.329,-480.535,-321.648,-407.358,-380.149,-329.401C-436.461,-254.361,-452.201,-159.789,-464.06,-66.722C-475.751,25.033,-477.95,117.104,-448.202,204.687C-416.249,298.76,-373.889,398.096,-288.774,449.341C-204.284,500.209,-96.591,494.442,0,474.534" fill="rgba(255, 240, 154, 0.42)"></path><path d="M1440 1921.123C1537.417 1932.837 1644.395 1939.512 1726.157 1885.269 1807.643 1831.209 1832 1726.46 1869.532 1636.161 1905.785 1548.94 1958.4279999999999 1460.808 1941.181 1367.941 1924.1190000000001 1276.075 1838.818 1218.046 1778.609 1146.594 1717.44 1074.003 1671.4850000000001 985.066 1585.201 945.492 1492.913 903.164 1387.008 900.125 1287.743 921.459 1183.6309999999999 943.835 1059.191 973.52 1011.582 1068.774 963.0350000000001 1165.906 1067.512 1276.819 1056.156 1384.812 1045.507 1486.08 918.123 1567.206 948.963 1664.249 979.0360000000001 1758.879 1106.915 1775.3600000000001 1194.898 1821.386 1274.671 1863.117 1350.615 1910.375 1440 1921.123" fill="rgba(255, 255, 255, 0.42)"></path></g><defs><mask id="SvgjsMask1365"><rect width="1440" height="1440" fill="#ffffff"></rect></mask></defs></svg>