<svg xmlns="http://www.w3.org/2000/svg" version="1.1" xmlns:xlink="http://www.w3.org/1999/xlink" xmlns:svgjs="http://svgjs.dev/svgjs" width="1440" height="3000" preserveAspectRatio="none" viewBox="0 0 1440 3000"><g mask="url(&quot;#SvgjsMask1469&quot;)" fill="none"><rect width="1440" height="3000" x="0" y="0" fill="rgba(182, 205, 242, 0.23)"></rect><path d="M0,797.729C144.785,767.238,219.504,612.939,332.601,517.537C428.242,436.86,537.415,379.501,613.528,280.189C706.283,159.163,853.578,30.803,819.55,-117.834C784.884,-269.258,557.361,-277.468,458.442,-397.242C355.589,-521.779,382.374,-741.831,240.477,-818.989C100.291,-895.216,-78.381,-830.181,-225.905,-769.361C-364.042,-712.411,-467.482,-602.736,-562.917,-487.77C-656.584,-374.933,-754.725,-256.633,-772.376,-111.051C-789.872,33.248,-715.324,166.939,-658.52,300.736C-600.155,438.209,-555.931,589.584,-436.722,679.552C-313.859,772.278,-150.623,829.449,0,797.729" fill="rgba(56, 119, 220, 0.23)"></path><path d="M1440 3688.148C1608.829 3716.191 1783.951 3850.3379999999997 1936.019 3771.821 2085.978 3694.393 2104.633 3486.287 2147.234 3322.983 2183.948 3182.245 2200.807 3036.681 2164.5389999999998 2895.827 2130.59 2763.9809999999998 2030.011 2668.206 1950.229 2557.884 1861.81 2435.618 1812.8600000000001 2264.703 1670.983 2213.343 1528.569 2161.7889999999998 1378.294 2252.415 1234.058 2298.627 1093.4180000000001 2343.687 930.47 2363.332 839.566 2479.721 749.549 2594.976 759.809 2756.35 762.361 2902.57 764.596 3030.648 807.302 3148.381 853.322 3267.927 902.327 3395.229 928.77 3543.5 1039.666 3622.932 1151.855 3703.29 1303.866 3665.535 1440 3688.148" fill="rgba(255, 255, 255, 0.23)"></path></g><defs><mask id="SvgjsMask1469"><rect width="1440" height="3000" fill="#ffffff"></rect></mask></defs></svg>