<svg xmlns="http://www.w3.org/2000/svg" version="1.1" xmlns:xlink="http://www.w3.org/1999/xlink" xmlns:svgjs="http://svgjs.dev/svgjs" width="1440" height="2000" preserveAspectRatio="none" viewBox="0 0 1440 2000"><g mask="url(&quot;#SvgjsMask1066&quot;)" fill="none"><rect width="1440" height="2000" x="0" y="0" fill="rgba(237, 250, 255, 0.55)"></rect><path d="M0,578.876C108.228,579.21,196.338,504.067,294.093,457.618C407.942,403.522,546.251,385.031,621.217,283.7C701.169,175.629,726.159,31.405,707.948,-101.787C689.677,-235.416,621.37,-361.426,520.731,-451.216C425.93,-535.798,297.151,-569.416,170.647,-581.169C59.37,-591.508,-39.63,-524.953,-150.809,-513.609C-296.811,-498.712,-471.688,-601.083,-582.073,-504.369C-688.65,-410.991,-619.578,-232.077,-633.121,-91.029C-645.902,42.086,-730.055,187.598,-659.416,301.145C-587.927,416.059,-417.653,403.274,-292.928,455.805C-193.304,497.764,-108.099,578.542,0,578.876" fill="rgba(212, 243, 255, 0.55)"></path><path d="M1440 2709.343C1609.255 2737.036 1788.513 2858.584 1939.504 2777.244 2089.13 2696.639 2077.506 2477.899 2152.627 2325.446 2230.721 2166.959 2390.973 2040.122 2389.777 1863.443 2388.547 1681.711 2294.756 1492.807 2146.284 1388.002 2003.661 1287.326 1805.201 1375.606 1636.273 1331.554 1475.149 1289.538 1352.256 1118.759 1186.837 1137.8049999999998 1018.1279999999999 1157.23 891.795 1300.283 782.076 1429.905 673.293 1558.422 591.954 1708.021 563.682 1874.005 534.936 2042.774 530.583 2228.697 621.288 2373.893 709.017 2514.326 882.325 2566.563 1035.546 2629.342 1165.344 2682.524 1301.57 2686.694 1440 2709.343" fill="rgba(255, 255, 255, 0.55)"></path></g><defs><mask id="SvgjsMask1066"><rect width="1440" height="2000" fill="#ffffff"></rect></mask></defs></svg>