<svg xmlns="http://www.w3.org/2000/svg" version="1.1" xmlns:xlink="http://www.w3.org/1999/xlink" xmlns:svgjs="http://svgjs.dev/svgjs" width="1440" height="2000" preserveAspectRatio="none" viewBox="0 0 1440 2000"><g mask="url(&quot;#SvgjsMask1151&quot;)" fill="none"><rect width="1440" height="2000" x="0" y="0" fill="rgba(255, 244, 242, 0.82)"></rect><path d="M0,522.684C97.547,510.903,186.526,471.962,269.936,420.029C354.382,367.45,428.285,303.385,484.275,221.161C548.755,126.468,611.562,25.855,616.288,-88.609C621.48,-214.346,600.464,-354.184,511.716,-443.405C423.884,-531.705,285.047,-543.397,160.548,-546.776C55.767,-549.62,-34.014,-487.761,-135.352,-460.967C-240.416,-433.188,-361.811,-455.199,-445.949,-386.417C-534.363,-314.139,-582.495,-199.046,-594.648,-85.497C-606.593,26.109,-561.308,132.979,-512.352,233.983C-464.333,333.055,-411.28,436.667,-315.363,490.714C-221.408,543.656,-107.066,535.614,0,522.684" fill="rgba(255, 223, 217, 0.82)"></path><path d="M1440 2559.626C1574.421 2589.358 1715.751 2681.81 1839.7939999999999 2622.091 1962.7849999999999 2562.878 2016.524 2407.456 2036.537 2272.429 2054.358 2152.197 1948.496 2049.128 1942.712 1927.721 1935.9560000000001 1785.892 2088.892 1625.45 2000.426 1514.388 1913.411 1405.147 1727.633 1514.537 1590.907 1486.058 1470.164 1460.908 1371.432 1329.1770000000001 1251.614 1358.415 1132.109 1387.576 1087.18 1531.641 1010.366 1627.72 937.019 1719.462 843.378 1796.659 810.979 1909.56 776.016 2031.399 758.258 2172.749 822.626 2281.945 886.079 2389.588 1025.762 2415.991 1139.719 2467.246 1237.201 2511.091 1335.634 2536.542 1440 2559.626" fill="rgba(255, 255, 255, 0.82)"></path></g><defs><mask id="SvgjsMask1151"><rect width="1440" height="2000" fill="#ffffff"></rect></mask></defs></svg>