<svg xmlns="http://www.w3.org/2000/svg" version="1.1" xmlns:xlink="http://www.w3.org/1999/xlink" xmlns:svgjs="http://svgjs.dev/svgjs" width="3000" height="1440" preserveAspectRatio="none" viewBox="0 0 3000 1440"><g mask="url(&quot;#SvgjsMask1275&quot;)" fill="none"><rect width="3000" height="1440" x="0" y="0" fill="rgba(236, 242, 242, 1)"></rect><path d="M0,950.011C175.025,950.472,307.138,800.957,447.866,696.892C579.525,599.533,710.551,503.464,794.216,362.706C884.589,210.662,935.597,41.202,942.647,-135.532C950.777,-339.352,972.283,-572.588,837.637,-725.817C703.041,-878.99,468.283,-880.572,265.924,-905.653C90.132,-927.441,-84.761,-916.999,-252.803,-860.968C-416.32,-806.446,-554.097,-706.767,-680.854,-589.964C-821.367,-460.486,-1025.688,-338.716,-1026.915,-147.648C-1028.168,47.351,-797.335,153.035,-686.658,313.586C-599.684,439.754,-558.742,590.367,-446.351,694.536C-318.02,813.479,-174.974,949.55,0,950.011" fill="#dee8e8"></path><path d="M3000 2325.3959999999997C3180.527 2343.038 3387.074 2376.27 3529.603 2264.0789999999997 3671.621 2152.29 3642.875 1932.1480000000001 3711.83 1765.0819999999999 3777.384 1606.256 3924.834 1478.885 3924.6040000000003 1307.062 3924.364 1127.392 3840.007 948.8969999999999 3710.573 824.285 3585.593 703.961 3399.119 696.234 3234.202 642.38 3063.302 586.572 2892.009 436.602 2724.677 502.337 2555.428 568.825 2554.366 813.367 2439.698 954.495 2330.386 1089.032 2142.5789999999997 1148.4560000000001 2071.309 1306.474 1989.603 1487.631 1924.592 1713.099 2018.5720000000001 1888.203 2112.687 2063.56 2351.194 2085.7 2532.989 2166.684 2686.2799999999997 2234.9700000000003 2832.983 2309.074 3000 2325.3959999999997" fill="#fafcfc"></path></g><defs><mask id="SvgjsMask1275"><rect width="3000" height="1440" fill="#ffffff"></rect></mask></defs></svg>