<svg width="460" height="108" viewBox="0 0 460 108" fill="none" xmlns="http://www.w3.org/2000/svg">
<rect width="460" height="108" fill="url(#paint0_linear_3896_23788)"/>
<g opacity="0.05">
<path d="M226.837 97.3768C226.832 97.3764 226.826 97.3761 226.82 97.3754C226.797 97.3736 226.774 97.3719 226.75 97.3698C226.722 97.3674 226.693 97.365 226.665 97.3622C226.643 97.3601 226.622 97.3577 226.6 97.3556C226.581 97.3535 226.563 97.3514 226.544 97.3494C226.521 97.3466 226.499 97.3438 226.477 97.341H226.474C226.427 97.3348 226.38 97.3282 226.333 97.3213C226.289 97.3147 226.245 97.3077 226.202 97.3005C226.115 97.2859 226.028 97.2696 225.943 97.2512C225.9 97.2422 225.858 97.2325 225.815 97.2228C225.778 97.2142 225.742 97.2055 225.705 97.1964C225.632 97.1784 225.56 97.159 225.488 97.1382C225.421 97.1188 225.354 97.0983 225.287 97.0772C225.225 97.0571 225.163 97.0363 225.102 97.0145C225.073 97.004 225.044 96.9936 225.016 96.9832C224.961 96.9627 224.907 96.942 224.853 96.9205C223.214 96.263 221.927 94.9686 221.337 93.364C221.328 93.3375 221.318 93.3112 221.309 93.2848C221.289 93.2294 221.27 93.1732 221.253 93.117C221.233 93.0571 221.215 92.9964 221.198 92.9357C221.18 92.8708 221.163 92.8054 221.147 92.7398C221.138 92.7048 221.13 92.6697 221.122 92.6344C221.105 92.5616 221.09 92.4884 221.077 92.4149C221.07 92.3771 221.064 92.3386 221.057 92.3005L221.057 92.2984C221.055 92.288 221.054 92.2776 221.052 92.2668C221.047 92.2381 221.043 92.2093 221.039 92.1805C221.038 92.1732 221.037 92.1659 221.036 92.159L221.036 92.1576C221.031 92.1177 221.025 92.0782 221.021 92.0384C221.015 91.9925 221.01 91.9468 221.007 91.9007C221.004 91.8778 221.003 91.8549 221.001 91.8317L221 91.8279C220.978 91.5727 220.755 91.375 220.485 91.375H219.151C218.881 91.375 218.658 91.5727 218.636 91.8279L218.635 91.8317C218.633 91.8549 218.631 91.8778 218.629 91.9007C218.625 91.9468 218.621 91.9925 218.615 92.0384C218.61 92.0806 218.605 92.1226 218.599 92.1646C218.594 92.2048 218.588 92.2454 218.581 92.2852C218.576 92.3168 218.571 92.3483 218.565 92.3795C218.56 92.4062 218.555 92.4329 218.55 92.4593C218.545 92.4856 218.54 92.512 218.535 92.5387C218.518 92.6205 218.499 92.7013 218.479 92.7817L218.478 92.7835C218.468 92.8237 218.458 92.864 218.446 92.9038C218.436 92.9437 218.425 92.9836 218.412 93.0231C218.403 93.0539 218.393 93.0851 218.384 93.1157C218.374 93.1455 218.364 93.1753 218.354 93.2048C218.345 93.2325 218.336 93.2599 218.326 93.2876C218.316 93.3147 218.307 93.3417 218.297 93.3687C218.278 93.4191 218.259 93.4693 218.239 93.5193C217.687 94.8972 216.616 96.0321 215.254 96.7086C215.21 96.7308 215.166 96.7519 215.121 96.7728C215.071 96.7967 215.021 96.8195 214.97 96.8414C214.945 96.8525 214.919 96.8635 214.894 96.8743C214.843 96.8961 214.791 96.917 214.74 96.9374C214.685 96.9593 214.629 96.9805 214.573 97.0006C214.545 97.0106 214.517 97.0206 214.488 97.0304C214.397 97.0619 214.304 97.0921 214.21 97.1198C214.178 97.1295 214.146 97.1389 214.113 97.1479C214.079 97.158 214.044 97.1673 214.009 97.1763C213.975 97.1857 213.94 97.1947 213.905 97.203C213.835 97.22 213.764 97.2363 213.693 97.2512C213.608 97.2693 213.521 97.2856 213.434 97.3005C213.391 97.3077 213.347 97.3147 213.303 97.3213C213.256 97.3282 213.209 97.3348 213.161 97.341H213.159C213.137 97.3438 213.114 97.3466 213.092 97.3494C213.073 97.3514 213.054 97.3535 213.035 97.3556C213.014 97.3577 212.992 97.3601 212.97 97.3622C212.942 97.365 212.914 97.3674 212.885 97.3698C212.862 97.3719 212.839 97.3736 212.815 97.3754C212.81 97.3761 212.804 97.3764 212.799 97.3768C212.528 97.3958 212.318 97.6087 212.318 97.8667V99.1337C212.318 99.3903 212.526 99.6021 212.795 99.6233C212.82 99.6251 212.846 99.6268 212.871 99.6292C212.92 99.633 212.968 99.6375 213.016 99.6427C213.039 99.6451 213.062 99.6476 213.085 99.6504C213.131 99.6555 213.176 99.6611 213.222 99.6673C213.245 99.6704 213.267 99.6736 213.29 99.6771C213.358 99.6867 213.425 99.6978 213.492 99.71C213.537 99.7179 213.582 99.7263 213.626 99.7353C213.698 99.7495 213.77 99.7651 213.84 99.7817C213.911 99.7981 213.982 99.8157 214.051 99.8348C214.083 99.8435 214.114 99.8522 214.146 99.8611C214.208 99.8788 214.271 99.8975 214.332 99.9177C214.361 99.927 214.39 99.9364 214.419 99.9461C214.472 99.9634 214.524 99.9819 214.575 100.001C214.648 100.027 214.72 100.055 214.792 100.083C214.839 100.102 214.887 100.122 214.933 100.143C216.274 100.72 217.366 101.729 218.011 102.982C218.033 103.026 218.056 103.07 218.077 103.115C218.112 103.187 218.146 103.261 218.178 103.335C218.189 103.36 218.199 103.385 218.21 103.41C218.233 103.464 218.254 103.519 218.275 103.573C218.285 103.6 218.296 103.628 218.306 103.655C218.316 103.684 218.327 103.714 218.337 103.743C218.36 103.809 218.381 103.874 218.401 103.94C218.412 103.975 218.422 104.009 218.432 104.044C218.442 104.079 218.452 104.114 218.461 104.149C218.471 104.184 218.48 104.22 218.488 104.255C218.499 104.297 218.508 104.339 218.518 104.381C218.527 104.424 218.536 104.466 218.544 104.509C218.545 104.511 218.545 104.513 218.546 104.516C218.553 104.556 218.561 104.597 218.568 104.637C218.576 104.68 218.583 104.723 218.589 104.767C218.596 104.81 218.602 104.853 218.607 104.896C218.61 104.918 218.613 104.94 218.615 104.962C218.621 105.007 218.625 105.053 218.629 105.099C218.632 105.123 218.634 105.148 218.636 105.172C218.658 105.428 218.881 105.625 219.151 105.625H220.485C220.755 105.625 220.978 105.428 221 105.172C221.002 105.148 221.004 105.123 221.007 105.099C221.01 105.053 221.015 105.007 221.021 104.962C221.023 104.94 221.026 104.918 221.029 104.896C221.034 104.853 221.04 104.81 221.047 104.767C221.05 104.745 221.053 104.723 221.057 104.702C221.067 104.637 221.079 104.573 221.092 104.509C221.1 104.467 221.109 104.424 221.118 104.382C221.126 104.346 221.135 104.309 221.143 104.273C221.152 104.238 221.161 104.203 221.17 104.168C221.188 104.099 221.207 104.03 221.228 103.962C221.238 103.931 221.247 103.899 221.257 103.868C221.266 103.838 221.276 103.808 221.286 103.779C221.296 103.75 221.306 103.722 221.316 103.693C221.336 103.638 221.357 103.583 221.378 103.528C221.388 103.503 221.398 103.477 221.409 103.452C222.054 101.879 223.374 100.624 225.03 100.011C225.057 100.001 225.084 99.9915 225.111 99.9821C225.168 99.9617 225.226 99.9423 225.284 99.9235C225.314 99.9139 225.344 99.9045 225.375 99.8951C225.406 99.8854 225.437 99.8761 225.468 99.867C225.501 99.8576 225.534 99.8487 225.566 99.8396C225.638 99.8199 225.712 99.8015 225.784 99.7842C225.821 99.7755 225.858 99.7671 225.894 99.7592C225.932 99.7509 225.97 99.7429 226.009 99.7353C226.053 99.7266 226.098 99.7183 226.143 99.71C226.21 99.6978 226.278 99.6867 226.346 99.6771C226.369 99.6736 226.392 99.6704 226.414 99.6673C226.46 99.6611 226.505 99.6555 226.551 99.6504C226.574 99.6476 226.597 99.6451 226.62 99.6427C226.668 99.6375 226.716 99.633 226.765 99.6292C226.79 99.6268 226.815 99.6251 226.841 99.6233C227.11 99.6021 227.318 99.3903 227.318 99.1337V97.8667C227.318 97.6087 227.108 97.3958 226.837 97.3768ZM219.818 101.511C219.057 100.264 217.961 99.2231 216.648 98.5002C217.961 97.7769 219.057 96.7363 219.818 95.4891C220.579 96.7363 221.674 97.7769 222.988 98.5002C221.674 99.2231 220.579 100.264 219.818 101.511Z" fill="#9B238A"/>
</g>
<g opacity="0.05">
<path d="M413.837 94.0018C413.832 94.0014 413.826 94.0011 413.82 94.0004C413.797 93.9986 413.774 93.9969 413.75 93.9948C413.722 93.9924 413.693 93.99 413.665 93.9872C413.643 93.9851 413.622 93.9827 413.6 93.9806C413.581 93.9785 413.563 93.9764 413.544 93.9744C413.521 93.9716 413.499 93.9688 413.477 93.966H413.474C413.427 93.9598 413.38 93.9532 413.333 93.9463C413.289 93.9397 413.245 93.9327 413.202 93.9255C413.115 93.9109 413.028 93.8946 412.943 93.8762C412.9 93.8672 412.858 93.8575 412.815 93.8478C412.778 93.8392 412.742 93.8305 412.705 93.8214C412.632 93.8034 412.56 93.784 412.488 93.7632C412.421 93.7438 412.354 93.7233 412.287 93.7022C412.225 93.6821 412.163 93.6613 412.102 93.6395C412.073 93.629 412.044 93.6186 412.016 93.6082C411.961 93.5877 411.907 93.567 411.853 93.5455C410.214 92.888 408.927 91.5936 408.337 89.989C408.328 89.9625 408.318 89.9362 408.309 89.9098C408.289 89.8544 408.27 89.7982 408.253 89.742C408.233 89.6821 408.215 89.6214 408.198 89.5607C408.18 89.4958 408.163 89.4304 408.147 89.3648C408.138 89.3298 408.13 89.2947 408.122 89.2594C408.105 89.1866 408.09 89.1134 408.077 89.0399C408.07 89.0021 408.064 88.9636 408.057 88.9255L408.057 88.9234C408.055 88.913 408.054 88.9026 408.052 88.8918C408.047 88.8631 408.043 88.8343 408.039 88.8055C408.038 88.7982 408.037 88.7909 408.036 88.784L408.036 88.7826C408.031 88.7427 408.025 88.7032 408.021 88.6634C408.015 88.6175 408.01 88.5718 408.007 88.5257C408.004 88.5028 408.003 88.4799 408.001 88.4567L408 88.4529C407.978 88.1977 407.755 88 407.485 88H406.151C405.881 88 405.658 88.1977 405.636 88.4529L405.635 88.4567C405.633 88.4799 405.631 88.5028 405.629 88.5257C405.625 88.5718 405.621 88.6175 405.615 88.6634C405.61 88.7056 405.605 88.7476 405.599 88.7896C405.594 88.8298 405.588 88.8704 405.581 88.9102C405.576 88.9418 405.571 88.9733 405.565 89.0045C405.56 89.0312 405.555 89.0579 405.55 89.0843C405.545 89.1106 405.54 89.137 405.535 89.1637C405.518 89.2455 405.499 89.3263 405.479 89.4067L405.478 89.4085C405.468 89.4487 405.458 89.489 405.446 89.5288C405.436 89.5687 405.425 89.6086 405.412 89.6481C405.403 89.6789 405.393 89.7101 405.384 89.7407C405.374 89.7705 405.364 89.8003 405.354 89.8298C405.345 89.8575 405.336 89.8849 405.326 89.9126C405.316 89.9397 405.307 89.9667 405.297 89.9937C405.278 90.0441 405.259 90.0943 405.239 90.1443C404.687 91.5222 403.616 92.6571 402.254 93.3336C402.21 93.3558 402.166 93.3769 402.121 93.3978C402.071 93.4217 402.021 93.4445 401.97 93.4664C401.945 93.4775 401.919 93.4885 401.894 93.4993C401.843 93.5211 401.791 93.542 401.74 93.5624C401.685 93.5843 401.629 93.6055 401.573 93.6256C401.545 93.6356 401.517 93.6456 401.488 93.6554C401.397 93.6869 401.304 93.7171 401.21 93.7448C401.178 93.7545 401.146 93.7639 401.113 93.7729C401.079 93.783 401.044 93.7923 401.009 93.8013C400.975 93.8107 400.94 93.8197 400.905 93.828C400.835 93.845 400.764 93.8613 400.693 93.8762C400.608 93.8943 400.521 93.9106 400.434 93.9255C400.391 93.9327 400.347 93.9397 400.303 93.9463C400.256 93.9532 400.209 93.9598 400.161 93.966H400.159C400.137 93.9688 400.114 93.9716 400.092 93.9744C400.073 93.9764 400.054 93.9785 400.035 93.9806C400.014 93.9827 399.992 93.9851 399.97 93.9872C399.942 93.99 399.914 93.9924 399.885 93.9948C399.862 93.9969 399.839 93.9986 399.815 94.0004C399.81 94.0011 399.804 94.0014 399.799 94.0018C399.528 94.0208 399.318 94.2337 399.318 94.4917V95.7587C399.318 96.0153 399.526 96.2271 399.795 96.2483C399.82 96.2501 399.846 96.2518 399.871 96.2542C399.92 96.258 399.968 96.2625 400.016 96.2677C400.039 96.2701 400.062 96.2726 400.085 96.2754C400.131 96.2805 400.176 96.2861 400.222 96.2923C400.245 96.2954 400.267 96.2986 400.29 96.3021C400.358 96.3117 400.425 96.3228 400.492 96.335C400.537 96.3429 400.582 96.3513 400.626 96.3603C400.698 96.3745 400.77 96.3901 400.84 96.4067C400.911 96.4231 400.982 96.4407 401.051 96.4598C401.083 96.4685 401.114 96.4772 401.146 96.4861C401.208 96.5038 401.271 96.5225 401.332 96.5427C401.361 96.552 401.39 96.5614 401.419 96.5711C401.472 96.5884 401.524 96.6069 401.575 96.6256C401.648 96.6519 401.72 96.6796 401.792 96.7084C401.839 96.7275 401.887 96.7473 401.933 96.7677C403.274 97.345 404.366 98.354 405.011 99.6071C405.033 99.6512 405.056 99.6952 405.077 99.74C405.112 99.8124 405.146 99.886 405.178 99.9598C405.189 99.9851 405.199 100.01 405.21 100.035C405.233 100.089 405.254 100.144 405.275 100.198C405.285 100.225 405.296 100.253 405.306 100.28C405.316 100.309 405.327 100.339 405.337 100.368C405.36 100.434 405.381 100.499 405.401 100.565C405.412 100.6 405.422 100.634 405.432 100.669C405.442 100.704 405.452 100.739 405.461 100.774C405.471 100.809 405.48 100.845 405.488 100.88C405.499 100.922 405.508 100.964 405.518 101.006C405.527 101.049 405.536 101.091 405.544 101.134C405.545 101.136 405.545 101.138 405.546 101.141C405.553 101.181 405.561 101.222 405.568 101.262C405.576 101.305 405.583 101.348 405.589 101.392C405.596 101.435 405.602 101.478 405.607 101.521C405.61 101.543 405.613 101.565 405.615 101.587C405.621 101.632 405.625 101.678 405.629 101.724C405.632 101.748 405.634 101.773 405.636 101.797C405.658 102.053 405.881 102.25 406.151 102.25H407.485C407.755 102.25 407.978 102.053 408 101.797C408.002 101.773 408.004 101.748 408.007 101.724C408.01 101.678 408.015 101.632 408.021 101.587C408.023 101.565 408.026 101.543 408.029 101.521C408.034 101.478 408.04 101.435 408.047 101.392C408.05 101.37 408.053 101.348 408.057 101.327C408.067 101.262 408.079 101.198 408.092 101.134C408.1 101.092 408.109 101.049 408.118 101.007C408.126 100.971 408.135 100.934 408.143 100.898C408.152 100.863 408.161 100.828 408.17 100.793C408.188 100.724 408.207 100.655 408.228 100.587C408.238 100.556 408.247 100.524 408.257 100.493C408.266 100.463 408.276 100.433 408.286 100.404C408.296 100.375 408.306 100.347 408.316 100.318C408.336 100.263 408.357 100.208 408.378 100.153C408.388 100.128 408.398 100.102 408.409 100.077C409.054 98.5035 410.374 97.249 412.03 96.6363C412.057 96.6263 412.084 96.6165 412.111 96.6071C412.168 96.5867 412.226 96.5673 412.284 96.5485C412.314 96.5389 412.344 96.5295 412.375 96.5201C412.406 96.5104 412.437 96.5011 412.468 96.492C412.501 96.4826 412.534 96.4737 412.566 96.4646C412.638 96.4449 412.712 96.4265 412.784 96.4092C412.821 96.4005 412.858 96.3921 412.894 96.3842C412.932 96.3759 412.97 96.3679 413.009 96.3603C413.053 96.3516 413.098 96.3433 413.143 96.335C413.21 96.3228 413.278 96.3117 413.346 96.3021C413.369 96.2986 413.392 96.2954 413.414 96.2923C413.46 96.2861 413.505 96.2805 413.551 96.2754C413.574 96.2726 413.597 96.2701 413.62 96.2677C413.668 96.2625 413.716 96.258 413.765 96.2542C413.79 96.2518 413.815 96.2501 413.841 96.2483C414.11 96.2271 414.318 96.0153 414.318 95.7587V94.4917C414.318 94.2337 414.108 94.0208 413.837 94.0018ZM406.818 98.1363C406.057 96.8887 404.961 95.8481 403.648 95.1252C404.961 94.4019 406.057 93.3613 406.818 92.1141C407.579 93.3613 408.674 94.4019 409.988 95.1252C408.674 95.8481 407.579 96.8887 406.818 98.1363Z" fill="#9B238A"/>
</g>
<g opacity="0.05">
<path d="M313.837 54.5018C313.832 54.5014 313.826 54.5011 313.82 54.5004C313.797 54.4986 313.774 54.4969 313.75 54.4948C313.722 54.4924 313.693 54.49 313.665 54.4872C313.643 54.4851 313.622 54.4827 313.6 54.4806C313.581 54.4785 313.563 54.4764 313.544 54.4744C313.521 54.4716 313.499 54.4688 313.477 54.466H313.474C313.427 54.4598 313.38 54.4532 313.333 54.4463C313.289 54.4397 313.245 54.4327 313.202 54.4255C313.115 54.4109 313.028 54.3946 312.943 54.3762C312.9 54.3672 312.858 54.3575 312.815 54.3478C312.778 54.3392 312.742 54.3305 312.705 54.3214C312.632 54.3034 312.56 54.284 312.488 54.2632C312.421 54.2438 312.354 54.2233 312.287 54.2022C312.225 54.1821 312.163 54.1613 312.102 54.1395C312.073 54.129 312.044 54.1186 312.016 54.1082C311.961 54.0877 311.907 54.067 311.853 54.0455C310.214 53.388 308.927 52.0936 308.337 50.489C308.328 50.4625 308.318 50.4362 308.309 50.4098C308.289 50.3544 308.27 50.2982 308.253 50.242C308.233 50.1821 308.215 50.1214 308.198 50.0607C308.18 49.9958 308.163 49.9304 308.147 49.8648C308.138 49.8298 308.13 49.7947 308.122 49.7594C308.105 49.6866 308.09 49.6134 308.077 49.5399C308.07 49.5021 308.064 49.4636 308.057 49.4255L308.057 49.4234C308.055 49.413 308.054 49.4026 308.052 49.3918C308.047 49.3631 308.043 49.3343 308.039 49.3055C308.038 49.2982 308.037 49.2909 308.036 49.284L308.036 49.2826C308.031 49.2427 308.025 49.2032 308.021 49.1634C308.015 49.1175 308.01 49.0718 308.007 49.0257C308.004 49.0028 308.003 48.9799 308.001 48.9567L308 48.9529C307.978 48.6977 307.755 48.5 307.485 48.5H306.151C305.881 48.5 305.658 48.6977 305.636 48.9529L305.635 48.9567C305.633 48.9799 305.631 49.0028 305.629 49.0257C305.625 49.0718 305.621 49.1175 305.615 49.1634C305.61 49.2056 305.605 49.2476 305.599 49.2896C305.594 49.3298 305.588 49.3704 305.581 49.4102C305.576 49.4418 305.571 49.4733 305.565 49.5045C305.56 49.5312 305.555 49.5579 305.55 49.5843C305.545 49.6106 305.54 49.637 305.535 49.6637C305.518 49.7455 305.499 49.8263 305.479 49.9067L305.478 49.9085C305.468 49.9487 305.458 49.989 305.446 50.0288C305.436 50.0687 305.425 50.1086 305.412 50.1481C305.403 50.1789 305.393 50.2101 305.384 50.2407C305.374 50.2705 305.364 50.3003 305.354 50.3298C305.345 50.3575 305.336 50.3849 305.326 50.4126C305.316 50.4397 305.307 50.4667 305.297 50.4937C305.278 50.5441 305.259 50.5943 305.239 50.6443C304.687 52.0222 303.616 53.1571 302.254 53.8336C302.21 53.8558 302.166 53.8769 302.121 53.8978C302.071 53.9217 302.021 53.9445 301.97 53.9664C301.945 53.9775 301.919 53.9885 301.894 53.9993C301.843 54.0211 301.791 54.042 301.74 54.0624C301.685 54.0843 301.629 54.1055 301.573 54.1256C301.545 54.1356 301.517 54.1456 301.488 54.1554C301.397 54.1869 301.304 54.2171 301.21 54.2448C301.178 54.2545 301.146 54.2639 301.113 54.2729C301.079 54.283 301.044 54.2923 301.009 54.3013C300.975 54.3107 300.94 54.3197 300.905 54.328C300.835 54.345 300.764 54.3613 300.693 54.3762C300.608 54.3943 300.521 54.4106 300.434 54.4255C300.391 54.4327 300.347 54.4397 300.303 54.4463C300.256 54.4532 300.209 54.4598 300.161 54.466H300.159C300.137 54.4688 300.114 54.4716 300.092 54.4744C300.073 54.4764 300.054 54.4785 300.035 54.4806C300.014 54.4827 299.992 54.4851 299.97 54.4872C299.942 54.49 299.914 54.4924 299.885 54.4948C299.862 54.4969 299.839 54.4986 299.815 54.5004C299.81 54.5011 299.804 54.5014 299.799 54.5018C299.528 54.5208 299.318 54.7337 299.318 54.9917V56.2587C299.318 56.5153 299.526 56.7271 299.795 56.7483C299.82 56.7501 299.846 56.7518 299.871 56.7542C299.92 56.758 299.968 56.7625 300.016 56.7677C300.039 56.7701 300.062 56.7726 300.085 56.7754C300.131 56.7805 300.176 56.7861 300.222 56.7923C300.245 56.7954 300.267 56.7986 300.29 56.8021C300.358 56.8117 300.425 56.8228 300.492 56.835C300.537 56.8429 300.582 56.8513 300.626 56.8603C300.698 56.8745 300.77 56.8901 300.84 56.9067C300.911 56.9231 300.982 56.9407 301.051 56.9598C301.083 56.9685 301.114 56.9772 301.146 56.9861C301.208 57.0038 301.271 57.0225 301.332 57.0427C301.361 57.052 301.39 57.0614 301.419 57.0711C301.472 57.0884 301.524 57.1069 301.575 57.1256C301.648 57.1519 301.72 57.1796 301.792 57.2084C301.839 57.2275 301.887 57.2473 301.933 57.2677C303.274 57.845 304.366 58.854 305.011 60.1071C305.033 60.1512 305.056 60.1952 305.077 60.24C305.112 60.3124 305.146 60.386 305.178 60.4598C305.189 60.4851 305.199 60.5101 305.21 60.5354C305.233 60.5891 305.254 60.6436 305.275 60.698C305.285 60.7254 305.296 60.7528 305.306 60.7802C305.316 60.8093 305.327 60.8388 305.337 60.8683C305.36 60.9335 305.381 60.9993 305.401 61.0652C305.412 61.0999 305.422 61.1342 305.432 61.1692C305.442 61.2039 305.452 61.2393 305.461 61.2743C305.471 61.3094 305.48 61.3447 305.488 61.3801C305.499 61.4217 305.508 61.4643 305.518 61.5063C305.527 61.5486 305.536 61.5912 305.544 61.6338C305.545 61.6363 305.545 61.6384 305.546 61.6408C305.553 61.681 305.561 61.7216 305.568 61.7622C305.576 61.8052 305.583 61.8485 305.589 61.8915C305.596 61.9348 305.602 61.9779 305.607 62.0212C305.61 62.0431 305.613 62.0649 305.615 62.0867C305.621 62.1325 305.625 62.1783 305.629 62.2243C305.632 62.2483 305.634 62.2726 305.636 62.2972C305.658 62.5527 305.881 62.75 306.151 62.75H307.485C307.755 62.75 307.978 62.5527 308 62.2972C308.002 62.2726 308.004 62.2483 308.007 62.2243C308.01 62.1783 308.015 62.1325 308.021 62.0867C308.023 62.0649 308.026 62.0431 308.029 62.0212C308.034 61.9779 308.04 61.9348 308.047 61.8915C308.05 61.87 308.053 61.8481 308.057 61.8267C308.067 61.7622 308.079 61.698 308.092 61.6342C308.1 61.5916 308.109 61.5492 308.118 61.507C308.126 61.4706 308.135 61.4338 308.143 61.3978C308.152 61.3627 308.161 61.3281 308.17 61.293C308.188 61.224 308.207 61.155 308.228 61.0867C308.238 61.0558 308.247 61.0239 308.257 60.9931C308.266 60.9633 308.276 60.9334 308.286 60.904C308.296 60.8752 308.306 60.8468 308.316 60.818C308.336 60.7625 308.357 60.7077 308.378 60.6533C308.388 60.6277 308.398 60.6023 308.409 60.5766C309.054 59.0035 310.374 57.749 312.03 57.1363C312.057 57.1263 312.084 57.1165 312.111 57.1071C312.168 57.0867 312.226 57.0673 312.284 57.0485C312.314 57.0389 312.344 57.0295 312.375 57.0201C312.406 57.0104 312.437 57.0011 312.468 56.992C312.501 56.9826 312.534 56.9737 312.566 56.9646C312.638 56.9449 312.712 56.9265 312.784 56.9092C312.821 56.9005 312.858 56.8921 312.894 56.8842C312.932 56.8759 312.97 56.8679 313.009 56.8603C313.053 56.8516 313.098 56.8433 313.143 56.835C313.21 56.8228 313.278 56.8117 313.346 56.8021C313.369 56.7986 313.392 56.7954 313.414 56.7923C313.46 56.7861 313.505 56.7805 313.551 56.7754C313.574 56.7726 313.597 56.7701 313.62 56.7677C313.668 56.7625 313.716 56.758 313.765 56.7542C313.79 56.7518 313.815 56.7501 313.841 56.7483C314.11 56.7271 314.318 56.5153 314.318 56.2587V54.9917C314.318 54.7337 314.108 54.5208 313.837 54.5018ZM306.818 58.6363C306.057 57.3887 304.961 56.3481 303.648 55.6252C304.961 54.9019 306.057 53.8613 306.818 52.6141C307.579 53.8613 308.674 54.9019 309.988 55.6252C308.674 56.3481 307.579 57.3887 306.818 58.6363Z" fill="#9B238A"/>
</g>
<g opacity="0.05">
<path d="M258.857 37.3194C258.846 37.3187 258.834 37.318 258.823 37.3165C258.776 37.313 258.73 37.3094 258.683 37.3051C258.626 37.3001 258.569 37.2953 258.513 37.2896C258.469 37.2853 258.426 37.2803 258.383 37.276C258.345 37.2717 258.308 37.2674 258.27 37.2632C258.225 37.2575 258.181 37.2518 258.135 37.246H258.131C258.036 37.2332 257.942 37.2198 257.848 37.2055C257.76 37.192 257.673 37.1777 257.586 37.1629C257.412 37.1329 257.239 37.0995 257.068 37.0617C256.983 37.0432 256.897 37.0233 256.812 37.0033C256.738 36.9857 256.665 36.9678 256.592 36.9493C256.447 36.9123 256.302 36.8724 256.159 36.8297C256.024 36.7899 255.889 36.7478 255.756 36.7044C255.632 36.6632 255.508 36.6205 255.385 36.5757C255.328 36.5543 255.27 36.5329 255.213 36.5115C255.105 36.4696 254.996 36.4269 254.888 36.3828C251.611 35.0333 249.037 32.3764 247.857 29.0826C247.837 29.0284 247.818 28.9743 247.8 28.9202C247.761 28.8064 247.723 28.6911 247.687 28.5758C247.648 28.4526 247.613 28.3281 247.578 28.2035C247.542 28.0704 247.507 27.936 247.475 27.8014C247.458 27.7295 247.442 27.6576 247.426 27.585C247.393 27.4356 247.363 27.2855 247.336 27.1345C247.322 27.0569 247.31 26.978 247.297 26.8997L247.296 26.8954C247.293 26.874 247.289 26.8527 247.286 26.8306C247.277 26.7716 247.268 26.7125 247.261 26.6534C247.258 26.6384 247.257 26.6234 247.254 26.6092L247.254 26.6065C247.243 26.5246 247.233 26.4434 247.224 26.3616C247.213 26.2676 247.203 26.1737 247.195 26.079C247.191 26.032 247.187 25.9851 247.183 25.9374L247.183 25.9296C247.138 25.4058 246.691 25 246.152 25H243.484C242.944 25 242.498 25.4058 242.453 25.9296L242.452 25.9374C242.449 25.9851 242.445 26.032 242.441 26.079C242.433 26.1737 242.423 26.2676 242.412 26.3616C242.403 26.4484 242.392 26.5346 242.38 26.6207C242.369 26.7032 242.358 26.7865 242.344 26.8683C242.334 26.9332 242.323 26.9978 242.312 27.0619C242.303 27.1167 242.293 27.1715 242.282 27.2256C242.273 27.2796 242.262 27.3339 242.252 27.3887C242.218 27.5566 242.181 27.7224 242.139 27.8875L242.139 27.891C242.119 27.9737 242.098 28.0563 242.075 28.138C242.054 28.2199 242.031 28.3018 242.006 28.3829C241.987 28.4462 241.968 28.5103 241.949 28.5729C241.931 28.6341 241.911 28.6953 241.891 28.7558C241.872 28.8128 241.853 28.869 241.834 28.9259C241.815 28.9814 241.795 29.0369 241.776 29.0924C241.739 29.1957 241.7 29.2989 241.66 29.4015C240.556 32.2297 238.415 34.5593 235.69 35.9479C235.602 35.9934 235.513 36.0368 235.424 36.0796C235.324 36.1287 235.223 36.1756 235.122 36.2204C235.072 36.2433 235.02 36.266 234.969 36.2881C234.867 36.3329 234.765 36.3757 234.661 36.4176C234.551 36.4624 234.439 36.506 234.328 36.5472C234.271 36.5677 234.215 36.5884 234.159 36.6084C233.975 36.6732 233.79 36.7351 233.603 36.792C233.539 36.8119 233.474 36.8311 233.409 36.8497C233.34 36.8704 233.271 36.8895 233.201 36.908C233.131 36.9272 233.061 36.9457 232.991 36.9628C232.852 36.9976 232.71 37.0312 232.569 37.0617C232.398 37.0988 232.224 37.1322 232.05 37.1629C231.963 37.1777 231.876 37.192 231.788 37.2055C231.694 37.2198 231.6 37.2332 231.505 37.246H231.501C231.456 37.2518 231.411 37.2575 231.366 37.2632C231.328 37.2674 231.291 37.2717 231.253 37.276C231.21 37.2803 231.167 37.2853 231.123 37.2896C231.067 37.2953 231.01 37.3001 230.953 37.3051C230.906 37.3094 230.86 37.313 230.813 37.3165C230.802 37.318 230.79 37.3187 230.779 37.3194C230.238 37.3585 229.818 37.7955 229.818 38.3252V40.9257C229.818 41.4525 230.233 41.8872 230.771 41.9308C230.823 41.9343 230.873 41.9379 230.925 41.9429C231.022 41.9506 231.118 41.9599 231.214 41.9706C231.26 41.9756 231.306 41.9806 231.352 41.9863C231.444 41.9968 231.535 42.0082 231.625 42.0211C231.671 42.0275 231.717 42.0339 231.763 42.0411C231.898 42.0609 232.033 42.0837 232.167 42.1087C232.256 42.1249 232.347 42.1421 232.435 42.1606C232.578 42.1897 232.722 42.2218 232.863 42.2559C233.004 42.2895 233.145 42.3257 233.285 42.3649C233.348 42.3826 233.411 42.4005 233.474 42.4189C233.598 42.4553 233.723 42.4936 233.847 42.535C233.905 42.5541 233.963 42.5734 234.02 42.5934C234.126 42.6289 234.229 42.6667 234.333 42.7051C234.478 42.7592 234.623 42.8161 234.766 42.8752C234.861 42.9143 234.955 42.9549 235.049 42.9969C237.731 44.1819 239.914 46.253 241.203 48.8252C241.249 48.9157 241.293 49.006 241.336 49.0979C241.406 49.2465 241.474 49.3975 241.538 49.549C241.56 49.601 241.581 49.6523 241.602 49.7043C241.647 49.8146 241.69 49.9263 241.732 50.038C241.753 50.0942 241.774 50.1504 241.793 50.2066C241.814 50.2664 241.836 50.3269 241.856 50.3876C241.901 50.5214 241.944 50.6565 241.985 50.7918C242.006 50.863 242.027 50.9333 242.046 51.0052C242.066 51.0764 242.085 51.1491 242.104 51.221C242.123 51.2929 242.141 51.3654 242.158 51.438C242.179 51.5235 242.199 51.6109 242.217 51.6971C242.236 51.7839 242.254 51.8715 242.271 51.9589C242.271 51.9639 242.272 51.9682 242.274 51.9732C242.289 52.0558 242.304 52.1391 242.318 52.2223C242.333 52.3107 242.347 52.3995 242.361 52.4879C242.374 52.5768 242.385 52.6651 242.396 52.754C242.402 52.7989 242.407 52.8437 242.412 52.8885C242.423 52.9824 242.433 53.0764 242.441 53.171C242.446 53.2201 242.449 53.2701 242.453 53.3206C242.498 53.8451 242.944 54.25 243.484 54.25H246.152C246.691 54.25 247.138 53.8451 247.183 53.3206C247.186 53.2701 247.19 53.2201 247.195 53.171C247.203 53.0764 247.213 52.9824 247.224 52.8885C247.229 52.8437 247.234 52.7989 247.24 52.754C247.251 52.6651 247.262 52.5768 247.275 52.4879C247.282 52.4438 247.289 52.3988 247.296 52.3547C247.317 52.2223 247.34 52.0906 247.365 51.9597C247.382 51.8722 247.399 51.7853 247.419 51.6985C247.435 51.6238 247.451 51.5483 247.469 51.4744C247.486 51.4023 247.503 51.3313 247.521 51.2594C247.558 51.1177 247.597 50.9761 247.638 50.8359C247.657 50.7725 247.676 50.707 247.696 50.6437C247.715 50.5825 247.735 50.5213 247.755 50.4608C247.775 50.4017 247.794 50.3433 247.815 50.2843C247.854 50.1704 247.895 50.058 247.938 49.9463C247.958 49.8936 247.978 49.8415 248 49.7889C249.289 46.5598 251.931 43.9848 255.242 42.7271C255.297 42.7065 255.35 42.6865 255.404 42.6673C255.518 42.6253 255.634 42.5855 255.75 42.547C255.811 42.5272 255.871 42.5079 255.931 42.4886C255.994 42.4688 256.056 42.4496 256.119 42.431C256.184 42.4117 256.25 42.3933 256.315 42.3748C256.459 42.3343 256.605 42.2966 256.751 42.2609C256.824 42.2431 256.897 42.226 256.971 42.2097C257.047 42.1926 257.123 42.1763 257.2 42.1606C257.289 42.1428 257.379 42.1258 257.468 42.1087C257.602 42.0837 257.738 42.0609 257.874 42.0411C257.919 42.0339 257.965 42.0275 258.011 42.0211C258.102 42.0082 258.192 41.9968 258.283 41.9863C258.33 41.9806 258.376 41.9756 258.421 41.9706C258.518 41.9599 258.614 41.9506 258.711 41.9429C258.762 41.9379 258.813 41.9343 258.865 41.9308C259.403 41.8872 259.818 41.4525 259.818 40.9257V38.3252C259.818 37.7955 259.398 37.3585 258.857 37.3194ZM244.818 45.806C243.296 43.2453 241.105 41.1093 238.478 39.6254C241.105 38.1407 243.296 36.0048 244.818 33.4447C246.34 36.0048 248.531 38.1407 251.158 39.6254C248.531 41.1093 246.34 43.2453 244.818 45.806Z" fill="#9B238A"/>
</g>
<g opacity="0.05">
<path d="M398.857 21.3194C398.846 21.3187 398.834 21.318 398.823 21.3165C398.776 21.313 398.73 21.3094 398.683 21.3051C398.626 21.3001 398.569 21.2953 398.513 21.2896C398.469 21.2853 398.426 21.2803 398.383 21.276C398.345 21.2717 398.308 21.2674 398.27 21.2632C398.225 21.2575 398.181 21.2518 398.135 21.246H398.131C398.036 21.2332 397.942 21.2198 397.848 21.2055C397.76 21.192 397.673 21.1777 397.586 21.1629C397.412 21.1329 397.239 21.0995 397.068 21.0617C396.983 21.0432 396.897 21.0233 396.812 21.0033C396.738 20.9857 396.665 20.9678 396.592 20.9493C396.447 20.9123 396.302 20.8724 396.159 20.8297C396.024 20.7899 395.889 20.7478 395.756 20.7044C395.632 20.6632 395.508 20.6205 395.385 20.5757C395.328 20.5543 395.27 20.5329 395.213 20.5115C395.105 20.4696 394.996 20.4269 394.888 20.3828C391.611 19.0333 389.037 16.3764 387.857 13.0826C387.837 13.0284 387.818 12.9743 387.8 12.9202C387.761 12.8064 387.723 12.6911 387.687 12.5758C387.648 12.4526 387.613 12.3281 387.578 12.2035C387.542 12.0704 387.507 11.936 387.475 11.8014C387.458 11.7295 387.442 11.6576 387.426 11.585C387.393 11.4356 387.363 11.2855 387.336 11.1345C387.322 11.0569 387.31 10.978 387.297 10.8997L387.296 10.8954C387.293 10.874 387.289 10.8527 387.286 10.8306C387.277 10.7716 387.268 10.7125 387.261 10.6534C387.258 10.6384 387.257 10.6234 387.254 10.6092L387.254 10.6065C387.243 10.5246 387.233 10.4434 387.224 10.3616C387.213 10.2676 387.203 10.1737 387.195 10.079C387.191 10.032 387.187 9.98508 387.183 9.93743L387.183 9.92958C387.138 9.40579 386.691 9 386.152 9H383.484C382.944 9 382.498 9.40579 382.453 9.92958L382.452 9.93743C382.449 9.98508 382.445 10.032 382.441 10.079C382.433 10.1737 382.423 10.2676 382.412 10.3616C382.403 10.4484 382.392 10.5346 382.38 10.6207C382.369 10.7032 382.358 10.7865 382.344 10.8683C382.334 10.9332 382.323 10.9978 382.312 11.0619C382.303 11.1167 382.293 11.1715 382.282 11.2256C382.273 11.2796 382.262 11.3339 382.252 11.3887C382.218 11.5566 382.181 11.7224 382.139 11.8875L382.139 11.891C382.119 11.9737 382.098 12.0563 382.075 12.138C382.054 12.2199 382.031 12.3018 382.006 12.3829C381.987 12.4462 381.968 12.5103 381.949 12.5729C381.931 12.6341 381.911 12.6953 381.891 12.7558C381.872 12.8128 381.853 12.869 381.834 12.9259C381.815 12.9814 381.795 13.0369 381.776 13.0924C381.739 13.1957 381.7 13.2989 381.66 13.4015C380.556 16.2297 378.415 18.5593 375.69 19.9479C375.602 19.9934 375.513 20.0368 375.424 20.0796C375.324 20.1287 375.223 20.1756 375.122 20.2204C375.072 20.2433 375.02 20.266 374.969 20.2881C374.867 20.3329 374.765 20.3757 374.661 20.4176C374.551 20.4624 374.439 20.506 374.328 20.5472C374.271 20.5677 374.215 20.5884 374.159 20.6084C373.975 20.6732 373.79 20.7351 373.603 20.792C373.539 20.8119 373.474 20.8311 373.409 20.8497C373.34 20.8704 373.271 20.8895 373.201 20.908C373.131 20.9272 373.061 20.9457 372.991 20.9628C372.852 20.9976 372.71 21.0312 372.569 21.0617C372.398 21.0988 372.224 21.1322 372.05 21.1629C371.963 21.1777 371.876 21.192 371.788 21.2055C371.694 21.2198 371.6 21.2332 371.505 21.246H371.501C371.456 21.2518 371.411 21.2575 371.366 21.2632C371.328 21.2674 371.291 21.2717 371.253 21.276C371.21 21.2803 371.167 21.2853 371.123 21.2896C371.067 21.2953 371.01 21.3001 370.953 21.3051C370.906 21.3094 370.86 21.313 370.813 21.3165C370.802 21.318 370.79 21.3187 370.779 21.3194C370.238 21.3585 369.818 21.7955 369.818 22.3252V24.9257C369.818 25.4525 370.233 25.8872 370.771 25.9308C370.823 25.9343 370.873 25.9379 370.925 25.9429C371.022 25.9506 371.118 25.9599 371.214 25.9706C371.26 25.9756 371.306 25.9806 371.352 25.9863C371.444 25.9968 371.535 26.0082 371.625 26.0211C371.671 26.0275 371.717 26.0339 371.763 26.0411C371.898 26.0609 372.033 26.0837 372.167 26.1087C372.256 26.1249 372.347 26.1421 372.435 26.1606C372.578 26.1897 372.722 26.2218 372.863 26.2559C373.004 26.2895 373.145 26.3257 373.285 26.3649C373.348 26.3826 373.411 26.4005 373.474 26.4189C373.598 26.4553 373.723 26.4936 373.847 26.535C373.905 26.5541 373.963 26.5734 374.02 26.5934C374.126 26.6289 374.229 26.6667 374.333 26.7051C374.478 26.7592 374.623 26.8161 374.766 26.8752C374.861 26.9143 374.955 26.9549 375.049 26.9969C377.731 28.1819 379.914 30.253 381.203 32.8252C381.249 32.9157 381.293 33.006 381.336 33.0979C381.406 33.2465 381.474 33.3975 381.538 33.549C381.56 33.601 381.581 33.6523 381.602 33.7043C381.647 33.8146 381.69 33.9263 381.732 34.038C381.753 34.0942 381.774 34.1504 381.793 34.2066C381.814 34.2664 381.836 34.3269 381.856 34.3876C381.901 34.5214 381.944 34.6565 381.985 34.7918C382.006 34.863 382.027 34.9333 382.046 35.0052C382.066 35.0764 382.085 35.1491 382.104 35.221C382.123 35.2929 382.141 35.3654 382.158 35.438C382.179 35.5235 382.199 35.6109 382.217 35.6971C382.236 35.7839 382.254 35.8715 382.271 35.9589C382.271 35.9639 382.272 35.9682 382.274 35.9732C382.289 36.0558 382.304 36.1391 382.318 36.2223C382.333 36.3107 382.347 36.3995 382.361 36.4879C382.374 36.5768 382.385 36.6651 382.396 36.754C382.402 36.7989 382.407 36.8437 382.412 36.8885C382.423 36.9824 382.433 37.0764 382.441 37.171C382.446 37.2201 382.449 37.2701 382.453 37.3206C382.498 37.8451 382.944 38.25 383.484 38.25H386.152C386.691 38.25 387.138 37.8451 387.183 37.3206C387.186 37.2701 387.19 37.2201 387.195 37.171C387.203 37.0764 387.213 36.9824 387.224 36.8885C387.229 36.8437 387.234 36.7989 387.24 36.754C387.251 36.6651 387.262 36.5768 387.275 36.4879C387.282 36.4438 387.289 36.3988 387.296 36.3547C387.317 36.2223 387.34 36.0906 387.365 35.9597C387.382 35.8722 387.399 35.7853 387.419 35.6985C387.435 35.6238 387.451 35.5483 387.469 35.4744C387.486 35.4023 387.503 35.3313 387.521 35.2594C387.558 35.1177 387.597 34.9761 387.638 34.8359C387.657 34.7725 387.676 34.707 387.696 34.6437C387.715 34.5825 387.735 34.5213 387.755 34.4608C387.775 34.4017 387.794 34.3433 387.815 34.2843C387.854 34.1704 387.895 34.058 387.938 33.9463C387.958 33.8936 387.978 33.8415 388 33.7889C389.289 30.5598 391.931 27.9848 395.242 26.7271C395.297 26.7065 395.35 26.6865 395.404 26.6673C395.518 26.6253 395.634 26.5855 395.75 26.547C395.811 26.5272 395.871 26.5079 395.931 26.4886C395.994 26.4688 396.056 26.4496 396.119 26.431C396.184 26.4117 396.25 26.3933 396.315 26.3748C396.459 26.3343 396.605 26.2966 396.751 26.2609C396.824 26.2431 396.897 26.226 396.971 26.2097C397.047 26.1926 397.123 26.1763 397.2 26.1606C397.289 26.1428 397.379 26.1258 397.468 26.1087C397.602 26.0837 397.738 26.0609 397.874 26.0411C397.919 26.0339 397.965 26.0275 398.011 26.0211C398.102 26.0082 398.192 25.9968 398.283 25.9863C398.33 25.9806 398.376 25.9756 398.421 25.9706C398.518 25.9599 398.614 25.9506 398.711 25.9429C398.762 25.9379 398.813 25.9343 398.865 25.9308C399.403 25.8872 399.818 25.4525 399.818 24.9257V22.3252C399.818 21.7955 399.398 21.3585 398.857 21.3194ZM384.818 29.806C383.296 27.2453 381.105 25.1093 378.478 23.6254C381.105 22.1407 383.296 20.0048 384.818 17.4447C386.34 20.0048 388.531 22.1407 391.158 23.6254C388.531 25.1093 386.34 27.2453 384.818 29.806Z" fill="#9B238A"/>
</g>
<g opacity="0.05">
<path d="M158.857 20.8194C158.846 20.8187 158.834 20.818 158.823 20.8165C158.776 20.813 158.73 20.8094 158.683 20.8051C158.626 20.8001 158.569 20.7953 158.513 20.7896C158.469 20.7853 158.426 20.7803 158.383 20.776C158.345 20.7717 158.308 20.7674 158.27 20.7632C158.225 20.7575 158.181 20.7518 158.135 20.746H158.131C158.036 20.7332 157.942 20.7198 157.848 20.7055C157.76 20.692 157.673 20.6777 157.586 20.6629C157.412 20.6329 157.239 20.5995 157.068 20.5617C156.983 20.5432 156.897 20.5233 156.812 20.5033C156.738 20.4857 156.665 20.4678 156.592 20.4493C156.447 20.4123 156.302 20.3724 156.159 20.3297C156.024 20.2899 155.889 20.2478 155.756 20.2044C155.632 20.1632 155.508 20.1205 155.385 20.0757C155.328 20.0543 155.27 20.0329 155.213 20.0115C155.105 19.9696 154.996 19.9269 154.888 19.8828C151.611 18.5333 149.037 15.8764 147.857 12.5826C147.837 12.5284 147.818 12.4743 147.8 12.4202C147.761 12.3064 147.723 12.1911 147.687 12.0758C147.648 11.9526 147.613 11.8281 147.578 11.7035C147.542 11.5704 147.507 11.436 147.475 11.3014C147.458 11.2295 147.442 11.1576 147.426 11.085C147.393 10.9356 147.363 10.7855 147.336 10.6345C147.322 10.5569 147.31 10.478 147.297 10.3997L147.296 10.3954C147.293 10.374 147.289 10.3527 147.286 10.3306C147.277 10.2716 147.268 10.2125 147.261 10.1534C147.258 10.1384 147.257 10.1234 147.254 10.1092L147.254 10.1065C147.243 10.0246 147.233 9.94338 147.224 9.86162C147.213 9.76759 147.203 9.67371 147.195 9.57897C147.191 9.53203 147.187 9.48508 147.183 9.43743L147.183 9.42958C147.138 8.90579 146.691 8.5 146.152 8.5H143.484C142.944 8.5 142.498 8.90579 142.453 9.42958L142.452 9.43743C142.449 9.48508 142.445 9.53203 142.441 9.57897C142.433 9.67371 142.423 9.76759 142.412 9.86162C142.403 9.94837 142.392 10.0346 142.38 10.1207C142.369 10.2032 142.358 10.2865 142.344 10.3683C142.334 10.4332 142.323 10.4978 142.312 10.5619C142.303 10.6167 142.293 10.6715 142.282 10.7256C142.273 10.7796 142.262 10.8339 142.252 10.8887C142.218 11.0566 142.181 11.2224 142.139 11.3875L142.139 11.391C142.119 11.4737 142.098 11.5563 142.075 11.638C142.054 11.7199 142.031 11.8018 142.006 11.8829C141.987 11.9462 141.968 12.0103 141.949 12.0729C141.931 12.1341 141.911 12.1953 141.891 12.2558C141.872 12.3128 141.853 12.369 141.834 12.4259C141.815 12.4814 141.795 12.5369 141.776 12.5924C141.739 12.6957 141.7 12.7989 141.66 12.9015C140.556 15.7297 138.415 18.0593 135.69 19.4479C135.602 19.4934 135.513 19.5368 135.424 19.5796C135.324 19.6287 135.223 19.6756 135.122 19.7204C135.072 19.7433 135.02 19.766 134.969 19.7881C134.867 19.8329 134.765 19.8757 134.661 19.9176C134.551 19.9624 134.439 20.006 134.328 20.0472C134.271 20.0677 134.215 20.0884 134.159 20.1084C133.975 20.1732 133.79 20.2351 133.603 20.292C133.539 20.3119 133.474 20.3311 133.409 20.3497C133.34 20.3704 133.271 20.3895 133.201 20.408C133.131 20.4272 133.061 20.4457 132.991 20.4628C132.852 20.4976 132.71 20.5312 132.569 20.5617C132.398 20.5988 132.224 20.6322 132.05 20.6629C131.963 20.6777 131.876 20.692 131.788 20.7055C131.694 20.7198 131.6 20.7332 131.505 20.746H131.501C131.456 20.7518 131.411 20.7575 131.366 20.7632C131.328 20.7674 131.291 20.7717 131.253 20.776C131.21 20.7803 131.167 20.7853 131.123 20.7896C131.067 20.7953 131.01 20.8001 130.953 20.8051C130.906 20.8094 130.86 20.813 130.813 20.8165C130.802 20.818 130.79 20.8187 130.779 20.8194C130.238 20.8585 129.818 21.2955 129.818 21.8252V24.4257C129.818 24.9525 130.233 25.3872 130.771 25.4308C130.823 25.4343 130.873 25.4379 130.925 25.4429C131.022 25.4506 131.118 25.4599 131.214 25.4706C131.26 25.4756 131.306 25.4806 131.352 25.4863C131.444 25.4968 131.535 25.5082 131.625 25.5211C131.671 25.5275 131.717 25.5339 131.763 25.5411C131.898 25.5609 132.033 25.5837 132.167 25.6087C132.256 25.6249 132.347 25.6421 132.435 25.6606C132.578 25.6897 132.722 25.7218 132.863 25.7559C133.004 25.7895 133.145 25.8257 133.285 25.8649C133.348 25.8826 133.411 25.9005 133.474 25.9189C133.598 25.9553 133.723 25.9936 133.847 26.035C133.905 26.0541 133.963 26.0734 134.02 26.0934C134.126 26.1289 134.229 26.1667 134.333 26.2051C134.478 26.2592 134.623 26.3161 134.766 26.3752C134.861 26.4143 134.955 26.4549 135.049 26.4969C137.731 27.6819 139.914 29.753 141.203 32.3252C141.249 32.4157 141.293 32.506 141.336 32.5979C141.406 32.7465 141.474 32.8975 141.538 33.049C141.56 33.101 141.581 33.1523 141.602 33.2043C141.647 33.3146 141.69 33.4263 141.732 33.538C141.753 33.5942 141.774 33.6504 141.793 33.7066C141.814 33.7664 141.836 33.8269 141.856 33.8876C141.901 34.0214 141.944 34.1565 141.985 34.2918C142.006 34.363 142.027 34.4333 142.046 34.5052C142.066 34.5764 142.085 34.6491 142.104 34.721C142.123 34.7929 142.141 34.8654 142.158 34.938C142.179 35.0235 142.199 35.1109 142.217 35.1971C142.236 35.2839 142.254 35.3715 142.271 35.4589C142.271 35.4639 142.272 35.4682 142.274 35.4732C142.289 35.5558 142.304 35.6391 142.318 35.7223C142.333 35.8107 142.347 35.8995 142.361 35.9879C142.374 36.0768 142.385 36.1651 142.396 36.254C142.402 36.2989 142.407 36.3437 142.412 36.3885C142.423 36.4824 142.433 36.5764 142.441 36.671C142.446 36.7201 142.449 36.7701 142.453 36.8206C142.498 37.3451 142.944 37.75 143.484 37.75H146.152C146.691 37.75 147.138 37.3451 147.183 36.8206C147.186 36.7701 147.19 36.7201 147.195 36.671C147.203 36.5764 147.213 36.4824 147.224 36.3885C147.229 36.3437 147.234 36.2989 147.24 36.254C147.251 36.1651 147.262 36.0768 147.275 35.9879C147.282 35.9438 147.289 35.8988 147.296 35.8547C147.317 35.7223 147.34 35.5906 147.365 35.4597C147.382 35.3722 147.399 35.2853 147.419 35.1985C147.435 35.1238 147.451 35.0483 147.469 34.9744C147.486 34.9023 147.503 34.8313 147.521 34.7594C147.558 34.6177 147.597 34.4761 147.638 34.3359C147.657 34.2725 147.676 34.207 147.696 34.1437C147.715 34.0825 147.735 34.0213 147.755 33.9608C147.775 33.9017 147.794 33.8433 147.815 33.7843C147.854 33.6704 147.895 33.558 147.938 33.4463C147.958 33.3936 147.978 33.3415 148 33.2889C149.289 30.0598 151.931 27.4848 155.242 26.2271C155.297 26.2065 155.35 26.1865 155.404 26.1673C155.518 26.1253 155.634 26.0855 155.75 26.047C155.811 26.0272 155.871 26.0079 155.931 25.9886C155.994 25.9688 156.056 25.9496 156.119 25.931C156.184 25.9117 156.25 25.8933 156.315 25.8748C156.459 25.8343 156.605 25.7966 156.751 25.7609C156.824 25.7431 156.897 25.726 156.971 25.7097C157.047 25.6926 157.123 25.6763 157.2 25.6606C157.289 25.6428 157.379 25.6258 157.468 25.6087C157.602 25.5837 157.738 25.5609 157.874 25.5411C157.919 25.5339 157.965 25.5275 158.011 25.5211C158.102 25.5082 158.192 25.4968 158.283 25.4863C158.33 25.4806 158.376 25.4756 158.421 25.4706C158.518 25.4599 158.614 25.4506 158.711 25.4429C158.762 25.4379 158.813 25.4343 158.865 25.4308C159.403 25.3872 159.818 24.9525 159.818 24.4257V21.8252C159.818 21.2955 159.398 20.8585 158.857 20.8194ZM144.818 29.306C143.296 26.7453 141.105 24.6093 138.478 23.1254C141.105 21.6407 143.296 19.5048 144.818 16.9447C146.34 19.5048 148.531 21.6407 151.158 23.1254C148.531 24.6093 146.34 26.7453 144.818 29.306Z" fill="#9B238A"/>
</g>
<g opacity="0.05">
<path d="M77.2208 81.6766C77.2098 81.6759 77.1981 81.6751 77.1873 81.6737C77.1399 81.6701 77.0938 81.6666 77.0471 81.6623C76.9902 81.6573 76.9333 81.6524 76.8771 81.6467C76.8332 81.6425 76.7901 81.6375 76.7471 81.6332C76.7091 81.6289 76.6719 81.6246 76.634 81.6203C76.5894 81.6146 76.5449 81.6089 76.4996 81.6032H76.4952C76.4003 81.5904 76.3062 81.577 76.2119 81.5627C76.1244 81.5491 76.0368 81.5349 75.95 81.52C75.7761 81.4901 75.6032 81.4567 75.4324 81.4189C75.3469 81.4003 75.2616 81.3805 75.1761 81.3605C75.1024 81.3428 75.0295 81.325 74.9565 81.3064C74.8112 81.2695 74.6666 81.2295 74.5229 81.1869C74.3878 81.1471 74.2534 81.105 74.1206 81.0616C73.9965 81.0204 73.8724 80.9777 73.7497 80.9329C73.6921 80.9115 73.6344 80.8901 73.5775 80.8687C73.4688 80.8267 73.36 80.7841 73.2526 80.74C69.975 79.3905 67.4012 76.7336 66.2208 73.4398C66.2017 73.3855 66.1827 73.3315 66.1638 73.2774C66.1251 73.1635 66.0871 73.0482 66.0514 72.933C66.0127 72.8098 65.977 72.6853 65.9426 72.5607C65.9061 72.4276 65.8717 72.2932 65.8397 72.1586C65.8221 72.0867 65.8062 72.0148 65.7901 71.9422C65.7572 71.7928 65.7273 71.6427 65.7002 71.4917C65.6863 71.4141 65.674 71.3352 65.6609 71.2569L65.6601 71.2526C65.6572 71.2312 65.6535 71.2099 65.6506 71.1878C65.6411 71.1287 65.6323 71.0697 65.6251 71.0106C65.6222 70.9956 65.6208 70.9806 65.6186 70.9664L65.6178 70.9636C65.6076 70.8817 65.5973 70.8006 65.5878 70.7188C65.5769 70.6248 65.5674 70.5309 65.5594 70.4361C65.5551 70.3892 65.5514 70.3423 65.5477 70.2946L65.547 70.2868C65.5024 69.763 65.0557 69.3572 64.5162 69.3572H61.8481C61.3087 69.3572 60.8619 69.763 60.8174 70.2868L60.8167 70.2946C60.813 70.3423 60.8093 70.3892 60.805 70.4361C60.7969 70.5309 60.7875 70.6248 60.7766 70.7188C60.7671 70.8056 60.7561 70.8917 60.7444 70.9779C60.7335 71.0604 60.7218 71.1437 60.7079 71.2255C60.6984 71.2904 60.6874 71.355 60.6759 71.4191C60.6671 71.4739 60.6569 71.5287 60.6466 71.5827C60.6371 71.6368 60.6261 71.691 60.6159 71.7458C60.5824 71.9138 60.5452 72.0796 60.5035 72.2447L60.5028 72.2482C60.4832 72.3308 60.4619 72.4134 60.4393 72.4952C60.4182 72.5771 60.3955 72.659 60.3706 72.74C60.3517 72.8034 60.3327 72.8675 60.3137 72.9301C60.2948 72.9913 60.2751 73.0525 60.2553 73.113C60.2364 73.17 60.2174 73.2262 60.1984 73.2831C60.1793 73.3386 60.1597 73.3941 60.14 73.4496C60.1028 73.5529 60.064 73.6561 60.0239 73.7587C58.9202 76.5869 56.7793 78.9165 54.0542 80.3051C53.9667 80.3506 53.8774 80.394 53.7885 80.4368C53.6884 80.4859 53.5877 80.5328 53.4863 80.5776C53.4358 80.6004 53.3847 80.6231 53.3336 80.6453C53.2315 80.6901 53.1293 80.7329 53.0256 80.7748C52.9154 80.8196 52.8037 80.8631 52.6921 80.9044C52.6357 80.9249 52.5795 80.9456 52.5233 80.9656C52.3394 81.0304 52.154 81.0923 51.9671 81.1492C51.9029 81.169 51.8379 81.1883 51.7729 81.2069C51.7043 81.2275 51.6351 81.2467 51.565 81.2652C51.4956 81.2843 51.4255 81.3029 51.3554 81.32C51.2159 81.3548 51.0744 81.3883 50.9328 81.4189C50.762 81.456 50.5883 81.4894 50.4144 81.52C50.3276 81.5349 50.24 81.5491 50.1523 81.5627C50.0582 81.577 49.964 81.5904 49.8692 81.6032H49.8648C49.8203 81.6089 49.7751 81.6146 49.7304 81.6203C49.6925 81.6246 49.6553 81.6289 49.6173 81.6332C49.5743 81.6375 49.5313 81.6425 49.4873 81.6467C49.4312 81.6524 49.3742 81.6573 49.3173 81.6623C49.2706 81.6666 49.2247 81.6701 49.1771 81.6737C49.1661 81.6751 49.1546 81.6759 49.1436 81.6766C48.602 81.7157 48.1821 82.1527 48.1821 82.6823V85.2829C48.1821 85.8097 48.5976 86.2444 49.1355 86.2879C49.1873 86.2915 49.2377 86.2951 49.2888 86.3001C49.3859 86.3078 49.4822 86.317 49.5787 86.3277C49.6246 86.3327 49.6706 86.3377 49.7167 86.3434C49.8078 86.354 49.8992 86.3654 49.9896 86.3783C50.0355 86.3847 50.0809 86.3911 50.1269 86.3982C50.2619 86.4181 50.397 86.4409 50.5313 86.4659C50.6205 86.4821 50.7109 86.4992 50.7992 86.5178C50.9423 86.5469 51.086 86.579 51.2269 86.6131C51.3686 86.6466 51.5095 86.6829 51.6488 86.7221C51.7123 86.7398 51.7751 86.7576 51.8379 86.776C51.9627 86.8124 52.0875 86.8508 52.2109 86.8922C52.2693 86.9113 52.327 86.9306 52.3846 86.9506C52.4898 86.9861 52.5934 87.0239 52.6971 87.0623C52.8424 87.1164 52.987 87.1733 53.1299 87.2324C53.2249 87.2714 53.3197 87.3121 53.4133 87.3541C56.0951 88.539 58.2778 90.6102 59.5676 93.1824C59.613 93.2728 59.6575 93.3632 59.7005 93.455C59.7706 93.6037 59.8378 93.7547 59.902 93.9062C59.9238 93.9581 59.9451 94.0095 59.9663 94.0614C60.0115 94.1717 60.0547 94.2835 60.0962 94.3952C60.1173 94.4514 60.1378 94.5076 60.1575 94.5638C60.1786 94.6236 60.1998 94.6841 60.2203 94.7447C60.2655 94.8786 60.3086 95.0137 60.3488 95.149C60.3699 95.2202 60.3911 95.2905 60.4101 95.3624C60.4305 95.4336 60.4495 95.5062 60.4685 95.5782C60.4875 95.6501 60.5057 95.7226 60.5225 95.7952C60.5437 95.8806 60.5634 95.9681 60.5816 96.0543C60.6007 96.141 60.6181 96.2287 60.6349 96.3161C60.6356 96.3211 60.6364 96.3254 60.6378 96.3304C60.6532 96.413 60.6686 96.4963 60.6823 96.5795C60.6977 96.6678 60.7116 96.7567 60.7248 96.845C60.7379 96.9339 60.7495 97.0223 60.7605 97.1111C60.7663 97.1561 60.7714 97.2009 60.7766 97.2457C60.7875 97.3396 60.7969 97.4336 60.805 97.5282C60.8101 97.5773 60.8137 97.6272 60.8174 97.6777C60.8619 98.2022 61.3087 98.6072 61.8481 98.6072H64.5162C65.0557 98.6072 65.5024 98.2022 65.547 97.6777C65.5507 97.6272 65.5543 97.5773 65.5594 97.5282C65.5674 97.4336 65.5769 97.3396 65.5878 97.2457C65.593 97.2009 65.5981 97.1561 65.6039 97.1111C65.6149 97.0223 65.6266 96.9339 65.6396 96.845C65.6462 96.801 65.6528 96.756 65.6601 96.7119C65.6813 96.5795 65.7046 96.4478 65.7295 96.3168C65.7463 96.2294 65.7637 96.1425 65.7828 96.0557C65.7989 95.981 65.8155 95.9055 65.8331 95.8316C65.8499 95.7595 65.8675 95.6885 65.8856 95.6165C65.9222 95.4749 65.9609 95.3333 66.0024 95.1931C66.0214 95.1297 66.0405 95.0642 66.0601 95.0009C66.0791 94.9397 66.0989 94.8784 66.1192 94.8179C66.139 94.7589 66.1587 94.7005 66.1791 94.6414C66.2186 94.5276 66.2594 94.4152 66.3024 94.3034C66.3222 94.2508 66.3427 94.1987 66.3639 94.1461C67.6537 90.917 70.2948 88.342 73.6066 87.0842C73.6608 87.0637 73.714 87.0437 73.768 87.0245C73.8826 86.9825 73.9979 86.9427 74.1147 86.9042C74.1753 86.8843 74.2351 86.8651 74.2957 86.8458C74.3578 86.826 74.4206 86.8067 74.4833 86.7882C74.5483 86.7689 74.614 86.7505 74.679 86.732C74.8229 86.6914 74.9695 86.6538 75.1148 86.6181C75.1886 86.6003 75.2616 86.5831 75.3353 86.5669C75.4112 86.5498 75.4871 86.5335 75.5638 86.5178C75.6528 86.5 75.7433 86.483 75.8323 86.4659C75.9667 86.4409 76.1025 86.4181 76.2383 86.3982C76.2835 86.3911 76.3294 86.3847 76.3748 86.3783C76.466 86.3654 76.5566 86.354 76.6477 86.3434C76.6938 86.3377 76.7398 86.3327 76.7857 86.3277C76.8822 86.317 76.9785 86.3078 77.0755 86.3001C77.126 86.2951 77.1771 86.2915 77.2289 86.2879C77.7668 86.2444 78.1821 85.8097 78.1821 85.2829V82.6823C78.1821 82.1527 77.7624 81.7157 77.2208 81.6766ZM63.1826 90.1632C61.6599 87.6025 59.4692 85.4665 56.8426 83.9826C59.4692 82.4978 61.6599 80.362 63.1826 77.8019C64.7045 80.362 66.8953 82.4978 69.5218 83.9826C66.8953 85.4665 64.7045 87.6025 63.1826 90.1632Z" fill="#9B238A"/>
</g>
<g opacity="0.05">
<path d="M334.857 81.6766C334.846 81.6759 334.834 81.6751 334.823 81.6737C334.776 81.6701 334.73 81.6666 334.683 81.6623C334.626 81.6573 334.569 81.6524 334.513 81.6467C334.469 81.6425 334.426 81.6375 334.383 81.6332C334.345 81.6289 334.308 81.6246 334.27 81.6203C334.225 81.6146 334.181 81.6089 334.135 81.6032H334.131C334.036 81.5904 333.942 81.577 333.848 81.5627C333.76 81.5491 333.673 81.5349 333.586 81.52C333.412 81.4901 333.239 81.4567 333.068 81.4189C332.983 81.4003 332.897 81.3805 332.812 81.3605C332.738 81.3428 332.665 81.325 332.592 81.3064C332.447 81.2695 332.302 81.2295 332.159 81.1869C332.024 81.1471 331.889 81.105 331.756 81.0616C331.632 81.0204 331.508 80.9777 331.385 80.9329C331.328 80.9115 331.27 80.8901 331.213 80.8687C331.105 80.8267 330.996 80.7841 330.888 80.74C327.611 79.3905 325.037 76.7336 323.857 73.4398C323.837 73.3855 323.818 73.3315 323.8 73.2774C323.761 73.1635 323.723 73.0482 323.687 72.933C323.648 72.8098 323.613 72.6853 323.578 72.5607C323.542 72.4276 323.507 72.2932 323.475 72.1586C323.458 72.0867 323.442 72.0148 323.426 71.9422C323.393 71.7928 323.363 71.6427 323.336 71.4917C323.322 71.4141 323.31 71.3352 323.297 71.2569L323.296 71.2526C323.293 71.2312 323.289 71.2099 323.286 71.1878C323.277 71.1287 323.268 71.0697 323.261 71.0106C323.258 70.9956 323.257 70.9806 323.254 70.9664L323.254 70.9636C323.243 70.8817 323.233 70.8006 323.224 70.7188C323.213 70.6248 323.203 70.5309 323.195 70.4361C323.191 70.3892 323.187 70.3423 323.183 70.2946L323.183 70.2868C323.138 69.763 322.691 69.3572 322.152 69.3572H319.484C318.944 69.3572 318.498 69.763 318.453 70.2868L318.452 70.2946C318.449 70.3423 318.445 70.3892 318.441 70.4361C318.433 70.5309 318.423 70.6248 318.412 70.7188C318.403 70.8056 318.392 70.8917 318.38 70.9779C318.369 71.0604 318.358 71.1437 318.344 71.2255C318.334 71.2904 318.323 71.355 318.312 71.4191C318.303 71.4739 318.293 71.5287 318.282 71.5827C318.273 71.6368 318.262 71.691 318.252 71.7458C318.218 71.9138 318.181 72.0796 318.139 72.2447L318.139 72.2482C318.119 72.3308 318.098 72.4134 318.075 72.4952C318.054 72.5771 318.031 72.659 318.006 72.74C317.987 72.8034 317.968 72.8675 317.949 72.9301C317.931 72.9913 317.911 73.0525 317.891 73.113C317.872 73.17 317.853 73.2262 317.834 73.2831C317.815 73.3386 317.795 73.3941 317.776 73.4496C317.739 73.5529 317.7 73.6561 317.66 73.7587C316.556 76.5869 314.415 78.9165 311.69 80.3051C311.602 80.3506 311.513 80.394 311.424 80.4368C311.324 80.4859 311.223 80.5328 311.122 80.5776C311.072 80.6004 311.02 80.6231 310.969 80.6453C310.867 80.6901 310.765 80.7329 310.661 80.7748C310.551 80.8196 310.439 80.8631 310.328 80.9044C310.271 80.9249 310.215 80.9456 310.159 80.9656C309.975 81.0304 309.79 81.0923 309.603 81.1492C309.539 81.169 309.474 81.1883 309.409 81.2069C309.34 81.2275 309.271 81.2467 309.201 81.2652C309.131 81.2843 309.061 81.3029 308.991 81.32C308.852 81.3548 308.71 81.3883 308.569 81.4189C308.398 81.456 308.224 81.4894 308.05 81.52C307.963 81.5349 307.876 81.5491 307.788 81.5627C307.694 81.577 307.6 81.5904 307.505 81.6032H307.501C307.456 81.6089 307.411 81.6146 307.366 81.6203C307.328 81.6246 307.291 81.6289 307.253 81.6332C307.21 81.6375 307.167 81.6425 307.123 81.6467C307.067 81.6524 307.01 81.6573 306.953 81.6623C306.906 81.6666 306.86 81.6701 306.813 81.6737C306.802 81.6751 306.79 81.6759 306.779 81.6766C306.238 81.7157 305.818 82.1527 305.818 82.6823V85.2829C305.818 85.8097 306.233 86.2444 306.771 86.2879C306.823 86.2915 306.873 86.2951 306.925 86.3001C307.022 86.3078 307.118 86.317 307.214 86.3277C307.26 86.3327 307.306 86.3377 307.352 86.3434C307.444 86.354 307.535 86.3654 307.625 86.3783C307.671 86.3847 307.717 86.3911 307.763 86.3982C307.898 86.4181 308.033 86.4409 308.167 86.4659C308.256 86.4821 308.347 86.4992 308.435 86.5178C308.578 86.5469 308.722 86.579 308.863 86.6131C309.004 86.6466 309.145 86.6829 309.285 86.7221C309.348 86.7398 309.411 86.7576 309.474 86.776C309.598 86.8124 309.723 86.8508 309.847 86.8922C309.905 86.9113 309.963 86.9306 310.02 86.9506C310.126 86.9861 310.229 87.0239 310.333 87.0623C310.478 87.1164 310.623 87.1733 310.766 87.2324C310.861 87.2714 310.955 87.3121 311.049 87.3541C313.731 88.539 315.914 90.6102 317.203 93.1824C317.249 93.2728 317.293 93.3632 317.336 93.455C317.406 93.6037 317.474 93.7547 317.538 93.9062C317.56 93.9581 317.581 94.0095 317.602 94.0614C317.647 94.1717 317.69 94.2835 317.732 94.3952C317.753 94.4514 317.774 94.5076 317.793 94.5638C317.814 94.6236 317.836 94.6841 317.856 94.7447C317.901 94.8786 317.944 95.0137 317.985 95.149C318.006 95.2202 318.027 95.2905 318.046 95.3624C318.066 95.4336 318.085 95.5062 318.104 95.5782C318.123 95.6501 318.141 95.7226 318.158 95.7952C318.179 95.8806 318.199 95.9681 318.217 96.0543C318.236 96.141 318.254 96.2287 318.271 96.3161C318.271 96.3211 318.272 96.3254 318.274 96.3304C318.289 96.413 318.304 96.4963 318.318 96.5795C318.333 96.6678 318.347 96.7567 318.361 96.845C318.374 96.9339 318.385 97.0223 318.396 97.1111C318.402 97.1561 318.407 97.2009 318.412 97.2457C318.423 97.3396 318.433 97.4336 318.441 97.5282C318.446 97.5773 318.449 97.6272 318.453 97.6777C318.498 98.2022 318.944 98.6072 319.484 98.6072H322.152C322.691 98.6072 323.138 98.2022 323.183 97.6777C323.186 97.6272 323.19 97.5773 323.195 97.5282C323.203 97.4336 323.213 97.3396 323.224 97.2457C323.229 97.2009 323.234 97.1561 323.24 97.1111C323.251 97.0223 323.262 96.9339 323.275 96.845C323.282 96.801 323.289 96.756 323.296 96.7119C323.317 96.5795 323.34 96.4478 323.365 96.3168C323.382 96.2294 323.399 96.1425 323.419 96.0557C323.435 95.981 323.451 95.9055 323.469 95.8316C323.486 95.7595 323.503 95.6885 323.521 95.6165C323.558 95.4749 323.597 95.3333 323.638 95.1931C323.657 95.1297 323.676 95.0642 323.696 95.0009C323.715 94.9397 323.735 94.8784 323.755 94.8179C323.775 94.7589 323.794 94.7005 323.815 94.6414C323.854 94.5276 323.895 94.4152 323.938 94.3034C323.958 94.2508 323.978 94.1987 324 94.1461C325.289 90.917 327.931 88.342 331.242 87.0842C331.297 87.0637 331.35 87.0437 331.404 87.0245C331.518 86.9825 331.634 86.9427 331.75 86.9042C331.811 86.8843 331.871 86.8651 331.931 86.8458C331.994 86.826 332.056 86.8067 332.119 86.7882C332.184 86.7689 332.25 86.7505 332.315 86.732C332.459 86.6914 332.605 86.6538 332.751 86.6181C332.824 86.6003 332.897 86.5831 332.971 86.5669C333.047 86.5498 333.123 86.5335 333.2 86.5178C333.289 86.5 333.379 86.483 333.468 86.4659C333.602 86.4409 333.738 86.4181 333.874 86.3982C333.919 86.3911 333.965 86.3847 334.011 86.3783C334.102 86.3654 334.192 86.354 334.283 86.3434C334.33 86.3377 334.376 86.3327 334.421 86.3277C334.518 86.317 334.614 86.3078 334.711 86.3001C334.762 86.2951 334.813 86.2915 334.865 86.2879C335.403 86.2444 335.818 85.8097 335.818 85.2829V82.6823C335.818 82.1527 335.398 81.7157 334.857 81.6766ZM320.818 90.1632C319.296 87.6025 317.105 85.4665 314.478 83.9826C317.105 82.4978 319.296 80.362 320.818 77.8019C322.34 80.362 324.531 82.4978 327.158 83.9826C324.531 85.4665 322.34 87.6025 320.818 90.1632Z" fill="#9B238A"/>
</g>
<g opacity="0.05">
<path d="M158.423 64.6403C158.417 64.6399 158.41 64.6394 158.403 64.6386C158.375 64.6365 158.347 64.6344 158.319 64.6319C158.285 64.6289 158.251 64.6261 158.217 64.6227C158.191 64.6202 158.165 64.6172 158.139 64.6147C158.116 64.6122 158.094 64.6096 158.071 64.6071C158.044 64.6038 158.018 64.6004 157.991 64.597H157.988C157.931 64.5895 157.874 64.5815 157.818 64.5731C157.765 64.5651 157.713 64.5567 157.661 64.548C157.556 64.5303 157.453 64.5106 157.35 64.4883C157.299 64.4774 157.248 64.4657 157.196 64.4539C157.152 64.4435 157.108 64.4329 157.065 64.422C156.977 64.4002 156.891 64.3766 156.804 64.3515C156.723 64.328 156.643 64.3032 156.563 64.2776C156.489 64.2533 156.414 64.2281 156.341 64.2017C156.306 64.1891 156.271 64.1765 156.237 64.1638C156.172 64.1391 156.107 64.1139 156.042 64.0879C154.076 63.2921 152.531 61.7252 151.823 59.7827C151.812 59.7507 151.8 59.7188 151.789 59.6869C151.766 59.6198 151.743 59.5518 151.722 59.4838C151.698 59.4112 151.677 59.3377 151.656 59.2643C151.634 59.1857 151.614 59.1065 151.595 59.0271C151.584 58.9847 151.574 58.9423 151.565 58.8995C151.545 58.8114 151.527 58.7229 151.511 58.6338C151.503 58.5881 151.495 58.5415 151.487 58.4953L151.487 58.4928C151.485 58.4802 151.483 58.4676 151.481 58.4546C151.475 58.4198 151.47 58.3849 151.466 58.3501C151.464 58.3413 151.463 58.3324 151.462 58.324L151.461 58.3224C151.455 58.2741 151.449 58.2262 151.443 58.178C151.437 58.1226 151.431 58.0672 151.426 58.0113C151.424 57.9836 151.422 57.9559 151.419 57.9278L151.419 57.9232C151.392 57.6143 151.124 57.375 150.8 57.375H149.2C148.876 57.375 148.608 57.6143 148.581 57.9232L148.581 57.9278C148.579 57.9559 148.576 57.9836 148.574 58.0113C148.569 58.0672 148.563 58.1226 148.557 58.178C148.551 58.2292 148.544 58.28 148.537 58.3308C148.531 58.3795 148.524 58.4286 148.515 58.4768C148.51 58.5151 148.503 58.5532 148.496 58.591C148.491 58.6233 148.485 58.6556 148.479 58.6875C148.473 58.7194 148.466 58.7514 148.46 58.7837C148.44 58.8827 148.418 58.9805 148.393 59.0779L148.392 59.08C148.381 59.1287 148.368 59.1774 148.354 59.2256C148.342 59.2739 148.328 59.3222 148.313 59.37C148.302 59.4074 148.29 59.4452 148.279 59.4821C148.268 59.5182 148.256 59.5543 148.244 59.59C148.233 59.6236 148.221 59.6567 148.21 59.6903C148.198 59.723 148.187 59.7558 148.175 59.7885C148.152 59.8494 148.129 59.9102 148.105 59.9707C147.443 61.6387 146.158 63.0126 144.523 63.8315C144.471 63.8583 144.417 63.8839 144.364 63.9091C144.304 63.9381 144.243 63.9658 144.182 63.9922C144.152 64.0056 144.122 64.019 144.091 64.0321C144.03 64.0585 143.968 64.0837 143.906 64.1085C143.84 64.1349 143.773 64.1606 143.706 64.1849C143.672 64.197 143.638 64.2092 143.605 64.221C143.494 64.2592 143.383 64.2957 143.271 64.3293C143.232 64.341 143.193 64.3523 143.154 64.3633C143.113 64.3755 143.072 64.3867 143.03 64.3977C142.988 64.409 142.946 64.4199 142.904 64.43C142.82 64.4505 142.735 64.4703 142.65 64.4883C142.548 64.5102 142.444 64.5299 142.339 64.548C142.287 64.5567 142.235 64.5651 142.182 64.5731C142.126 64.5815 142.069 64.5895 142.012 64.597H142.01C141.983 64.6004 141.956 64.6038 141.929 64.6071C141.906 64.6096 141.884 64.6122 141.861 64.6147C141.835 64.6172 141.809 64.6202 141.783 64.6227C141.749 64.6261 141.715 64.6289 141.681 64.6319C141.653 64.6344 141.626 64.6365 141.597 64.6386C141.59 64.6394 141.583 64.6399 141.577 64.6403C141.252 64.6633 141 64.9211 141 65.2334V66.7671C141 67.0777 141.249 67.3341 141.572 67.3598C141.603 67.3619 141.633 67.364 141.664 67.367C141.722 67.3715 141.78 67.377 141.838 67.3833C141.865 67.3862 141.893 67.3892 141.921 67.3925C141.975 67.3988 142.03 67.4055 142.084 67.4131C142.112 67.4169 142.139 67.4206 142.167 67.4248C142.248 67.4365 142.329 67.45 142.41 67.4647C142.463 67.4743 142.517 67.4844 142.57 67.4954C142.656 67.5125 142.742 67.5315 142.827 67.5516C142.912 67.5713 142.996 67.5927 143.08 67.6159C143.118 67.6263 143.156 67.6368 143.193 67.6477C143.268 67.6691 143.343 67.6918 143.417 67.7162C143.452 67.7274 143.487 67.7388 143.521 67.7506C143.585 67.7715 143.647 67.7938 143.709 67.8165C143.796 67.8484 143.883 67.8819 143.969 67.9168C144.026 67.9398 144.083 67.9638 144.139 67.9885C145.748 68.6874 147.057 69.9088 147.831 71.4258C147.859 71.4791 147.885 71.5324 147.911 71.5866C147.953 71.6742 147.993 71.7633 148.032 71.8526C148.045 71.8833 148.058 71.9136 148.07 71.9442C148.098 72.0092 148.124 72.0751 148.148 72.141C148.161 72.1742 148.173 72.2073 148.185 72.2405C148.198 72.2757 148.211 72.3114 148.223 72.3472C148.25 72.4261 148.276 72.5058 148.3 72.5855C148.313 72.6275 148.325 72.669 148.337 72.7114C148.349 72.7534 148.36 72.7962 148.372 72.8387C148.383 72.8811 148.394 72.9238 148.404 72.9666C148.417 73.017 148.429 73.0686 148.44 73.1195C148.451 73.1706 148.462 73.2223 148.472 73.2739C148.472 73.2768 148.473 73.2793 148.473 73.2823C148.483 73.331 148.492 73.3801 148.5 73.4292C148.509 73.4813 148.518 73.5337 148.526 73.5858C148.533 73.6382 148.54 73.6903 148.547 73.7427C148.551 73.7692 148.554 73.7957 148.557 73.8221C148.563 73.8774 148.569 73.9329 148.574 73.9887C148.577 74.0176 148.579 74.0471 148.581 74.0769C148.608 74.3862 148.876 74.625 149.2 74.625H150.8C151.124 74.625 151.392 74.3862 151.419 74.0769C151.421 74.0471 151.423 74.0176 151.426 73.9887C151.431 73.9329 151.437 73.8774 151.443 73.8221C151.446 73.7957 151.45 73.7692 151.453 73.7427C151.46 73.6903 151.467 73.6382 151.475 73.5858C151.478 73.5598 151.482 73.5333 151.487 73.5073C151.5 73.4292 151.513 73.3515 151.528 73.2743C151.539 73.2227 151.549 73.1715 151.56 73.1203C151.57 73.0762 151.58 73.0317 151.591 72.9881C151.601 72.9456 151.611 72.9037 151.622 72.8613C151.644 72.7777 151.667 72.6943 151.692 72.6115C151.704 72.5742 151.715 72.5356 151.727 72.4982C151.738 72.4621 151.75 72.426 151.762 72.3903C151.774 72.3555 151.786 72.3211 151.798 72.2862C151.822 72.2191 151.846 72.1528 151.872 72.0869C151.884 72.0558 151.896 72.0251 151.909 71.9941C152.683 70.0898 154.268 68.5712 156.255 67.8294C156.287 67.8173 156.319 67.8055 156.352 67.7942C156.42 67.7694 156.489 67.746 156.56 67.7232C156.596 67.7115 156.632 67.7002 156.668 67.6888C156.705 67.6771 156.743 67.6658 156.781 67.6548C156.82 67.6435 156.859 67.6326 156.898 67.6217C156.984 67.5978 157.072 67.5756 157.16 67.5545C157.204 67.544 157.248 67.5339 157.292 67.5243C157.337 67.5142 157.383 67.5046 157.429 67.4954C157.482 67.4848 157.537 67.4748 157.59 67.4647C157.671 67.45 157.752 67.4365 157.834 67.4248C157.861 67.4206 157.888 67.4169 157.916 67.4131C157.97 67.4055 158.025 67.3988 158.079 67.3925C158.107 67.3892 158.135 67.3862 158.162 67.3833C158.22 67.377 158.278 67.3715 158.336 67.367C158.366 67.364 158.397 67.3619 158.428 67.3598C158.751 67.3341 159 67.0777 159 66.7671V65.2334C159 64.9211 158.748 64.6633 158.423 64.6403ZM150 69.6452C149.087 68.135 147.772 66.8754 146.196 66.0003C147.772 65.1246 149.087 63.865 150 62.3552C150.913 63.865 152.228 65.1246 153.804 66.0003C152.228 66.8754 150.913 68.135 150 69.6452Z" fill="#9B238A"/>
</g>
<defs>
<linearGradient id="paint0_linear_3896_23788" x1="230" y1="0" x2="230" y2="108" gradientUnits="userSpaceOnUse">
<stop offset="0.388031" stop-color="#FFE7FE"/>
<stop offset="1" stop-color="white"/>
</linearGradient>
</defs>
</svg>
