<svg width="116" height="16" viewBox="0 0 116 16" fill="none" xmlns="http://www.w3.org/2000/svg">
<g clip-path="url(#clip0)">
<path fill-rule="evenodd" clip-rule="evenodd" d="M33.0586 9.90441C32.7314 10.3026 32.2786 10.5017 31.7005 10.5017C31.1495 10.5017 30.7002 10.2767 30.3525 9.82668C30.0048 9.37668 29.8309 8.78759 29.8309 8.05941V7.99804C29.8309 7.26986 30.0041 6.6835 30.3505 6.23895C30.6968 5.79441 31.1495 5.57214 31.7086 5.57214C32.265 5.57214 32.7055 5.76304 33.03 6.14486V3.66577H33.8441V10.4158H33.0955L33.0586 9.90441ZM0.842727 10.4158V7.91214H2.34818C3.07364 7.91214 3.63 7.74441 4.01727 7.40895C4.40455 7.0735 4.59818 6.59486 4.59818 5.97304C4.59818 5.38395 4.39977 4.91077 4.00295 4.5535C3.60614 4.19623 3.05727 4.01759 2.35636 4.01759H0V10.4158H0.842727ZM2.35636 7.22077H0.842727V4.71304H2.40545C2.82545 4.72123 3.15545 4.83918 3.39545 5.06691C3.63545 5.29464 3.75545 5.59941 3.75545 5.98123C3.75545 6.38214 3.63545 6.68895 3.39545 6.90168C3.15545 7.11441 2.80909 7.22077 2.35636 7.22077ZM8.63591 10.1949C8.30591 10.3994 7.92682 10.5017 7.49864 10.5017C6.855 10.5017 6.33341 10.278 5.93386 9.83077C5.53432 9.3835 5.33455 8.79032 5.33455 8.05123V7.99395C5.33455 7.52759 5.42591 7.10827 5.60864 6.736C5.79136 6.36373 6.04636 6.07668 6.37364 5.87486C6.70091 5.67304 7.07318 5.57214 7.49045 5.57214C8.13955 5.57214 8.66386 5.79645 9.06341 6.24509C9.46295 6.69373 9.66273 7.29032 9.66273 8.03486V8.09213C9.66273 8.55304 9.57409 8.96759 9.39682 9.33577C9.21955 9.70395 8.96591 9.99032 8.63591 10.1949ZM7.49864 9.83895C7.08955 9.83895 6.76295 9.67941 6.51886 9.36032C6.27477 9.04123 6.15273 8.6185 6.15273 8.09214C6.15273 7.49759 6.27545 7.04009 6.52091 6.71964C6.76636 6.39918 7.08955 6.23895 7.49045 6.23895C7.90227 6.23895 8.23159 6.40123 8.47841 6.72577C8.72523 7.05032 8.84864 7.47304 8.84864 7.99395C8.84864 8.57759 8.72727 9.031 8.48454 9.35418C8.24182 9.67736 7.91318 9.83895 7.49864 9.83895ZM13.4223 6.81168L12.2973 10.4158H11.6345L10.2559 5.66214H11.0659L12.0027 9.22123L13.1073 5.66214H13.7618L14.8909 9.29486L15.8073 5.66214H16.6214L15.2345 10.4158H14.5759L13.4223 6.81168ZM19.4195 10.5017C20.2159 10.5017 20.8132 10.1962 21.2114 9.58532L20.7164 9.19668C20.5664 9.39032 20.3918 9.54577 20.1927 9.66304C19.9936 9.78032 19.7495 9.83895 19.4605 9.83895C19.0568 9.83895 18.7241 9.69509 18.4623 9.40736C18.2005 9.11964 18.0641 8.74123 18.0532 8.27214H21.2727V7.93259C21.2727 7.17441 21.1016 6.59145 20.7593 6.18373C20.417 5.776 19.9364 5.57214 19.3173 5.57214C18.9382 5.57214 18.587 5.67713 18.2639 5.88714C17.9407 6.09714 17.6891 6.38759 17.5091 6.7585C17.3291 7.12941 17.2391 7.55077 17.2391 8.02259V8.16986C17.2391 8.87895 17.4409 9.44486 17.8445 9.86759C18.2482 10.2903 18.7732 10.5017 19.4195 10.5017ZM18.0777 7.60123H20.4586V7.53986C20.4368 7.12804 20.3264 6.80827 20.1273 6.58054C19.9282 6.35282 19.6582 6.23895 19.3173 6.23895C18.99 6.23895 18.7145 6.35895 18.4909 6.59895C18.2673 6.83895 18.1295 7.17304 18.0777 7.60123ZM23.0277 10.4158V7.04077C23.2186 6.58532 23.58 6.35759 24.1118 6.35759C24.2564 6.35759 24.39 6.3685 24.5127 6.39032V5.6335C24.4309 5.59259 24.3109 5.57214 24.1527 5.57214C23.6645 5.57214 23.2868 5.78486 23.0195 6.21032L23.0073 5.66214H22.2136V10.4158H23.0277ZM29.025 9.58532C28.6268 10.1962 28.0295 10.5017 27.2332 10.5017C26.5868 10.5017 26.0618 10.2903 25.6582 9.86759C25.2545 9.44486 25.0527 8.87895 25.0527 8.16986V8.02259C25.0527 7.55077 25.1427 7.12941 25.3227 6.7585C25.5027 6.38759 25.7543 6.09714 26.0775 5.88714C26.4007 5.67713 26.7518 5.57214 27.1309 5.57214C27.75 5.57214 28.2307 5.776 28.573 6.18373C28.9152 6.59145 29.0864 7.17441 29.0864 7.93259V8.27214H25.8668C25.8777 8.74123 26.0141 9.11964 26.2759 9.40736C26.5377 9.69509 26.8705 9.83895 27.2741 9.83895C27.5632 9.83895 27.8073 9.78032 28.0064 9.66304C28.2055 9.54577 28.38 9.39032 28.53 9.19668L29.025 9.58532ZM28.2723 7.60123H25.8914C25.9432 7.17304 26.0809 6.83895 26.3045 6.59895C26.5282 6.35895 26.8036 6.23895 27.1309 6.23895C27.4718 6.23895 27.7418 6.35282 27.9409 6.58054C28.14 6.80827 28.2505 7.12804 28.2723 7.53986V7.60123ZM31.9009 9.81441C31.5082 9.81441 31.2007 9.66168 30.9784 9.35623C30.7561 9.05077 30.645 8.62941 30.645 8.09214C30.645 7.48668 30.7561 7.03054 30.9784 6.72373C31.2007 6.41691 31.5109 6.2635 31.9091 6.2635C32.4136 6.2635 32.7873 6.48714 33.03 6.93441V9.11895C32.7927 9.58259 32.4164 9.81441 31.9009 9.81441ZM41.4757 9.841C41.1416 10.2815 40.6936 10.5017 40.1318 10.5017C39.5318 10.5017 39.0682 10.2903 38.7409 9.86759L38.7 10.4158H37.9514V3.66577H38.7655V6.18577C39.0927 5.77668 39.5455 5.57214 40.1236 5.57214C40.7018 5.57214 41.1552 5.79032 41.4839 6.22668C41.8125 6.66304 41.9768 7.26168 41.9768 8.02259V8.09213C41.9768 8.81759 41.8098 9.40054 41.4757 9.841ZM39.9314 9.81441C39.4023 9.81441 39.0136 9.56486 38.7655 9.06577V7.00804C39 6.51168 39.3859 6.2635 39.9232 6.2635C40.3241 6.2635 40.6316 6.41418 40.8457 6.71554C41.0598 7.01691 41.1668 7.44441 41.1668 7.99804C41.1668 8.60623 41.0584 9.061 40.8416 9.36236C40.6248 9.66373 40.3214 9.81441 39.9314 9.81441ZM44.6236 11.148C44.3264 11.939 43.8559 12.3344 43.2123 12.3344L43.0568 12.3221L42.7541 12.2649V11.6062L42.975 11.6226C43.2505 11.6226 43.4652 11.5674 43.6193 11.4569C43.7734 11.3465 43.8995 11.1426 43.9977 10.8453L44.1777 10.3626L42.4841 5.66214H43.3718L44.5582 9.22532L45.6627 5.66214H46.5341L44.6236 11.148Z" fill="#A1A3A8"/>
<path fill-rule="evenodd" clip-rule="evenodd" d="M61.2969 4.11111C61.2969 2.39289 59.8399 1 58.0427 1H51.5342V2.03704C51.5342 3.75526 52.9912 5.14815 54.7884 5.14815H61.2969V4.11111ZM61.2969 7.22222V6.18518H54.7884L54.6664 6.18733C52.9257 6.24867 51.5342 7.61713 51.5342 9.2963V15H52.6189L52.7409 14.9979C54.4817 14.9365 55.8732 13.5681 55.8732 11.8889V10.3333H58.0427L58.1647 10.3312C59.9054 10.2699 61.2969 8.90139 61.2969 7.22222Z" fill="#0040FF"/>
<path fill-rule="evenodd" clip-rule="evenodd" d="M70.8788 4.29412H67.4438C65.5467 4.29412 64.0088 5.76894 64.0088 7.58824V8.41177C64.0088 10.2311 65.5467 11.7059 67.4438 11.7059H72.5964V1H70.8788V4.29412ZM70.8788 10.0588H67.4438C66.4953 10.0588 65.7263 9.32141 65.7263 8.41176V7.58823C65.7263 6.67859 66.4953 5.94117 67.4438 5.94117H70.8788V10.0588ZM73.4551 4.29411H75.1726V11.7059H73.4551V4.29411ZM76.0314 8.41175V7.58822C76.0314 5.76893 77.5693 4.29411 79.4664 4.29411H84.619V11.7059C84.619 13.5252 83.081 15 81.1839 15H79.4664L78.5003 13.3529H81.1839C82.1325 13.3529 82.9014 12.6155 82.9014 11.7059H79.4664C77.5693 11.7059 76.0314 10.231 76.0314 8.41175ZM79.4664 10.0588H82.9014V5.94117H79.4664C78.5178 5.94117 77.7489 6.67859 77.7489 7.58823V8.41176C77.7489 9.32141 78.5178 10.0588 79.4664 10.0588ZM113.817 4.29411V10.0588H110.382C109.433 10.0588 108.664 9.3214 108.664 8.41175V4.29411H106.947V8.41175C106.947 10.231 108.485 11.7059 110.382 11.7059H113.817C113.817 12.6155 113.048 13.3529 112.099 13.3529H109.416L110.382 15H112.099C113.996 15 115.534 13.5252 115.534 11.7059V4.29411H113.817ZM97.5003 7.58822V8.41175C97.5003 10.231 99.0382 11.7059 100.935 11.7059H106.088V4.29411H100.935C99.0382 4.29411 97.5003 5.76893 97.5003 7.58822ZM104.37 10.0588H100.935C99.9868 10.0588 99.2178 9.32141 99.2178 8.41176V7.58823C99.2178 6.67859 99.9868 5.94117 100.935 5.94117H104.37V10.0588ZM88.054 4.29411H93.2065C95.1036 4.29411 96.6416 5.76893 96.6416 7.58822V8.41175C96.6416 10.231 95.1036 11.7059 93.2065 11.7059H89.7715V15H88.054V4.29411ZM93.2065 10.0588C94.1551 10.0588 94.924 9.32141 94.924 8.41176V7.58823C94.924 6.67859 94.1551 5.94117 93.2065 5.94117H89.7715V10.0588H93.2065ZM75.1726 1H73.4551V2.64706H75.1726V1ZM85.4777 4.29411H87.1952V11.7059H85.4777V4.29411ZM87.1952 1H85.4777V2.64706H87.1952V1Z" fill="#0040FF"/>
</g>
<defs>
<clipPath id="clip0">
<rect width="115.534" height="16" fill="white"/>
</clipPath>
</defs>
</svg>
