<svg id="service-svgrepo-com" xmlns="http://www.w3.org/2000/svg" width="38" height="38" viewBox="0 0 38 38">
  <defs>
    <style>
      .cls-1 {
        fill: none;
      }

      .cls-2 {
        fill: #c5c5c5;
      }
    </style>
  </defs>
  <path id="Path_1" data-name="Path 1" class="cls-1" d="M0,0H38V38H0Z"/>
  <path id="Path_2" data-name="Path 2" class="cls-2" d="M4.272,5.58a10.292,10.292,0,0,1,14-.519A10.292,10.292,0,0,1,32.8,19.554L20.506,31.888a3.167,3.167,0,0,1-4.305.161l-.174-.16L3.733,19.554A10.292,10.292,0,0,1,4.272,5.58ZM6.511,7.819a7.125,7.125,0,0,0-.231,9.833l.231.244L18.267,29.651l8.4-8.4-5.6-5.6-1.678,1.678a4.75,4.75,0,1,1-6.72-6.717L16,7.288a7.127,7.127,0,0,0-9.242.3l-.244.231ZM19.947,12.3a1.583,1.583,0,0,1,2.239,0L28.9,19.013l1.121-1.118A7.125,7.125,0,0,0,20.189,7.587l-.242.231-5.038,5.038a1.583,1.583,0,0,0-.123,2.1l.123.138a1.583,1.583,0,0,0,2.1.123l.138-.123Z" transform="translate(0.733 1.496)"/>
</svg>
