<svg xmlns="http://www.w3.org/2000/svg" width="42.239" height="39" viewBox="0 0 42.239 39">
  <defs>
    <style>
      .cls-1 {
        fill: #fff;
      }
    </style>
  </defs>
  <g id="person-of-business-standing-with-a-screen-board-giving-a-lecture-svgrepo-com" transform="translate(-0.333 -20.482)">
    <path id="Path_161" data-name="Path 161" class="cls-1" d="M14.023,25.7a6.23,6.23,0,0,1-3.533,4.522h2.278a5.121,5.121,0,0,1,4.6,2.894L20.585,41a2.894,2.894,0,0,1-1.294,4.019,2.963,2.963,0,0,1-1.323.3A3.1,3.1,0,0,1,15.2,43.7l-1.639-3.143v6.619h9.456v5.24l-7.647,3.109a1.132,1.132,0,1,0,.853,2.1l6.794-2.764v2.493a1.13,1.13,0,1,0,2.261,0v-2.5l6.8,2.719a1.13,1.13,0,1,0,.842-2.1l-7.642-3.058V47.178H37.717a2.827,2.827,0,0,0,2.826-2.826V25.7H14.023ZM36.174,42.091h-13V40.4h13v1.7Zm0-5.087h-14.7v-1.7h14.7V37Zm0-5.087H19.217v-1.7H36.174v1.7Zm6.065-9.631v.045A2.238,2.238,0,0,1,40,24.569H14.13a6.2,6.2,0,0,0-1.964-4.522H40A2.238,2.238,0,0,1,42.239,22.285ZM2.826,24.569a5.087,5.087,0,1,1,5.087,5.087A5.087,5.087,0,0,1,2.826,24.569ZM18.8,44a2.016,2.016,0,0,1-2.577-.789l-3.787-7.272,0,19.619a2.326,2.326,0,0,1-2.04,2.347,2.261,2.261,0,0,1-2.482-2.251,2.26,2.26,0,0,1-2.482,2.25,2.325,2.325,0,0,1-2.04-2.346V43.786A1.694,1.694,0,0,1,1.607,45.48,1.758,1.758,0,0,1,0,43.693V35.308a3.957,3.957,0,0,1,3.957-3.957h8.815A3.955,3.955,0,0,1,16.342,33.6l3.207,7.851A1.783,1.783,0,0,1,18.8,44ZM2.826,24.569a5.087,5.087,0,1,1,5.087,5.087A5.087,5.087,0,0,1,2.826,24.569ZM18.8,44a2.016,2.016,0,0,1-2.577-.789l-3.787-7.272,0,19.619a2.326,2.326,0,0,1-2.04,2.347,2.261,2.261,0,0,1-2.482-2.251,2.26,2.26,0,0,1-2.482,2.25,2.325,2.325,0,0,1-2.04-2.346V43.786A1.694,1.694,0,0,1,1.607,45.48,1.758,1.758,0,0,1,0,43.693V35.308a3.957,3.957,0,0,1,3.957-3.957h8.815A3.955,3.955,0,0,1,16.342,33.6l3.207,7.851A1.783,1.783,0,0,1,18.8,44Z" transform="translate(0.333 1)"/>
  </g>
</svg>
