<svg xmlns="http://www.w3.org/2000/svg" width="40.46" height="39.615" viewBox="0 0 40.46 39.615">
  <defs>
    <style>
      .cls-1 {
        fill: #fff;
      }
    </style>
  </defs>
  <g id="cloud-computing-data-svgrepo-com" transform="translate(0 -4.936)">
    <g id="Group_1287" data-name="Group 1287" transform="translate(10.115 24.321)">
      <g id="Group_1286" data-name="Group 1286">
        <path id="Path_188" data-name="Path 188" class="cls-1" d="M128.269,231.372a10.115,10.115,0,1,0,10.115,10.115A10.115,10.115,0,0,0,128.269,231.372ZM126.4,246.417l-4.334-4.334,1.192-1.192,3.142,3.142,6.879-6.879,1.192,1.192Z" transform="translate(-118.154 -231.372)"/>
      </g>
    </g>
    <g id="Group_1289" data-name="Group 1289" transform="translate(0 4.936)">
      <g id="Group_1288" data-name="Group 1288" transform="translate(0 0)">
        <path id="Path_189" data-name="Path 189" class="cls-1" d="M34.72,17.917a10,10,0,0,0-9.28-12.981h-.076A9.862,9.862,0,0,0,16.2,11.351a7.275,7.275,0,0,0-5.395-1.644,7.447,7.447,0,0,0-6.221,5,9.95,9.95,0,0,0-.3,3A8.737,8.737,0,0,0,8.453,33.96a11.786,11.786,0,0,1,23.553,0A8.573,8.573,0,0,0,38.2,31.328,8.692,8.692,0,0,0,40.46,25.36,7.6,7.6,0,0,0,34.72,17.917Z" transform="translate(0 -4.936)"/>
      </g>
    </g>
  </g>
</svg>
