<svg xmlns="http://www.w3.org/2000/svg" width="43.333" height="39.95" viewBox="0 0 43.333 39.95">
  <defs>
    <style>
      .cls-1 {
        fill: #fff;
      }
    </style>
  </defs>
  <g id="handbag-svgrepo-com" transform="translate(-28.767 -11.6)">
    <g id="Group_1281" data-name="Group 1281" transform="translate(28.767 11.6)">
      <g id="Group_1279" data-name="Group 1279" transform="translate(0 10.339)">
        <path id="Path_183" data-name="Path 183" class="cls-1" d="M45.944,165.482c.286.121.359-.173.455-.3a1.311,1.311,0,0,1,1.036-.51h6a1.311,1.311,0,0,1,1.044.52c.092.121.17.406.418.3l16.936-8.6a.47.47,0,0,0,.27-.424v-2.584a2.192,2.192,0,0,0-2.186-2.186H30.953a2.192,2.192,0,0,0-2.186,2.186v2.761c0,.133.239.232.239.232Z" transform="translate(-28.767 -151.706)"/>
        <path id="Path_184" data-name="Path 184" class="cls-1" d="M54.743,209.306v1.6a1.315,1.315,0,0,1-1.311,1.311h-6a1.315,1.315,0,0,1-1.311-1.311v-1.539a.3.3,0,0,0-.192-.278l-16.952-8.6s-.212-.108-.212.164v20.136a2.192,2.192,0,0,0,2.186,2.186H69.914a2.192,2.192,0,0,0,2.186-2.186V200.842c0-.51-.369-.279-.369-.279L54.95,209.081S54.743,209.166,54.743,209.306Z" transform="translate(-28.767 -193.358)"/>
      </g>
      <g id="Group_1280" data-name="Group 1280" transform="translate(10.819)">
        <path id="Path_185" data-name="Path 185" class="cls-1" d="M44.092,8.68l-1.483,0c-.279,0-.06-.182-.06-.182L51.843.451a2.307,2.307,0,0,1,2.74,0l9.379,8.1s.175.121.009.121l-1.678,0a.416.416,0,0,1-.268-.1L53.574,1.214a.6.6,0,0,0-.723,0L44.39,8.587A.419.419,0,0,1,44.092,8.68Z" transform="translate(-42.468)"/>
      </g>
    </g>
  </g>
</svg>
